<svg width="100" height="100" viewBox="0 0 100 100" fill="none" xmlns="http://www.w3.org/2000/svg">
<g clip-path="url(#clip0_47_33348)">
<path d="M50 100C77.6142 100 100 77.6142 100 50C100 22.3858 77.6142 0 50 0C22.3858 0 0 22.3858 0 50C0 77.6142 22.3858 100 50 100Z" fill="#3078F6"/>
<path d="M81.4999 65.7731H69.7422V64.17H79.902V23.4329C66.9948 21.7473 26.2216 23.268 20.1082 23.5051V64.17H47.0103V65.7731H18.5103V21.969L19.2783 21.9381C21.2474 21.8556 67.6855 19.9484 80.8298 21.9484L81.5103 22.0515V65.7731H81.4999Z" fill="white"/>
<path d="M75.1856 62.8605H69.7423V61.2574H73.5876V28.3914C63.0567 27.0615 30.6443 28.2522 25.232 28.4636V61.2574H47.0103V62.8605H23.634V26.9275L24.4021 26.8966C26.0052 26.8296 63.8041 25.278 74.5155 26.9069L75.1959 27.01V62.8605H75.1856Z" fill="white"/>
<path d="M61.9227 88.4071L60.1855 76.6442L60.9587 76.5153C60.9587 76.5153 62.6495 76.1545 64.9639 73.5669L65.8196 72.6133L71.4123 86.3195L64.9794 82.3504L61.9278 88.4071H61.9227ZM61.9845 77.8504L62.768 83.1648L64.3299 80.0617L68.0721 82.371L65.2835 75.536C63.866 76.9122 62.701 77.5514 61.9845 77.8452V77.8504Z" fill="white"/>
<path d="M60.4227 91.7529L56.7784 85.6034L51.7629 90.191L53.3145 74.5312L57.2114 75.2477L61.6341 75.289L60.4227 91.7477V91.7529ZM57.1547 83.088L59.2011 86.5467L59.9124 76.8766L56.9897 76.8354L54.7372 76.423L53.7732 86.1859L57.1547 83.088Z" fill="white"/>
<path d="M30.9896 36.6288H57.0978C58.304 36.6288 59.5154 36.6752 60.7216 36.6288C60.737 36.6288 60.7576 36.6288 60.7731 36.6288C62.0102 36.6288 62.0102 34.7062 60.7731 34.7062H34.6649C33.4587 34.7062 32.2473 34.6598 31.0412 34.7062C31.0257 34.7062 31.0051 34.7062 30.9896 34.7062C29.7525 34.7062 29.7525 36.6288 30.9896 36.6288Z" fill="white"/>
<path d="M30.9896 44.366H48.4948C49.7319 44.366 49.7319 42.4434 48.4948 42.4434H30.9896C29.7525 42.4434 29.7525 44.366 30.9896 44.366Z" fill="white"/>
<path d="M33.0413 52.4332H39.7423C40.2629 52.4332 40.7011 51.9899 40.7011 51.4744C40.7011 50.9589 40.2629 50.5156 39.7423 50.5156H33.0413C32.5207 50.5156 32.0825 50.9589 32.0825 51.4744C32.0825 51.9899 32.5207 52.4332 33.0413 52.4332Z" fill="white"/>
<path d="M58.371 77.139C51.6597 77.139 46.2009 71.6803 46.2009 64.9689C46.2009 58.2576 51.6597 52.7988 58.371 52.7988C65.0824 52.7988 70.5411 58.2576 70.5411 64.9689C70.5411 71.6803 65.0824 77.139 58.371 77.139ZM58.371 54.4019C52.5463 54.4019 47.804 59.1442 47.804 64.9689C47.804 70.7937 52.5463 75.5359 58.371 75.5359C64.1958 75.5359 68.938 70.7937 68.938 64.9689C68.938 59.1442 64.1958 54.4019 58.371 54.4019Z" fill="white"/>
<path d="M58.3711 72.6543C54.134 72.6543 50.6855 69.2059 50.6855 64.9688C50.6855 60.7317 54.134 57.2832 58.3711 57.2832C62.6082 57.2832 66.0567 60.7317 66.0567 64.9688C66.0567 69.2059 62.6082 72.6543 58.3711 72.6543ZM58.3711 58.8863C55.0154 58.8863 52.2886 61.6183 52.2886 64.9688C52.2886 68.3193 55.0206 71.0512 58.3711 71.0512C61.7216 71.0512 64.4536 68.3193 64.4536 64.9688C64.4536 61.6183 61.7216 58.8863 58.3711 58.8863Z" fill="white"/>
</g>
<defs>
<clipPath id="clip0_47_33348">
<rect width="100" height="100" fill="white"/>
</clipPath>
</defs>
</svg>
