<svg width="100" height="100" viewBox="0 0 100 100" fill="none" xmlns="http://www.w3.org/2000/svg">
<g clip-path="url(#clip0_51_36599)">
<path d="M50 100C77.6142 100 100 77.6142 100 50C100 22.3858 77.6142 0 50 0C22.3858 0 0 22.3858 0 50C0 77.6142 22.3858 100 50 100Z" fill="#3078F6"/>
<path d="M54.3603 80.9333C49.3912 81.6446 44.4582 81.0312 39.8036 79.1961C38.8809 78.8302 37.8551 78.3508 36.886 77.8302C35.917 77.3096 34.9427 76.7116 34.0201 76.0673C33.0974 75.423 32.3757 74.8559 31.5149 74.0931C30.6541 73.3302 29.886 72.5673 29.1386 71.7374C26.2262 68.5054 24.0561 64.5415 22.8912 60.3147C21.7263 56.0879 21.5355 51.1394 22.5046 46.691C22.984 44.4797 23.7262 42.325 24.6644 40.3869C25.6025 38.4487 26.8654 36.4436 28.1644 34.8456C30.9943 31.3662 34.4324 28.691 38.4994 26.8095C42.5768 24.9229 47.1953 24.0621 51.7572 24.2735C56.319 24.4848 60.6644 25.7889 64.551 28.026C68.4376 30.2632 71.6283 33.2889 74.0304 36.8869C74.6541 37.8199 75.2211 38.7889 75.7366 39.7889C76.252 40.7889 76.6541 41.7013 77.0407 42.7425C77.4273 43.7838 77.7623 44.8714 78.0252 45.9642C78.1644 46.526 78.283 47.0931 78.386 47.6601C78.4891 48.2271 78.5716 48.7683 78.6232 49.2271C78.7572 50.3869 78.8242 51.5518 78.8293 52.7219C78.8293 54.1291 81.0252 54.1343 81.0201 52.7219C81.0098 47.825 79.8396 42.9797 77.5974 38.6291C75.3551 34.2786 72.2623 30.7838 68.4634 27.9745C64.6438 25.1498 60.1232 23.2374 55.4324 22.4745C50.7417 21.7116 45.4737 22.0157 40.7623 23.5776C36.051 25.1394 32.1128 27.6034 28.7417 30.9487C25.3706 34.2941 22.8036 38.4126 21.2778 42.9075C19.752 47.4023 19.3036 52.6652 20.0613 57.5621C20.819 62.459 22.6489 66.7632 25.4273 70.5982C28.1953 74.423 31.8087 77.624 35.9891 79.8353C40.3242 82.1291 45.185 83.3559 50.0922 83.3972C51.7159 83.4126 53.3345 83.2786 54.9427 83.0467C55.5304 82.9642 55.85 82.2168 55.7056 81.7013C55.5304 81.0724 54.9479 80.8508 54.3603 80.9384V80.9333Z" fill="white"/>
<path d="M85.86 40.0568C88.2672 47.6702 88.1641 55.8506 85.5662 63.3455C83.3497 69.7475 79.293 75.4692 74.0043 79.7836C71.1538 82.1084 67.6847 84.1238 64.2569 85.4589C63.7053 85.6754 63.3239 86.196 63.494 86.8042C63.6383 87.33 64.2878 87.7836 64.8394 87.5671C71.6383 84.9176 77.5559 80.4537 81.9682 74.6393C86.3857 68.8197 89.0352 61.7733 89.6538 54.5053C90.0868 49.4486 89.5043 44.3042 87.9734 39.4692C87.793 38.9073 87.2105 38.5413 86.628 38.7063C86.0713 38.8609 85.6847 39.4898 85.8651 40.0517L85.86 40.0568Z" fill="white"/>
<path d="M14.1692 62.1755C13.3961 59.4796 12.7775 56.7116 12.5095 53.9178C12.2775 51.4951 12.36 49.0466 12.6538 46.6291C13.1589 42.4951 14.5146 38.1497 16.4528 34.4229C18.4424 30.5879 20.9528 27.2941 24.1125 24.3559C27.2002 21.4848 30.7878 19.1446 34.7466 17.4538C34.8806 17.3971 35.0919 17.3095 35.3239 17.2167C35.5868 17.1136 35.8497 17.0105 36.1177 16.9075C36.6332 16.7167 37.1486 16.5363 37.6692 16.3662C38.7208 16.026 39.7878 15.727 40.8651 15.4796C43.0765 14.9693 45.0765 14.7013 47.3394 14.5982C47.9167 14.5724 48.494 14.5621 49.0713 14.5569C50.4785 14.5569 50.4837 12.3611 49.0713 12.3662C44.427 12.3765 39.7723 13.191 35.4218 14.8353C31.0713 16.4796 27.262 18.7528 23.8084 21.691C20.3548 24.6291 17.5249 28.0776 15.3084 31.9384C13.0919 35.7992 11.4888 40.1961 10.7414 44.66C10.3445 47.0363 10.128 49.459 10.1847 51.8662C10.262 54.8456 10.793 57.8301 11.5095 60.7167C11.6796 61.3972 11.86 62.0776 12.0507 62.7477C12.4373 64.1033 14.5507 63.526 14.1641 62.1652L14.1692 62.1755Z" fill="white"/>
<path d="M16.6439 67.9025L18.1748 61.6809C18.3965 60.784 17.4635 60.0469 16.6439 60.4592L9.08206 64.2634C8.25216 64.6809 8.30371 65.8819 9.16453 66.2273L15.1955 68.6397C15.8037 68.8819 16.4893 68.5314 16.6439 67.8974V67.9025Z" fill="white"/>
<path d="M83.2987 34.0001L81.7317 40.3764C81.5204 41.2321 82.4121 41.9382 83.1956 41.5413L90.9431 37.6393C91.7369 37.2372 91.6853 36.0929 90.8606 35.763L84.6802 33.2888C84.0977 33.0568 83.4431 33.3918 83.2936 34.0001H83.2987Z" fill="white"/>
<path d="M37.5722 46.6961C34.5515 46.6961 32.0928 44.2373 32.0928 41.2167C32.0928 38.1961 34.5515 35.7373 37.5722 35.7373C40.5928 35.7373 43.0515 38.1961 43.0515 41.2167C43.0515 44.2373 40.5928 46.6961 37.5722 46.6961ZM37.5722 37.9332C35.7577 37.9332 34.2835 39.4074 34.2835 41.2218C34.2835 43.0363 35.7577 44.5105 37.5722 44.5105C39.3866 44.5105 40.8608 43.0363 40.8608 41.2218C40.8608 39.4074 39.3866 37.9332 37.5722 37.9332Z" fill="white"/>
<path d="M67.1493 45.9695C64.1287 45.9695 61.6699 43.5107 61.6699 40.4901C61.6699 37.4695 64.1287 35.0107 67.1493 35.0107C70.1699 35.0107 72.6287 37.4695 72.6287 40.4901C72.6287 43.5107 70.1699 45.9695 67.1493 45.9695ZM67.1493 37.2015C65.3349 37.2015 63.8606 38.6757 63.8606 40.4901C63.8606 42.3046 65.3349 43.7788 67.1493 43.7788C68.9637 43.7788 70.438 42.3046 70.438 40.4901C70.438 38.6757 68.9637 37.2015 67.1493 37.2015Z" fill="white"/>
<path d="M52.0868 50.3509C48.4116 50.3509 45.4219 47.3612 45.4219 43.6859C45.4219 40.0107 48.4116 37.021 52.0868 37.021C55.7621 37.021 58.7518 40.0107 58.7518 43.6859C58.7518 47.3612 55.7621 50.3509 52.0868 50.3509ZM52.0868 39.2117C49.6178 39.2117 47.6126 41.2169 47.6126 43.6859C47.6126 46.155 49.6178 48.1602 52.0868 48.1602C54.5559 48.1602 56.5611 46.155 56.5611 43.6859C56.5611 41.2169 54.5559 39.2117 52.0868 39.2117Z" fill="white"/>
<path d="M76.6544 56.5569H61.5874V54.3661H74.3657C73.7987 51.16 70.7781 48.7063 67.1544 48.7063C63.7369 48.7063 60.809 50.8558 60.0358 53.928L57.9121 53.3919C58.9327 49.3404 62.7317 46.5156 67.1544 46.5156C72.3915 46.5156 76.6544 50.5311 76.6544 55.4641V56.562V56.5569Z" fill="white"/>
<path d="M40.4635 56.5571H27.7109V55.4592C27.7109 50.5262 31.9738 46.5107 37.2109 46.5107C40.5048 46.5107 44.0305 48.4901 45.7883 51.32L43.9274 52.4747C42.7676 50.5984 40.0872 48.7015 37.2161 48.7015C33.5872 48.7015 30.5718 51.1551 30.0048 54.3613H40.4687V56.552L40.4635 56.5571Z" fill="white"/>
<path d="M66.0566 65.5052H36.1133V64.4073C36.1133 56.6547 42.8298 50.3506 51.0875 50.3506C59.3452 50.3506 66.0617 56.6599 66.0617 64.4073V65.5052H66.0566ZM38.3556 63.3145H63.8092C63.2112 57.2836 57.7318 52.5413 51.0824 52.5413C44.4329 52.5413 38.9535 57.2836 38.3556 63.3145Z" fill="white"/>
</g>
<defs>
<clipPath id="clip0_51_36599">
<rect width="100" height="100" fill="white"/>
</clipPath>
</defs>
</svg>
