<svg width="100" height="100" viewBox="0 0 100 100" fill="none" xmlns="http://www.w3.org/2000/svg">
<g clip-path="url(#clip0_47_33386)">
<path d="M50 100C77.6142 100 100 77.6142 100 50C100 22.3858 77.6142 0 50 0C22.3858 0 0 22.3858 0 50C0 77.6142 22.3858 100 50 100Z" fill="#3078F6"/>
<path d="M45.7165 69.0619C41.4278 69.0619 37.134 69.0619 32.8454 69.0619C29.5412 69.0619 27.5361 67.2784 27.0567 64.0155C27.0258 63.7938 26.6753 63.5361 26.4175 63.4485C22.2577 62.0515 20.4794 57.3299 22.7423 53.6082C23.6443 52.1289 24.9536 51.1546 26.5928 50.6443C26.9536 50.5309 27.0825 50.3969 27.0928 50.0206C27.1649 47.2887 29.8505 45.0361 32.5361 45.0825C36.2113 45.1495 39.8866 45.0825 43.5567 45.1134C44.1753 45.1134 44.4485 44.9536 44.3505 44.3196C44.3299 44.1804 44.3402 44.0361 44.3505 43.8918C44.4175 42.9278 44.3402 42.1856 43.2887 41.5773C41.7835 40.701 41.3299 38.7217 41.9278 37.0979C42.5361 35.4588 44.1392 34.3711 45.8454 34.4536C47.6082 34.5412 49.1289 35.7835 49.5515 37.4794C49.9794 39.201 49.268 41.0103 47.701 41.866C47.1186 42.1856 46.9536 42.5515 47.0052 43.1495C47.0567 43.7577 46.8299 44.6289 47.1495 44.9124C47.5155 45.2423 48.3454 45.0876 48.9742 45.0928C52.2216 45.1031 55.4691 45.0928 58.7165 45.0979C61.1753 45.0979 63.0773 46.3402 63.9948 48.5928C64.1856 49.0619 64.1598 49.6186 64.2938 50.1134C64.3505 50.3196 64.5361 50.5979 64.7165 50.6443C68.1495 51.5876 69.5876 54.5052 69.6082 57.0361C69.634 59.9948 67.7783 62.4794 64.8093 63.4485C64.4278 63.5722 64.3093 63.7526 64.2629 64.134C63.8969 67.1495 61.768 69.0412 58.7371 69.0464C54.3969 69.0515 50.0618 69.0464 45.7216 69.0464L45.7165 69.0619ZM45.6907 47.8144C45.6907 47.8144 45.6907 47.7887 45.6907 47.7784C41.335 47.7784 36.9742 47.7784 32.6186 47.7784C30.8866 47.7784 29.8041 48.8402 29.7938 50.5567C29.768 54.8711 29.7526 59.1856 29.7474 63.5C29.7474 65.299 30.8144 66.3763 32.6289 66.3763C41.3505 66.3866 50.0773 66.3814 58.799 66.3763C60.5155 66.3763 61.6237 65.2783 61.6237 63.5773C61.6237 59.2165 61.6031 54.8557 61.567 50.4897C61.5515 48.799 60.6185 47.835 58.9175 47.8196C54.5103 47.7887 50.1031 47.8093 45.6907 47.8093V47.8144ZM27.0155 53.5309C25.5722 53.732 24.3814 55.4433 24.4227 57.1701C24.4691 58.8711 25.7371 60.5773 27.0155 60.6701V53.5309ZM64.3557 53.4845V60.7268C65.9278 60.2474 67.0103 58.6186 66.933 56.9175C66.8608 55.299 65.7268 53.7474 64.3557 53.4845ZM46.9948 38.4897C47.0103 37.7732 46.4278 37.1598 45.7113 37.1392C44.9845 37.1237 44.3969 37.6856 44.3763 38.4227C44.3557 39.1598 44.9124 39.7474 45.6495 39.768C46.366 39.7887 46.9794 39.201 46.9948 38.4845V38.4897Z" fill="white"/>
<path d="M75.6494 55.8867C75.603 70.6496 64.4947 83.3867 49.8659 85.3816C34.0772 87.5362 19.5721 77.2836 16.3556 61.6909C12.6649 43.8094 26.0102 26.6702 44.2525 25.8558C45.304 25.8094 45.9484 26.2579 46.0051 27.0775C46.0618 27.9331 45.4793 28.4177 44.3762 28.5362C42.871 28.696 41.3504 28.8094 39.871 29.129C29.1391 31.4177 20.8401 40.0672 18.8556 50.9641C16.902 61.6857 21.6803 72.696 30.8504 78.6187C48.0875 89.7476 70.8813 78.6702 72.8246 58.2218C73.1648 54.6548 72.737 51.1651 71.6648 47.7579C71.2319 46.3867 70.6597 45.0517 70.103 43.7218C69.7164 42.794 69.8607 42.0723 70.603 41.7012C71.3298 41.33 72.0669 41.6342 72.5051 42.5259C73.9947 45.5723 75.0154 48.7579 75.3556 52.1445C75.4793 53.3919 75.5514 54.6445 75.6494 55.8919V55.8867Z" fill="white"/>
<path d="M61.6287 35.8092C59.7834 35.8092 58.0565 35.8298 56.3297 35.8092C53.2782 35.7628 50.7266 33.8401 49.938 30.9844C49.773 30.3762 49.6906 29.7267 49.6854 29.0927C49.6596 26.4638 49.6596 23.8298 49.6751 21.1958C49.6957 17.4329 52.6029 14.5257 56.3658 14.5205C63.4071 14.505 70.4431 14.5102 77.4844 14.5205C81.2576 14.5257 84.1545 17.3659 84.2215 21.1545C84.2679 23.8349 84.273 26.5153 84.2215 29.1906C84.1493 32.9896 81.273 35.7834 77.4638 35.8143C75.2834 35.8298 73.1029 35.8298 70.9225 35.8092C70.3864 35.804 69.9947 35.9432 69.6133 36.3349C67.8246 38.1648 65.9947 39.9586 64.2009 41.7834C63.7009 42.2885 63.1751 42.6648 62.4431 42.3504C61.7215 42.036 61.6132 41.3968 61.6184 40.6906C61.6339 39.1081 61.6236 37.5257 61.6236 35.8195L61.6287 35.8092ZM64.2988 37.6648C64.3607 37.6803 64.4225 37.6958 64.4844 37.7112C65.737 36.4535 67.0102 35.2164 68.237 33.9329C68.7885 33.3607 69.3813 33.1081 70.1854 33.1184C72.5772 33.1545 74.9741 33.1391 77.371 33.1287C79.8761 33.1184 81.5617 31.4329 81.572 28.9277C81.5823 26.4123 81.5823 23.9019 81.572 21.3865C81.5617 18.8762 79.8864 17.1855 77.3761 17.1803C70.4277 17.17 63.4844 17.17 56.5359 17.1803C54.0256 17.1803 52.3452 18.871 52.3297 21.3813C52.3143 23.8968 52.3143 26.4071 52.3297 28.9226C52.3452 31.4329 54.0308 33.1133 56.5359 33.1236C58.5514 33.1339 60.5669 33.1236 62.5823 33.1236C63.8504 33.1236 64.2988 33.5721 64.304 34.8349C64.304 35.7731 64.304 36.7164 64.304 37.6545L64.2988 37.6648Z" fill="white"/>
<path d="M49.6803 55.7167C49.6957 53.4487 51.4483 51.7322 53.7267 51.7631C55.9174 51.7889 57.67 53.593 57.6442 55.794C57.6184 57.9899 55.8195 59.758 53.6184 59.7373C51.4174 59.7219 49.6648 57.9281 49.6803 55.7167ZM54.9689 55.7889C54.9844 55.0724 54.4225 54.4693 53.7061 54.4384C52.9999 54.4074 52.3658 54.9796 52.3298 55.6806C52.2885 56.4177 52.8916 57.0569 53.6339 57.0621C54.3607 57.0724 54.9483 56.5054 54.9689 55.7889Z" fill="white"/>
<path d="M37.6494 59.7375C35.4174 59.7014 33.6803 57.8818 33.7318 55.6395C33.7834 53.4436 35.6133 51.6653 37.7679 51.7272C40.0205 51.789 41.7421 53.588 41.6957 55.8251C41.6494 58.021 39.8401 59.7735 37.6494 59.7375ZM39.0256 55.7735C39.036 55.0622 38.4586 54.4591 37.7473 54.4385C37.0411 54.4179 36.4174 54.9952 36.3865 55.7014C36.3555 56.4385 36.9638 57.0674 37.7061 57.0674C38.4277 57.0674 39.0153 56.4952 39.0256 55.7787V55.7735Z" fill="white"/>
<path d="M66.9432 29.1437C63.505 29.1437 60.0669 29.1644 56.6339 29.118C56.17 29.1128 55.5824 28.8963 55.2731 28.5664C54.6391 27.9015 55.0669 26.7726 55.969 26.5458C56.2628 26.4736 56.5772 26.4736 56.8865 26.4736C63.6184 26.4736 70.3504 26.4736 77.0824 26.4736C77.3401 26.4736 77.6081 26.4736 77.8607 26.5303C78.5205 26.6644 78.9174 27.2004 78.8968 27.8654C78.8762 28.4839 78.4535 28.9943 77.8246 29.1077C77.5721 29.154 77.304 29.1386 77.0463 29.1386C73.6803 29.1386 70.3143 29.1386 66.9483 29.1386L66.9432 29.1437Z" fill="white"/>
<path d="M68.9021 23.8242C66.201 23.8242 63.4948 23.8242 60.7938 23.8242C60.5567 23.8242 60.3144 23.8293 60.0825 23.7933C59.4227 23.685 58.9742 23.1592 58.9639 22.5149C58.9588 21.8448 59.4278 21.2881 60.1134 21.1902C60.3454 21.1592 60.5876 21.1644 60.8247 21.1644C66.2526 21.1644 71.6804 21.1644 77.1082 21.1644C77.2732 21.1644 77.4433 21.1644 77.6082 21.1747C78.3866 21.2417 78.8969 21.7778 78.8917 22.5149C78.8917 23.2469 78.3711 23.7881 77.5773 23.8139C76.5361 23.8448 75.4897 23.8242 74.4484 23.8293C72.5979 23.8293 70.7526 23.8293 68.9021 23.8293V23.8242Z" fill="white"/>
<path d="M56.3505 23.814C55.6185 23.8294 55.0206 23.2779 54.9897 22.5511C54.9587 21.7985 55.5567 21.1748 56.3144 21.1748C57.0412 21.1748 57.6237 21.747 57.6392 22.4789C57.6546 23.2109 57.0876 23.7985 56.3557 23.814H56.3505Z" fill="white"/>
</g>
<defs>
<clipPath id="clip0_47_33386">
<rect width="100" height="100" fill="white"/>
</clipPath>
</defs>
</svg>
