<svg width="100" height="100" viewBox="0 0 100 100" fill="none" xmlns="http://www.w3.org/2000/svg">
<g clip-path="url(#clip0_47_33406)">
<path d="M50 100C77.6142 100 100 77.6142 100 50C100 22.3858 77.6142 0 50 0C22.3858 0 0 22.3858 0 50C0 77.6142 22.3858 100 50 100Z" fill="#3078F6"/>
<path d="M54.3608 80.9328C49.3917 81.6441 44.4587 81.0307 39.8041 79.1957C38.8814 78.8297 37.8556 78.3503 36.8865 77.8297C35.9175 77.3091 34.9432 76.7111 34.0206 76.0668C33.0979 75.4225 32.3762 74.8555 31.5154 74.0926C30.6546 73.3297 29.8865 72.5668 29.1391 71.7369C26.2267 68.5049 24.0566 64.541 22.8917 60.3142C21.7267 56.0874 21.536 51.139 22.5051 46.6905C22.9845 44.4792 23.7267 42.3245 24.6649 40.3864C25.603 38.4482 26.8659 36.4431 28.1649 34.8451C30.9948 31.3658 34.4329 28.6905 38.4999 26.8091C42.5773 24.9225 47.1958 24.0616 51.7577 24.273C56.3195 24.4843 60.6649 25.7884 64.5515 28.0256C68.4381 30.2627 71.6288 33.2884 74.0309 36.8864C74.6546 37.8194 75.2216 38.7884 75.737 39.7884C76.2525 40.7884 76.6546 41.7008 77.0412 42.742C77.4278 43.7833 77.7628 44.8709 78.0257 45.9637C78.1649 46.5256 78.2834 47.0926 78.3865 47.6596C78.4896 48.2266 78.5721 48.7678 78.6236 49.2266C78.7577 50.3864 78.8247 51.5513 78.8298 52.7214C78.8298 54.1286 81.0257 54.1338 81.0205 52.7214C81.0102 47.8245 79.8401 42.9792 77.5979 38.6286C75.3556 34.2781 72.2628 30.7833 68.4639 27.974C64.6443 25.1493 60.1236 23.2369 55.4329 22.474C50.7422 21.7111 45.4742 22.0152 40.7628 23.5771C36.0515 25.139 32.1133 27.6029 28.7422 30.9482C25.3711 34.2936 22.8041 38.4122 21.2783 42.907C19.7525 47.4018 19.3041 52.6647 20.0618 57.5616C20.8195 62.4585 22.6494 66.7627 25.4278 70.5977C28.1958 74.4225 31.8092 77.6235 35.9896 79.8348C40.3247 82.1287 45.1855 83.3554 50.0927 83.3967C51.7164 83.4122 53.335 83.2781 54.9432 83.0462C55.5309 82.9637 55.8504 82.2163 55.7061 81.7008C55.5309 81.0719 54.9484 80.8503 54.3608 80.9379V80.9328Z" fill="white"/>
<path d="M85.861 40.0573C88.2682 47.6707 88.1651 55.8511 85.5671 63.346C83.3506 69.748 79.2939 75.4697 74.0053 79.7841C71.1548 82.1088 67.6857 84.1243 64.2579 85.4594C63.7063 85.6759 63.3249 86.1965 63.495 86.8047C63.6393 87.3305 64.2888 87.7841 64.8403 87.5676C71.6393 84.9181 77.5568 80.4542 81.9692 74.6398C86.3867 68.8202 89.0362 61.7738 89.6548 54.5058C90.0877 49.4491 89.5053 44.3047 87.9743 39.4697C87.7939 38.9078 87.2115 38.5418 86.629 38.7068C86.0723 38.8614 85.6857 39.4903 85.8661 40.0521L85.861 40.0573Z" fill="white"/>
<path d="M14.1702 62.1755C13.397 59.4796 12.7785 56.7116 12.5104 53.9178C12.2785 51.4951 12.3609 49.0466 12.6548 46.6291C13.1599 42.4951 14.5156 38.1497 16.4537 34.4229C18.4434 30.5879 20.9537 27.2941 24.1135 24.3559C27.2012 21.4848 30.7888 19.1446 34.7475 17.4538C34.8816 17.3971 35.0929 17.3095 35.3249 17.2167C35.5877 17.1136 35.8506 17.0105 36.1187 16.9075C36.6341 16.7167 37.1496 16.5363 37.6702 16.3662C38.7218 16.026 39.7888 15.727 40.8661 15.4796C43.0774 14.9693 45.0774 14.7013 47.3403 14.5982C47.9176 14.5724 48.495 14.5621 49.0723 14.5569C50.4795 14.5569 50.4847 12.3611 49.0723 12.3662C44.428 12.3765 39.7733 13.191 35.4228 14.8353C31.0723 16.4796 27.263 18.7528 23.8094 21.691C20.3558 24.6291 17.5259 28.0776 15.3094 31.9384C13.0929 35.7992 11.4898 40.1961 10.7424 44.66C10.3455 47.0363 10.129 49.459 10.1857 51.8662C10.263 54.8456 10.7939 57.8301 11.5104 60.7167C11.6805 61.3972 11.8609 62.0776 12.0517 62.7477C12.4383 64.1033 14.5517 63.526 14.1651 62.1652L14.1702 62.1755Z" fill="white"/>
<path d="M16.6444 67.9025L18.1753 61.6809C18.397 60.784 17.464 60.0469 16.6444 60.4592L9.08255 64.2634C8.25265 64.6809 8.3042 65.8819 9.16502 66.2273L15.1959 68.6397C15.8042 68.8819 16.4898 68.5314 16.6444 67.8974V67.9025Z" fill="white"/>
<path d="M83.2992 34.0001L81.7322 40.3764C81.5209 41.2321 82.4126 41.9382 83.1961 41.5413L90.9435 37.6393C91.7374 37.2372 91.6858 36.0929 90.8611 35.763L84.6807 33.2888C84.0982 33.0568 83.4435 33.3918 83.2941 34.0001H83.2992Z" fill="white"/>
<path d="M37.5722 46.6961C34.5515 46.6961 32.0928 44.2373 32.0928 41.2167C32.0928 38.1961 34.5515 35.7373 37.5722 35.7373C40.5928 35.7373 43.0515 38.1961 43.0515 41.2167C43.0515 44.2373 40.5928 46.6961 37.5722 46.6961ZM37.5722 37.9332C35.7577 37.9332 34.2835 39.4074 34.2835 41.2218C34.2835 43.0363 35.7577 44.5105 37.5722 44.5105C39.3866 44.5105 40.8608 43.0363 40.8608 41.2218C40.8608 39.4074 39.3866 37.9332 37.5722 37.9332Z" fill="white"/>
<path d="M67.1498 45.9695C64.1292 45.9695 61.6704 43.5107 61.6704 40.4901C61.6704 37.4695 64.1292 35.0107 67.1498 35.0107C70.1704 35.0107 72.6292 37.4695 72.6292 40.4901C72.6292 43.5107 70.1704 45.9695 67.1498 45.9695ZM67.1498 37.2015C65.3354 37.2015 63.8611 38.6757 63.8611 40.4901C63.8611 42.3046 65.3354 43.7788 67.1498 43.7788C68.9642 43.7788 70.4384 42.3046 70.4384 40.4901C70.4384 38.6757 68.9642 37.2015 67.1498 37.2015Z" fill="white"/>
<path d="M52.0878 50.3504C48.4125 50.3504 45.4229 47.3607 45.4229 43.6855C45.4229 40.0102 48.4125 37.0205 52.0878 37.0205C55.7631 37.0205 58.7527 40.0102 58.7527 43.6855C58.7527 47.3607 55.7631 50.3504 52.0878 50.3504ZM52.0878 39.2112C49.6187 39.2112 47.6136 41.2164 47.6136 43.6855C47.6136 46.1545 49.6187 48.1597 52.0878 48.1597C54.5569 48.1597 56.562 46.1545 56.562 43.6855C56.562 41.2164 54.5569 39.2112 52.0878 39.2112Z" fill="white"/>
<path d="M76.6549 56.5569H61.5879V54.3661H74.3662C73.7992 51.16 70.7786 48.7063 67.1549 48.7063C63.7373 48.7063 60.8095 50.8558 60.0363 53.928L57.9126 53.3919C58.9332 49.3404 62.7322 46.5156 67.1549 46.5156C72.392 46.5156 76.6549 50.5311 76.6549 55.4641V56.562V56.5569Z" fill="white"/>
<path d="M40.464 56.5571H27.7114V55.4592C27.7114 50.5262 31.9743 46.5107 37.2114 46.5107C40.5052 46.5107 44.031 48.4901 45.7887 51.32L43.9279 52.4747C42.7681 50.5984 40.0877 48.7015 37.2166 48.7015C33.5877 48.7015 30.5723 51.1551 30.0052 54.3613H40.4692V56.552L40.464 56.5571Z" fill="white"/>
<path d="M66.0566 65.5052H36.1133V64.4073C36.1133 56.6547 42.8298 50.3506 51.0875 50.3506C59.3452 50.3506 66.0617 56.6599 66.0617 64.4073V65.5052H66.0566ZM38.3556 63.3145H63.8092C63.2112 57.2836 57.7318 52.5413 51.0824 52.5413C44.4329 52.5413 38.9535 57.2836 38.3556 63.3145Z" fill="white"/>
</g>
<defs>
<clipPath id="clip0_47_33406">
<rect width="100" height="100" fill="white"/>
</clipPath>
</defs>
</svg>
