<svg width="100" height="100" viewBox="0 0 100 100" fill="none" xmlns="http://www.w3.org/2000/svg">
<g clip-path="url(#clip0_48_33690)">
<path d="M50 100C77.6142 100 100 77.6142 100 50C100 22.3858 77.6142 0 50 0C22.3858 0 0 22.3858 0 50C0 77.6142 22.3858 100 50 100Z" fill="#3078F6"/>
<path d="M45.7062 40.6751H44.1031V31.3709H34.6753L51.0155 10.3091L66.598 31.3709H56.6186V36.6699H55.0103V29.7678H63.4176L50.9846 12.9637L37.9485 29.7678H45.7062V40.6751Z" fill="white"/>
<path d="M56.6185 79.8245H44.103V63.8555H45.7061V78.2163H55.0102V68.6802H56.6185V79.8245Z" fill="white"/>
<path d="M34.799 79.8248H21.9639V48.0567H14.0876L28.8918 30.2217L40.7784 48.0567H34.8041V79.8248H34.799ZM23.567 78.2165H33.1907V46.4485H37.7732L28.7423 32.8969L17.4949 46.4485H23.5619V78.2165H23.567Z" fill="white"/>
<path d="M55.4948 68.9124C46.3814 68.9124 38.969 61.5 38.969 52.3866C38.969 43.2732 46.3814 35.8608 55.4948 35.8608C64.6082 35.8608 72.0205 43.2732 72.0205 52.3866C72.0205 61.5 64.6082 68.9124 55.4948 68.9124ZM55.4948 37.4691C47.268 37.4691 40.5721 44.1598 40.5721 52.3918C40.5721 60.6237 47.2628 67.3144 55.4948 67.3144C63.7267 67.3144 70.4174 60.6237 70.4174 52.3918C70.4174 44.1598 63.7267 37.4691 55.4948 37.4691Z" fill="white"/>
<path d="M55.6547 63.4583C49.1959 63.4583 43.9434 58.2057 43.9434 51.747C43.9434 45.2882 49.1959 40.0356 55.6547 40.0356C62.1135 40.0356 67.366 45.2882 67.366 51.747C67.366 58.2057 62.1135 63.4583 55.6547 63.4583ZM55.6547 41.6387C50.0825 41.6387 45.5465 46.1748 45.5465 51.747C45.5465 57.3192 50.0825 61.8552 55.6547 61.8552C61.2269 61.8552 65.7629 57.3192 65.7629 51.747C65.7629 46.1748 61.2269 41.6387 55.6547 41.6387Z" fill="white"/>
<path d="M54.8505 58.4638V57.7318C54.8505 57.4432 54.6289 57.2112 54.3402 57.1803C53.6804 57.1081 53.0361 56.9277 52.5361 56.6803C52.2835 56.5566 52.165 56.2576 52.2577 55.9947L52.3093 55.8504C52.4175 55.5411 52.7732 55.3865 53.067 55.5256C53.6495 55.804 54.3608 55.9947 55.1186 55.9947C56.3918 55.9947 57.2526 55.2576 57.2526 54.237C57.2526 53.2164 56.5516 52.639 55.2268 52.103C53.3969 51.3865 52.2681 50.5617 52.2681 48.9999C52.2681 47.639 53.1495 46.5823 54.5567 46.2009C54.8041 46.1339 54.9794 45.9174 54.9794 45.6648V44.8555C54.9794 44.5462 55.2268 44.2988 55.5361 44.2988C55.8454 44.2988 56.0928 44.5462 56.0928 44.8555V45.5256C56.0928 45.8143 56.3093 46.0462 56.5979 46.0772C57.1443 46.139 57.5928 46.2731 57.9588 46.4277C58.232 46.5462 58.3557 46.8555 58.2526 47.1339L58.201 47.2731C58.0876 47.5669 57.7577 47.7164 57.4691 47.5926C57.0567 47.4122 56.4794 47.2421 55.7217 47.2421C54.3402 47.2421 53.8196 48.0669 53.8196 48.7834C53.8196 49.7164 54.4845 50.1854 56.0464 50.8298C57.8969 51.5823 58.8299 52.5153 58.8299 54.1133C58.8299 55.4225 57.9897 56.6493 56.4124 57.072C56.1701 57.139 55.9949 57.3555 55.9949 57.6081V58.4689C55.9949 58.7782 55.7474 59.0256 55.4382 59.0256H55.4227C55.1134 59.0256 54.866 58.7782 54.866 58.4689L54.8505 58.4638Z" fill="white"/>
<path d="M71.4746 33.0857L68.5864 38.5381L70.0031 39.2885L72.8912 33.836L71.4746 33.0857Z" fill="white"/>
<path d="M76.0288 39.1412L71.8579 40.9634L72.4997 42.4324L76.6706 40.6102L76.0288 39.1412Z" fill="white"/>
<path d="M78.9587 45.1699H73.1392V46.773H78.9587V45.1699Z" fill="white"/>
<path d="M83.0361 83.5052C82.268 83.5052 81.5412 83.2062 81 82.6598L65.7732 67.433C64.6495 66.3093 64.6495 64.4846 65.7732 63.3608C66.8969 62.2371 68.7217 62.2371 69.8454 63.3608L85.0722 78.5877C86.1959 79.7114 86.1959 81.5361 85.0722 82.6598C84.5258 83.2062 83.8041 83.5052 83.0361 83.5052ZM67.8093 64.1237C67.4845 64.1237 67.1546 64.2475 66.9072 64.4949C66.4124 64.9897 66.4124 65.799 66.9072 66.299L82.134 81.5258C82.6134 82.0052 83.4536 82.0052 83.9381 81.5258C84.1804 81.2835 84.3093 80.9639 84.3093 80.6237C84.3093 80.2835 84.1753 79.9639 83.9381 79.7217L68.7113 64.4949C68.4639 64.2475 68.134 64.1237 67.8093 64.1237Z" fill="white"/>
</g>
<defs>
<clipPath id="clip0_48_33690">
<rect width="100" height="100" fill="white"/>
</clipPath>
</defs>
</svg>
