<svg width="100" height="100" viewBox="0 0 100 100" fill="none" xmlns="http://www.w3.org/2000/svg">
<g clip-path="url(#clip0_47_33307)">
<path d="M50 100C77.6142 100 100 77.6142 100 50C100 22.3858 77.6142 0 50 0C22.3858 0 0 22.3858 0 50C0 77.6142 22.3858 100 50 100Z" fill="#3078F6"/>
<path d="M55.8866 51.0202C57.9639 50.9687 59.6444 52.7161 59.5825 54.7934C59.5155 57.0924 59.3454 60.2264 59.2938 61.3914C59.2732 61.9017 59.2268 62.4068 59.2165 62.9171C59.1495 66.5357 59.9743 67.8914 62.8815 68.9429C65.3196 69.8295 68.3763 68.8862 70.1495 66.7213C71.9382 64.5409 72.7732 61.9481 73.2887 59.247C74.1753 54.6233 74.5516 49.9481 74.5103 45.2367C74.5103 44.8244 74.6804 44.2573 74.9743 44.0409C75.2062 43.8707 75.799 44.0408 76.1547 44.2161C77.067 44.6646 75.2475 60.113 74.6289 62.6182C73.7681 66.1027 70.6959 69.6543 67.5567 71.4584C65.8402 72.4481 63.567 79.8089 64.9021 82.3604C65.7114 83.9017 66.098 84.68 66.964 86.1903C67.1237 86.4738 67.2423 89.3501 64.9021 89.4326C59.8145 89.613 57.3145 90.2058 52.232 90.0202C47.7114 89.8553 44.2732 89.7264 39.6547 87.6955C39.0155 87.2831 38.9021 86.8347 39.0825 86.1336C39.3299 85.1749 39.6083 84.1903 39.6444 83.211C39.7011 81.5975 38.4588 80.2316 36.8505 80.1388C35.6289 80.0666 34.3969 80.2213 33.1804 80.1027C31.9279 79.9841 30.6237 79.8398 29.4588 79.4017C27.0206 78.4841 26.1701 76.046 27.2062 73.68C27.3918 73.247 27.4072 72.5769 27.2011 72.1697C26.5928 70.9841 26.4846 69.8244 26.9124 68.5821C26.9588 68.4429 26.9897 68.2986 27.0206 68.1594C27.4743 66.0202 27.4072 65.8965 25.3402 65.1439C24.8969 64.9841 24.4485 64.8295 24.0103 64.6491C21.9485 63.7831 21.5103 62.1388 22.9072 60.3811C23.8093 59.2419 24.7887 58.1594 25.7217 57.046C26 56.711 26.2423 56.345 26.5 55.9945C27.6547 54.4378 27.9021 52.8501 27.3557 50.8862C26.3145 47.1285 26.9279 43.4532 28.7268 39.9945C29.232 39.0305 30.1495 38.5872 31.0052 39.0563C33.665 40.5099 36.567 40.3553 39.4176 40.4378C42.9072 40.546 45.8557 41.6852 47.4639 44.9068C48.3248 46.6233 48.8609 48.5924 49.1237 50.5048C49.4949 53.2006 49.4639 55.9481 49.6444 58.6697C49.6804 59.2213 49.8918 59.7625 50.0258 60.3089C50.1495 60.314 50.2732 60.3244 50.4021 60.3295C50.5258 59.7986 50.7062 59.2728 50.7578 58.7367C50.8505 57.8192 51.4227 55.8192 51.9072 54.113C52.4072 52.3501 53.9794 51.0872 55.8093 51.0254C55.8402 51.0254 55.8712 51.0254 55.9021 51.0254L55.8866 51.0202ZM54.2474 88.8501C57.4897 88.9841 60.6186 88.3037 63.7371 87.5409C65.0516 87.2213 65.2681 86.6543 64.531 85.4893C62.9279 82.9635 62.1031 80.2367 62.7268 77.278C63.0825 75.5872 63.7578 73.9481 64.4227 72.345C64.8042 71.4326 64.6753 71.2264 63.6959 71.0254C59.598 70.1749 57.3042 67.912 57.4176 63.7934C57.4639 62.0821 57.6237 60.3759 57.6495 58.6697C57.6701 57.479 57.6804 56.2573 57.4639 55.0924C57.2165 53.7419 55.9691 52.9893 54.5928 53.1182C53.4897 53.2213 52.8866 53.979 52.7732 55.4532C52.7114 56.2522 52.7526 57.0615 52.6547 57.8501C52.531 58.8553 52.3815 59.8707 52.1134 60.845C51.8454 61.8192 51.2217 62.5563 50.1083 62.5409C49.067 62.5254 48.5361 61.7728 48.3196 60.8914C48.0052 59.5924 47.7217 58.2677 47.6134 56.9326C47.4124 54.5048 47.433 52.0563 47.2062 49.6336C47.0258 47.7264 46.3196 45.9738 45.0103 44.4996C43.1495 42.4068 40.6907 42.1336 38.1237 42.1697C35.8299 42.2006 33.5052 42.2625 31.3866 41.2213C30.5464 40.8089 30.2217 41.0151 29.9072 41.7625C28.598 44.8553 28.3093 48.0202 29.2629 51.2573C29.7062 52.7677 29.7268 54.2213 28.7938 55.546C27.4949 57.3811 26.1907 59.2213 24.799 60.9841C23.7268 62.345 23.7217 62.5615 25.3093 63.1697C26.0206 63.4429 26.7526 63.6852 27.4382 64.0099C28.7578 64.6388 29.2114 65.4687 29.0361 66.9017C28.9433 67.6594 28.665 68.4017 28.6392 69.1543C28.6134 69.912 28.6598 70.7367 28.933 71.4275C29.3402 72.4429 29.4588 73.3347 28.9536 74.3501C28.2371 75.7831 28.7011 77.18 30.1959 77.747C31.1547 78.113 32.2423 78.2161 33.2784 78.2934C34.6907 78.3965 36.1237 78.247 37.5258 78.4017C39.866 78.6594 41.3145 80.2934 41.4124 82.6491C41.4485 83.479 41.4485 84.3604 41.2062 85.1388C40.8763 86.2161 41.366 86.5512 42.232 86.8656C46.1134 88.2831 50.1598 88.6749 54.2423 88.845L54.2474 88.8501Z" fill="white"/>
<path d="M59.4846 52.819C58.7939 52.819 57.1496 52.7416 52.9382 52.4375L52.7887 52.4117C51.4485 52.0767 51.232 51.7159 51.1289 51.5458L51.0568 51.4272C50.8351 51.0664 50.7475 50.7829 50.9279 50.2983C50.9949 50.1231 51.0052 49.9581 50.9588 49.8757C50.8197 49.6179 50.7372 49.3293 50.7217 49.02C50.7063 48.6695 50.8094 48.3293 51.031 48.0355C51.0259 48.0355 51.0258 47.9994 50.9898 47.9375C50.8764 47.7416 50.799 47.52 50.763 47.2829C50.696 46.8241 50.8042 46.3963 51.0774 46.0458C51.5671 45.4169 52.397 45.2983 52.5568 45.2829L52.8351 45.252L53.0774 45.386C54.6805 46.2726 58.232 45.8087 59.4949 45.5458C59.763 45.4788 60.7784 45.2674 61.4846 45.7932C61.8609 46.0715 62.0722 46.5045 62.0826 47.0097C62.0929 47.3963 61.9846 47.7468 61.7681 48.0355C61.9279 48.2623 62.031 48.5148 62.0671 48.7829C62.1186 49.1746 62.0207 49.5561 61.7836 49.8757C61.9846 50.2004 62.0362 50.6025 61.9124 51.0097C61.6908 51.7571 60.9331 52.4581 60.0362 52.7623C59.964 52.788 59.8815 52.8138 59.4846 52.8138V52.819ZM53.1444 50.6798C55.9073 50.8808 58.9434 51.0664 59.5619 51.0612C59.8506 50.9427 60.0568 50.752 60.1547 50.6179C59.9021 50.1179 59.9331 49.5045 60.2527 48.9942C60.0207 48.7262 59.9021 48.4014 59.9021 48.0561C59.9021 47.7674 59.9898 47.4788 60.1547 47.2313C60.0722 47.2416 59.9846 47.252 59.9279 47.2674L59.8764 47.2777C59.3764 47.3808 55.0877 48.2262 52.5568 47.1025C52.8867 47.7365 52.8661 48.4633 52.5052 49.0097C52.5052 49.02 52.5104 49.0251 52.5155 49.0303C52.7578 49.4736 52.8197 49.9942 52.7011 50.5355C52.83 50.5818 52.9949 50.6334 53.1547 50.6746L53.1444 50.6798Z" fill="white"/>
<path d="M53.2319 30.8296L52.6443 32.0409C52.5773 32.1801 52.3917 32.2729 52.1752 32.2729C51.8402 32.2729 51.6031 32.0461 51.7113 31.8296L54.0309 27.1956C54.0979 27.0615 54.2886 26.9688 54.4948 26.9688H55.0051C55.2165 26.9688 55.402 27.0615 55.469 27.1956L57.7989 31.8296C57.9072 32.0461 57.6701 32.2729 57.335 32.2729H57.2989C57.0876 32.2729 56.902 32.1801 56.835 32.0461L56.2268 30.8296C56.1598 30.6956 55.969 30.6028 55.7629 30.6028H53.701C53.4897 30.6028 53.2989 30.6956 53.2319 30.8347V30.8296ZM55.2216 30.0667C55.5567 30.0667 55.7938 29.8399 55.6855 29.6234L55.1443 28.5409C54.969 28.1956 54.8556 27.8811 54.7371 27.5718H54.7113C54.5927 27.8863 54.469 28.211 54.3195 28.5306L53.7732 29.6234C53.6649 29.8399 53.902 30.0667 54.2371 30.0667H55.2165H55.2216Z" fill="white"/>
<path d="M57.3402 32.4173H57.3041C57.0361 32.4173 56.7989 32.2987 56.7062 32.108L56.0979 30.8915C56.0618 30.8193 55.9381 30.7472 55.7629 30.7472H53.701C53.5257 30.7472 53.402 30.8193 53.3659 30.8915L52.7783 32.1028C52.6855 32.2936 52.4484 32.4173 52.1804 32.4173C51.9278 32.4173 51.7062 32.3142 51.6031 32.1441C51.5309 32.0255 51.5257 31.8863 51.5824 31.7626L53.902 27.1286C53.9948 26.943 54.2319 26.8193 54.5 26.8193H55.0103C55.2783 26.8193 55.5154 26.9379 55.6082 27.1286L57.9381 31.7626C58 31.8863 57.9948 32.0255 57.9227 32.1441C57.8196 32.3142 57.5979 32.4224 57.3402 32.4224V32.4173ZM53.701 30.4534H55.7629C56.0309 30.4534 56.268 30.5719 56.3608 30.7626L56.969 31.9791C57.0051 32.0513 57.134 32.1235 57.3041 32.1235H57.3402C57.5103 32.1235 57.6288 32.0565 57.6701 31.9894C57.6907 31.9585 57.6907 31.9276 57.6752 31.8967L55.3453 27.2626C55.3093 27.1905 55.1804 27.1183 55.0103 27.1183H54.5C54.3299 27.1183 54.201 27.1905 54.1649 27.2626L51.8453 31.8967C51.8299 31.9276 51.8299 31.9585 51.8505 31.9894C51.8917 32.0565 52.0103 32.1235 52.1804 32.1235C52.3505 32.1235 52.4794 32.0513 52.5154 31.9791L53.1031 30.7678C53.1958 30.5771 53.433 30.4534 53.701 30.4534ZM55.2216 30.2111H54.2422C53.9897 30.2111 53.768 30.108 53.6649 29.9379C53.5928 29.8193 53.5876 29.6802 53.6443 29.5564L54.1907 28.4637C54.3196 28.1905 54.4433 27.8863 54.5773 27.5204L54.6134 27.4224H54.8196L54.8814 27.5152L54.9072 27.5874C55.0103 27.8657 55.1237 28.1544 55.2783 28.4688L55.8196 29.5564C55.8814 29.6802 55.8763 29.8193 55.7989 29.9379C55.6958 30.108 55.4742 30.2111 55.2216 30.2111ZM54.7268 27.9534C54.634 28.1853 54.5464 28.3967 54.4536 28.5925L53.9072 29.6905C53.8917 29.7214 53.8917 29.7523 53.9123 29.7833C53.9536 29.8503 54.0721 29.9173 54.2422 29.9173H55.2216C55.3917 29.9173 55.5103 29.8503 55.5515 29.7833C55.5721 29.7523 55.5721 29.7214 55.5567 29.6905L55.0154 28.608C54.902 28.3812 54.8092 28.1647 54.7319 27.9585L54.7268 27.9534Z" fill="white"/>
<path d="M60.1908 27.2989V31.9329C60.1908 32.1185 59.9691 32.268 59.6959 32.268H59.6701C59.3969 32.268 59.1753 32.1185 59.1753 31.9329V27.2989C59.1753 27.1134 59.3969 26.9639 59.6701 26.9639H59.6959C59.9691 26.9639 60.1908 27.1134 60.1908 27.2989Z" fill="white"/>
<path d="M59.696 32.417C59.3145 32.417 59.031 32.2057 59.031 31.9376V27.3036C59.031 27.0356 59.3094 26.8242 59.6702 26.8242C60.0516 26.8242 60.3351 27.0356 60.3351 27.3036V31.9376C60.3351 32.2057 60.0568 32.417 59.696 32.417ZM59.696 27.1129C59.4743 27.1129 59.3248 27.2108 59.3248 27.2984V31.9325C59.3248 32.0201 59.4743 32.118 59.6702 32.118C59.8918 32.118 60.0413 32.0201 60.0413 31.9325V27.2984C60.0413 27.2108 59.8918 27.1129 59.696 27.1129Z" fill="white"/>
<path d="M57 46.8453C54.1082 46.8453 51.3299 45.8814 50.6082 45.5309C49.8041 45.1392 49.6598 44.0051 49.4381 42.2835C49.2165 40.5618 48.9433 38.4123 47.9484 37.4175C45.5773 35.0464 44.5206 32.0928 44.6185 28.1185C44.7165 24.0773 47.9381 17.6855 56.134 17.6855C56.1598 17.6855 56.1855 17.6855 56.2113 17.6855C61.3711 17.7113 65.3763 20.0206 67.201 24.0258C69.2474 28.5258 68.1237 34.2732 64.335 38.6649C62.134 41.2165 62.5824 44.4072 62.5876 44.4433L62.6443 44.8299L62.3556 45.0979C60.9072 46.4175 58.933 46.8453 57.0051 46.8453H57ZM51.3092 44.2319C52.3247 44.6855 58.0824 46.5361 61.0824 44.2371C61.0103 43.1495 61.0515 40.2113 63.2165 37.701C66.6288 33.7422 67.6701 28.6134 65.8556 24.634C64.2783 21.1752 60.7629 19.1752 56.201 19.1546C56.1804 19.1546 56.1546 19.1546 56.134 19.1546C48.9794 19.1546 46.1752 24.6649 46.0876 28.1546C46 31.7474 46.8917 34.2835 48.9845 36.3763C50.3402 37.7268 50.6495 40.1495 50.8969 42.0979C50.9948 42.8866 51.134 43.9484 51.3092 44.2371V44.2319Z" fill="white"/>
<path d="M35.6753 26.804C37.3557 26.9174 39.0362 27.0256 40.7217 27.139L41.4485 27.1854C41.9124 27.2163 42.3506 26.7576 42.3351 26.2988C42.3145 25.7937 41.9485 25.4483 41.4485 25.4122C39.7681 25.2988 38.0877 25.1906 36.4021 25.0772L35.6753 25.0308C35.2114 24.9998 34.7733 25.4586 34.7887 25.9174C34.8093 26.4225 35.1753 26.7679 35.6753 26.804Z" fill="white"/>
<path d="M39.1599 17.1493C40.4434 18.2009 41.7269 19.2524 43.0104 20.304C43.196 20.4535 43.3815 20.6081 43.562 20.7576C43.9176 21.0514 44.4692 21.1339 44.8145 20.7576C45.1135 20.4328 45.196 19.8194 44.8145 19.505C43.531 18.4535 42.2475 17.4019 40.964 16.3504C40.7785 16.2009 40.5929 16.0462 40.4125 15.8968C40.0568 15.603 39.5053 15.5205 39.1599 15.8968C38.8609 16.2215 38.7785 16.8349 39.1599 17.1493Z" fill="white"/>
<path d="M49.2991 9.54095C49.5413 11.2781 49.7836 13.0152 50.0259 14.7523C50.062 14.9997 50.0929 15.2471 50.129 15.4946C50.196 15.9688 50.7991 16.2265 51.2166 16.1131C51.7269 15.9739 51.9022 15.4997 51.8351 15.0255C51.5929 13.2884 51.3506 11.5513 51.1083 9.81415C51.0723 9.56673 51.0413 9.31931 51.0052 9.07188C50.9382 8.59766 50.3351 8.33992 49.9176 8.45333C49.4073 8.5925 49.2321 9.06673 49.2991 9.54095Z" fill="white"/>
<path d="M59.2269 8.79871C58.995 10.5977 58.763 12.3966 58.531 14.1956C58.5001 14.4533 58.464 14.7059 58.4331 14.9637C58.3712 15.4379 58.8816 15.8503 59.3197 15.8503C59.8506 15.8503 60.1444 15.443 60.2063 14.9637C60.4383 13.1647 60.6702 11.3657 60.9022 9.56675C60.9331 9.30902 60.9692 9.05644 61.0001 8.79871C61.062 8.32448 60.5517 7.91211 60.1135 7.91211C59.5826 7.91211 59.2888 8.31933 59.2269 8.79871Z" fill="white"/>
<path d="M70.835 11.5512C69.3041 13.0924 67.768 14.6336 66.2371 16.1697C66.0154 16.3914 65.7938 16.613 65.5773 16.8347C65.2525 17.1646 65.2268 17.7625 65.5773 18.0872C65.9278 18.412 66.4793 18.4378 66.8299 18.0872C68.3608 16.546 69.8969 15.0048 71.4278 13.4687C71.6495 13.247 71.8711 13.0254 72.0876 12.8037C72.4123 12.4738 72.4381 11.8759 72.0876 11.5512C71.7371 11.2264 71.1855 11.2006 70.835 11.5512Z" fill="white"/>
<path d="M77.0259 22.4428C75.2321 22.5201 73.4331 22.5923 71.6393 22.6696L70.8661 22.7005C70.3867 22.7211 69.9795 23.0923 69.9795 23.5871C69.9795 24.051 70.3867 24.4892 70.8661 24.4737C72.6599 24.3964 74.4589 24.3242 76.2527 24.2469L77.0259 24.216C77.5053 24.1954 77.9125 23.8242 77.9125 23.3294C77.9125 22.8655 77.5053 22.4273 77.0259 22.4428Z" fill="white"/>
<path d="M76.5722 30.9895C75.1805 30.6132 73.7887 30.2369 72.4021 29.8606L71.8042 29.7008C71.3557 29.5823 70.8248 29.8503 70.7166 30.3194C70.6083 30.7885 70.8557 31.2781 71.3351 31.407C72.7269 31.7833 74.1186 32.1596 75.5052 32.5359L76.1032 32.6957C76.5516 32.8142 77.0825 32.5462 77.1908 32.0771C77.299 31.608 77.0516 31.1184 76.5722 30.9895Z" fill="white"/>
</g>
<defs>
<clipPath id="clip0_47_33307">
<rect width="100" height="100" fill="white"/>
</clipPath>
</defs>
</svg>
