<svg width="100" height="100" viewBox="0 0 100 100" fill="none" xmlns="http://www.w3.org/2000/svg">
<g clip-path="url(#clip0_48_33604)">
<path d="M50 100C77.6142 100 100 77.6142 100 50C100 22.3858 77.6142 0 50 0C22.3858 0 0 22.3858 0 50C0 77.6142 22.3858 100 50 100Z" fill="#3078F6"/>
<path d="M49.9741 72.7779C46.639 72.7779 43.304 72.7779 39.9689 72.7779C38.7112 72.7779 38.4535 72.5408 38.2937 71.314C37.7679 67.2934 36.6081 63.5047 34.0514 60.2676C33.2937 59.3089 32.5102 58.3707 31.7009 57.4583C29.0875 54.4996 27.9793 51.0099 27.7885 47.113C27.4741 40.7315 29.3246 35.1336 33.639 30.4171C36.7524 27.0099 40.5772 24.7676 45.1081 23.7573C48.8452 22.9223 52.5669 22.9841 56.2215 24.0924C62.5772 26.0202 67.2525 29.9944 70.139 35.9944C72.2215 40.314 72.6236 44.8656 71.9793 49.5769C71.5102 53.0099 69.8916 55.8295 67.5772 58.2934C64.4741 61.5975 62.5875 65.4686 61.9019 69.9377C61.8246 70.448 61.7318 70.9583 61.6751 71.4738C61.5617 72.4532 61.2112 72.7831 60.2318 72.7831C56.8143 72.7831 53.3968 72.7831 49.9793 72.7831L49.9741 72.7779ZM49.9793 70.7522C49.9793 70.7522 49.9793 70.747 49.9793 70.7419C52.9432 70.7419 55.9019 70.7264 58.8658 70.7522C59.4432 70.7573 59.7112 70.6181 59.804 70.0047C60.1287 67.8295 60.6957 65.7161 61.5308 63.6748C62.5875 61.1027 64.2679 58.9583 66.0978 56.9171C68.1648 54.613 69.5875 52.0254 69.9896 48.9016C70.572 44.3862 70.0617 40.0563 67.871 36.015C63.1803 27.3552 53.4277 23.3089 44.0772 26.1078C35.8298 28.5769 29.9277 36.4996 29.7731 45.1027C29.6854 49.9429 31.0978 54.1027 34.4689 57.6439C35.6803 58.9171 36.67 60.4429 37.572 61.9635C38.9638 64.2985 39.6597 66.9068 40.0772 69.5821C40.2628 70.7522 40.2524 70.7522 41.4019 70.7522C44.2576 70.7522 47.1184 70.7522 49.9741 70.7522H49.9793Z" fill="white"/>
<path d="M49.9845 77.8858C47.1906 77.8858 44.3968 77.8858 41.5979 77.8858C41.0875 77.8858 40.5772 77.8033 40.4381 77.2672C40.3556 76.9373 40.4174 76.4322 40.6288 76.2002C40.8504 75.9579 41.3247 75.8497 41.6855 75.8445C44.17 75.8136 46.6546 75.8239 49.1391 75.8187C52.036 75.8187 54.9381 75.8187 57.835 75.8187C58.1236 75.8187 58.4174 75.8084 58.7009 75.8445C59.3298 75.9218 59.6752 76.3033 59.6597 76.8548C59.6391 77.4425 59.2525 77.8394 58.6133 77.8548C57.4948 77.8806 56.3762 77.8754 55.2576 77.8754C53.4999 77.8754 51.737 77.8754 49.9793 77.8754L49.9845 77.8858Z" fill="white"/>
<path d="M50.0208 82.2267C47.8456 82.2267 45.6755 82.2215 43.5002 82.2267C42.9435 82.2267 42.5157 82.0617 42.3404 81.505C42.1239 80.8246 42.6136 80.2112 43.4023 80.2009C45.3249 80.1854 47.2528 80.1958 49.1755 80.1958C51.6394 80.1958 54.1033 80.2061 56.5672 80.2009C57.0775 80.2009 57.526 80.3659 57.6239 80.871C57.6858 81.2061 57.5724 81.6597 57.3662 81.9329C57.2115 82.139 56.7837 82.2164 56.4796 82.2215C54.325 82.2473 52.1755 82.2318 50.0208 82.2318V82.2267Z" fill="white"/>
<path d="M49.9641 86.5926C48.3095 86.5926 46.6549 86.5926 44.9951 86.5926C44.4538 86.5926 44.0105 86.4225 43.8456 85.8503C43.6445 85.1648 44.1239 84.5771 44.928 84.5617C46.2734 84.5359 47.6188 84.541 48.9641 84.5462C50.9693 84.5462 52.9796 84.5565 54.9847 84.5617C55.5054 84.5617 55.928 84.7163 56.1188 85.2421C56.3713 85.9276 55.8817 86.5771 55.0466 86.5874C53.3507 86.6132 51.6549 86.5926 49.9538 86.5977L49.9641 86.5926Z" fill="white"/>
<path d="M19.4227 46.721C18.1598 46.721 16.9021 46.721 15.6392 46.721C14.9588 46.721 14.5361 46.3447 14.5258 45.7468C14.5103 45.154 14.9227 44.7107 15.598 44.7056C18.1598 44.6849 20.7217 44.6849 23.2835 44.6952C24.0155 44.6952 24.4227 45.1076 24.4176 45.7313C24.4176 46.3602 24.0155 46.7159 23.2629 46.721C21.9794 46.7313 20.7011 46.721 19.4176 46.721H19.4227Z" fill="white"/>
<path d="M80.5618 44.6853C81.8453 44.6853 83.1288 44.6698 84.4123 44.6904C85.2216 44.7059 85.7113 45.4018 85.3556 46.0873C85.2113 46.3605 84.8144 46.6749 84.5309 46.6801C81.8814 46.7316 79.2319 46.7316 76.5824 46.7162C75.9226 46.7162 75.5876 46.309 75.5979 45.6904C75.6082 45.1131 76.0051 44.7162 76.6494 44.7059C77.9536 44.6853 79.2577 44.7007 80.5618 44.7007V44.6904V44.6853Z" fill="white"/>
<path d="M37.8351 22.8238C37.5722 23.1022 37.3403 23.4888 37.0052 23.664C36.5413 23.9012 36.1135 23.6383 35.8557 23.2104C35.2939 22.2929 34.7526 21.3651 34.2166 20.4372C33.4691 19.1486 32.7063 17.8754 32.0207 16.5558C31.8454 16.2207 31.799 15.6743 31.9537 15.3496C32.2939 14.6434 33.2269 14.6898 33.6599 15.4063C34.6496 17.0558 35.598 18.7207 36.5619 20.3857C36.8609 20.9012 37.1702 21.4166 37.4588 21.9424C37.5877 22.1743 37.6702 22.4269 37.8403 22.8238H37.8351Z" fill="white"/>
<path d="M20.0155 64.061C19.7578 63.8239 19.3764 63.6125 19.2217 63.2878C18.9898 62.8136 19.1805 62.3445 19.6496 62.061C20.4125 61.6022 21.1856 61.1641 21.9588 60.7208C23.4125 59.8857 24.8609 59.0404 26.3197 58.2208C27.1289 57.7672 27.9228 58.1383 27.9846 58.9734C28.0259 59.5146 27.6702 59.7981 27.263 60.0352C25.6496 60.963 24.031 61.8857 22.4176 62.8136C21.897 63.1125 21.3815 63.427 20.8558 63.7156C20.6444 63.8342 20.4021 63.9063 20.0155 64.061Z" fill="white"/>
<path d="M68.3607 15.7318C68.1803 16.1545 68.0926 16.4329 67.9483 16.6751C66.7679 18.737 65.5823 20.7988 64.3865 22.8556C64.2627 23.0669 64.1287 23.2885 63.9535 23.4535C63.5978 23.7885 63.1854 23.8556 62.7679 23.5617C62.3813 23.2885 62.1597 22.9071 62.3401 22.438C62.4947 22.036 62.7215 21.6597 62.938 21.2834C64.0566 19.3298 65.1803 17.3762 66.3091 15.4226C66.572 14.9638 66.9947 14.6751 67.4947 14.9071C67.8401 15.0669 68.0823 15.4483 68.3555 15.7215L68.3607 15.7318Z" fill="white"/>
<path d="M27.9899 32.2061C27.9692 33.2525 27.1703 33.6907 26.4228 33.2732C25.16 32.567 23.9125 31.8299 22.6548 31.1082C21.7579 30.5927 20.861 30.0773 19.9692 29.5515C19.1703 29.0824 18.9589 28.5876 19.2785 28.0103C19.6084 27.4175 20.16 27.3196 20.9435 27.768C23.0826 28.9897 25.2167 30.2216 27.3301 31.4793C27.6496 31.6701 27.8507 32.0464 27.9899 32.201V32.2061Z" fill="white"/>
<path d="M79.7371 27.4786C80.3299 27.4734 80.6598 27.7312 80.8041 28.1899C80.9536 28.6693 80.835 29.092 80.3711 29.3652C79.335 29.9683 78.3041 30.5765 77.268 31.1745C76.036 31.8858 74.8041 32.6126 73.5515 33.293C72.8092 33.6951 71.9845 33.2105 72.0567 32.4013C72.0824 32.1023 72.3041 31.7054 72.5515 31.5559C74.7835 30.2209 77.0464 28.927 79.2989 27.6332C79.4536 27.5456 79.6443 27.5147 79.7371 27.4837V27.4786Z" fill="white"/>
<path d="M80.8607 62.7312C80.8504 63.7467 80.0978 64.2055 79.3556 63.8292C78.6185 63.4529 77.9123 63.0199 77.1958 62.6024C75.6906 61.7312 74.1906 60.8601 72.6855 59.989C72.2886 59.757 71.9844 59.4684 72.036 58.9581C72.1236 58.1178 72.8453 57.7622 73.6442 58.2055C74.9793 58.9529 76.2989 59.7312 77.6236 60.4993C78.4999 61.0044 79.3968 61.489 80.2473 62.0354C80.5463 62.2261 80.7319 62.5818 80.8556 62.7312H80.8607Z" fill="white"/>
<path d="M51.0104 15.2831C51.0104 16.5253 51.0155 17.7625 51.0104 19.0047C51.0052 19.7315 50.6238 20.1645 50.0104 20.1645C49.4227 20.1645 48.9897 19.7058 48.9897 19.0047C48.9794 16.4841 48.9743 13.9583 48.9897 11.4377C48.9949 10.5305 49.5928 10.0614 50.3403 10.314C50.8403 10.4841 51.0258 10.8604 51.0207 11.3707C51.0104 12.6748 51.0207 13.9738 51.0207 15.2779C51.0207 15.2779 51.0207 15.2779 51.0155 15.2779L51.0104 15.2831Z" fill="white"/>
<path d="M42.3714 33.4374C43.8559 33.4529 45.624 34.19 47.3456 35.0714C48.0466 35.4271 48.7271 35.8292 49.3765 36.2621C49.8198 36.556 50.1549 36.556 50.6085 36.2621C52.3972 35.0869 54.2786 34.0766 56.3972 33.6333C57.1343 33.4786 57.691 33.1848 58.2374 32.6539C59.5724 31.3549 61.8765 31.556 63.1343 32.989C64.3405 34.3652 64.1652 36.556 62.7992 37.8137C62.5106 38.0766 62.2889 38.5044 62.2116 38.8962C61.7631 41.1745 60.6961 43.1745 59.4642 45.1024C59.1704 45.5611 59.1549 45.8807 59.4539 46.324C60.6188 48.0457 61.6188 49.8807 62.0415 51.9271C62.258 52.9786 62.2889 54.1178 62.1394 55.1797C61.9023 56.9013 60.3456 58.0147 58.3765 58.056C56.3662 58.0972 54.5673 57.3601 52.8301 56.4632C52.0209 56.0457 51.2425 55.5714 50.4745 55.0817C50.124 54.8549 49.8765 54.8549 49.526 55.0817C47.7734 56.2364 45.9487 57.2518 43.8765 57.7209C43.1343 57.8859 42.3611 58.0147 41.6033 57.9993C38.5673 57.9477 37.3765 55.6951 37.6755 53.2054C37.959 50.8704 38.9126 48.7828 40.2013 46.8652C40.7683 46.0199 40.8147 45.4219 40.2116 44.5714C39.1704 43.0972 38.4075 41.4529 37.9539 39.6951C37.7838 39.0353 37.6549 38.3549 37.6394 37.6745C37.5673 34.9889 39.1188 33.4529 42.3611 33.4374H42.3714ZM56.4642 45.7261C56.3662 45.5663 56.2992 45.4168 56.1961 45.2931C54.4899 43.1436 52.5466 41.2312 50.4178 39.5044C50.1291 39.2673 49.8817 39.2621 49.593 39.5044C47.4487 41.2467 45.4848 43.1642 43.7734 45.3446C43.526 45.6591 43.5621 45.8704 43.7889 46.1539C45.4899 48.2518 47.3714 50.1642 49.4745 51.8652C49.8456 52.1642 50.1188 52.1848 50.5054 51.8755C52.6085 50.1745 54.5106 48.2776 56.191 46.1642C56.2889 46.0353 56.3662 45.891 56.4642 45.7364V45.7261ZM51.8869 53.5766C53.8765 54.7621 55.8456 55.9529 58.2271 56.0405C59.6033 56.092 60.3456 55.2261 60.2734 53.8188C60.1755 51.8085 59.2734 50.0817 58.3147 48.3859C58.1652 48.123 57.9848 47.8807 57.825 47.6384C55.8456 49.623 53.9075 51.556 51.8869 53.5817V53.5766ZM42.1188 47.592C41.6291 48.5044 41.1085 49.3859 40.6755 50.3085C40.1394 51.4529 39.691 52.6384 39.6858 53.9271C39.6858 55.2209 40.3044 55.8859 41.5827 55.9735C41.9281 55.9993 42.2838 55.9735 42.6291 55.9168C44.5724 55.6178 46.2683 54.7312 47.8972 53.69C47.9745 53.6384 48.0209 53.5353 48.0466 53.4993C46.0827 51.5405 44.1497 49.6127 42.1137 47.5817L42.1188 47.592ZM42.191 43.8188C42.3456 43.7054 42.4745 43.6436 42.5673 43.5457C44.3095 41.8137 46.0363 40.0663 47.7889 38.3446C48.1497 37.9941 48.0621 37.7879 47.6858 37.6024C46.4436 36.9941 45.2271 36.3188 43.9435 35.824C43.1961 35.5353 42.3301 35.4683 41.5157 35.4529C40.4796 35.4374 39.8198 36.0611 39.7889 37.092C39.7683 37.8859 39.8508 38.7106 40.0673 39.4683C40.5106 41.0199 41.2322 42.458 42.1961 43.8137L42.191 43.8188ZM57.5724 43.9735C58.7838 42.4219 59.5054 40.9993 59.9899 39.4426C60.16 38.8962 60.0724 38.6642 59.5209 38.5096C58.3301 38.1797 57.5673 37.3601 57.2167 36.1951C57.0518 35.6436 56.7683 35.5302 56.3147 35.7364C54.9796 36.3395 53.66 36.9683 52.3301 37.592C51.7992 37.8395 51.9487 38.0714 52.2941 38.4065C53.9642 40.0405 55.6137 41.6951 57.2528 43.3549C57.4075 43.5096 57.4642 43.7621 57.5724 43.9683V43.9735ZM61.8972 35.2106C61.9229 34.4529 61.3714 33.8704 60.5982 33.8549C59.7734 33.8343 59.1188 34.4426 59.093 35.257C59.0673 36.0199 59.7477 36.6384 60.6085 36.6487C61.2374 36.6539 61.8662 35.9529 61.8972 35.2158V35.2106Z" fill="white"/>
<path d="M49.9745 49.1491C48.0672 49.1285 46.5105 47.5718 46.5415 45.7109C46.5724 43.8089 48.1291 42.2573 49.9951 42.2676C51.9229 42.2779 53.4848 43.8553 53.4538 45.7573C53.4229 47.6542 51.8662 49.1697 49.9745 49.1491ZM51.3714 45.68C51.3559 44.8862 50.7837 44.3192 49.9951 44.3192C49.2064 44.3192 48.6136 44.9429 48.6239 45.7625C48.6343 46.5408 49.2322 47.1285 50.0054 47.1233C50.8044 47.1233 51.3868 46.4996 51.3714 45.68Z" fill="white"/>
</g>
<defs>
<clipPath id="clip0_48_33604">
<rect width="100" height="100" fill="white"/>
</clipPath>
</defs>
</svg>
