<svg width="100" height="100" viewBox="0 0 100 100" fill="none" xmlns="http://www.w3.org/2000/svg">
<g clip-path="url(#clip0_50_33792)">
<path d="M50 100C77.6142 100 100 77.6142 100 50C100 22.3858 77.6142 0 50 0C22.3858 0 0 22.3858 0 50C0 77.6142 22.3858 100 50 100Z" fill="#3078F6"/>
<path d="M43.1031 38.1083C43.1031 42.0413 42.8351 46.0001 42.0774 49.8609C41.7835 51.3506 41.4227 52.83 40.9176 54.2578C40.8145 54.5465 40.7062 54.83 40.5928 55.1135C40.4897 55.3764 40.6392 55.0104 40.5722 55.165C40.5464 55.2321 40.5155 55.2939 40.4846 55.3609C40.4176 55.5104 40.3454 55.6599 40.2732 55.8094C40.0464 56.2681 39.7939 56.7063 39.5 57.1238C39.3402 57.3558 39.598 57.0207 39.4176 57.2269C39.3506 57.3042 39.2887 57.3764 39.2217 57.4537C39.1598 57.5207 39.0928 57.5877 39.0207 57.6547C38.9485 57.7217 38.6701 57.9073 38.933 57.7424C38.799 57.8248 38.6495 57.9073 38.5155 57.9949C38.3712 58.0877 38.7475 57.9331 38.5774 57.9692C38.5464 57.9743 38.5207 57.9898 38.4949 58.0001C38.4846 58.0001 38.2423 58.0723 38.2372 58.062C38.2217 58.0001 38.5361 58.0568 38.3248 58.0465C38.2939 58.0465 38.2681 58.0465 38.2372 58.0465C37.9279 58.0465 38.2372 58.0362 38.2372 58.062C38.2372 58.0723 38.0464 58.0207 38.0207 58.0156C37.9794 58.0052 37.933 57.9846 37.8918 57.9743C37.7372 57.9434 38.0928 58.0826 37.9536 58.0001C37.8145 57.9176 37.6753 57.8351 37.5361 57.7475C37.799 57.9125 37.5567 57.7578 37.4897 57.7011C37.4073 57.6238 37.3248 57.5465 37.2475 57.464C37.1805 57.3918 37.1134 57.3145 37.0516 57.2372C36.8815 57.0413 37.1186 57.3455 36.9691 57.1341C36.8196 56.9228 36.6856 56.7166 36.5567 56.4949C36.4279 56.2733 36.3093 56.0465 36.1959 55.8197C36.1289 55.6857 36.0671 55.5465 36.0052 55.4125C35.9743 55.3506 35.9485 55.2836 35.9176 55.2166C35.8248 55.0104 35.9588 55.3248 35.8815 55.129C35.3454 53.7784 34.9433 52.3867 34.6238 50.9692C33.7887 47.263 33.4588 43.4537 33.3815 39.6599C33.299 35.6702 33.4949 31.6393 34.1495 27.7011C34.4124 26.1135 34.7475 24.5362 35.2165 22.9949C35.4124 22.3558 35.6341 21.7269 35.8815 21.1032C35.9897 20.8351 35.8042 21.2733 35.9176 21.0156C35.9382 20.964 35.964 20.9125 35.9846 20.8609C36.0464 20.7217 36.1083 20.5877 36.1753 20.4485C36.2939 20.2063 36.4176 19.9692 36.5516 19.7372C36.6753 19.5259 36.8042 19.3248 36.9433 19.1238C36.9743 19.0774 37.0052 19.0362 37.0413 18.9949C36.897 19.196 36.9846 19.0671 37.0258 19.0207C37.1031 18.9331 37.1805 18.8403 37.2629 18.7527C37.3299 18.6857 37.3918 18.6187 37.464 18.5568C37.5361 18.4949 37.799 18.3248 37.531 18.4898C37.6701 18.4022 37.8351 18.3248 37.9691 18.2269C37.5877 18.5001 38.1959 18.062 38.2268 18.1754C38.232 18.2011 37.9485 18.1805 38.098 18.196C38.1392 18.196 38.1856 18.196 38.2268 18.196C38.2578 18.196 38.2835 18.196 38.3145 18.196C38.5464 18.1857 38.1341 18.1393 38.2732 18.1857C38.3402 18.2114 38.4176 18.2217 38.4846 18.2372C38.5155 18.2424 38.5413 18.263 38.5671 18.2681C38.732 18.2991 38.3609 18.1444 38.5052 18.2424C38.5722 18.2836 38.6495 18.3145 38.7165 18.3558C38.799 18.4022 39.0464 18.6187 38.8093 18.4073C38.9485 18.531 39.0877 18.6444 39.2114 18.7836C39.2784 18.8558 39.3454 18.9331 39.4073 19.0104C39.433 19.0413 39.4588 19.0774 39.4846 19.1083C39.3042 18.8867 39.4897 19.1187 39.5258 19.1702C39.8248 19.5877 40.0722 20.0413 40.299 20.5001C40.3609 20.6238 40.4176 20.7475 40.4743 20.8764C40.4949 20.9279 40.5207 20.9795 40.5413 21.031C40.6547 21.2939 40.4691 20.8506 40.5774 21.1187C40.7011 21.4331 40.8248 21.7475 40.933 22.0671C41.1701 22.7475 41.3712 23.4331 41.5516 24.129C42.4691 27.6444 42.8609 31.2939 43.0155 34.9176C43.0619 35.9898 43.0825 37.0568 43.0825 38.129C43.0825 39.3815 45.0258 39.3815 45.0258 38.129C45.0258 33.9434 44.7165 29.7269 43.8866 25.6238C43.5722 24.0671 43.1753 22.5104 42.6134 21.0207C42.1701 19.8506 41.6444 18.7114 40.8557 17.7321C40.2475 16.9692 39.433 16.3712 38.4382 16.2733C37.5207 16.1805 36.6701 16.6341 36.0258 17.2527C35.2268 18.0207 34.6701 19.0465 34.232 20.0516C33.6289 21.4434 33.1805 22.897 32.8351 24.3712C31.9021 28.3094 31.531 32.3918 31.4382 36.4331C31.3402 40.7372 31.5877 45.0671 32.3145 49.3145C32.598 50.9795 32.964 52.6393 33.4897 54.2527C33.8866 55.4743 34.366 56.7114 35.0619 57.7939C35.6186 58.6599 36.3351 59.4795 37.3248 59.8455C38.1598 60.1547 39.0928 59.9898 39.8196 59.5001C40.7114 58.897 41.3454 57.9692 41.8299 57.031C42.4794 55.7784 42.9382 54.4279 43.3145 53.0723C44.3506 49.3197 44.7784 45.3815 44.9537 41.5001C45.0052 40.3815 45.0258 39.263 45.031 38.1393C45.031 36.8867 43.0877 36.8867 43.0877 38.1393L43.1031 38.1083Z" fill="white"/>
<path d="M42.3145 41.5415C39.7681 44.5106 37.0052 47.3302 33.9485 49.7787C32.8196 50.6859 31.5928 51.5673 30.3145 52.3199C29.7835 52.6292 29.2423 52.923 28.6856 53.1756C28.6134 53.2117 28.5361 53.2426 28.464 53.2735C28.4949 53.258 28.6444 53.2013 28.4743 53.2683C28.3557 53.3147 28.2372 53.3611 28.1186 53.4075C27.8763 53.4952 27.6237 53.5776 27.3712 53.6446C27.165 53.7013 26.9588 53.7374 26.7475 53.7787C26.9949 53.7323 26.7784 53.7787 26.6598 53.7787C26.5619 53.7838 26.4588 53.789 26.3557 53.789C26.2681 53.789 26.1856 53.7787 26.098 53.7735C25.8866 53.7684 26.3196 53.8354 26.0877 53.7735C26.0155 53.7529 25.9382 53.7323 25.8609 53.7168C25.8402 53.7168 25.7423 53.6859 25.732 53.6704C25.7268 53.6601 25.9691 53.7993 25.8042 53.6962C25.7475 53.6601 25.6805 53.6137 25.6134 53.5828C25.464 53.5158 25.7732 53.7529 25.6701 53.6292C25.6495 53.6086 25.6237 53.5879 25.6031 53.5673C25.5516 53.5158 25.5052 53.4539 25.4536 53.4024C25.6701 53.6189 25.4897 53.4281 25.4279 53.3302C25.4124 53.3044 25.4021 53.2735 25.3866 53.2477C25.2835 53.1086 25.4485 53.4745 25.4073 53.3044C25.3866 53.222 25.3506 53.1446 25.3299 53.0673C25.3042 52.9797 25.2939 52.8972 25.2732 52.8096C25.2629 52.7735 25.2629 52.7374 25.2578 52.7013C25.3145 53.0106 25.2681 52.7787 25.2629 52.7013C25.2526 52.4952 25.2475 52.289 25.2578 52.0828C25.2629 51.9694 25.2732 51.8611 25.2835 51.7477C25.2887 51.691 25.299 51.6343 25.3042 51.5725C25.2732 51.8457 25.3042 51.5879 25.3093 51.5467C25.4124 50.9848 25.5464 50.4281 25.7217 49.8818C26.1547 48.5106 26.6701 47.4024 27.3557 46.0931C29.1341 42.691 31.3763 39.5209 33.8093 36.5519C36.3609 33.4385 39.1547 30.49 42.232 27.8869C43.4227 26.8766 44.6186 25.9539 45.9382 25.1034C46.5052 24.7374 47.0877 24.3869 47.6908 24.0725C47.9433 23.9385 48.2011 23.8096 48.464 23.691C48.5155 23.6704 48.5619 23.6446 48.6134 23.624C48.8609 23.5106 48.4279 23.691 48.6753 23.5982C48.8042 23.5467 48.9382 23.4952 49.0671 23.4488C49.5052 23.289 49.9433 23.1807 50.4021 23.0931C50.0877 23.155 50.4124 23.0931 50.4897 23.0931C50.5825 23.0879 50.6753 23.0828 50.7629 23.0828C50.8506 23.0828 50.9382 23.0879 51.0258 23.0931C51.067 23.0931 51.2217 23.1292 51.0464 23.0931C50.8557 23.0519 51.0722 23.0983 51.1083 23.1086C51.1805 23.1292 51.2578 23.155 51.3299 23.1704C51.5567 23.2271 51.1495 23.0519 51.3454 23.1756C51.4021 23.2117 51.4691 23.258 51.5361 23.289C51.6083 23.3251 51.5877 23.4127 51.4433 23.2168C51.4743 23.258 51.5258 23.2838 51.5619 23.3199C51.598 23.3611 51.7475 23.5622 51.6495 23.4075C51.5464 23.2477 51.6908 23.4797 51.7114 23.5209C51.7887 23.655 51.7835 23.7065 51.7268 23.5209C51.7578 23.6137 51.7939 23.7065 51.8248 23.8044C51.8506 23.8921 51.8609 23.9745 51.8815 24.0622C51.9433 24.3251 51.8763 23.8663 51.8918 24.1395C51.9021 24.3663 51.9124 24.5931 51.8969 24.8199C51.8918 24.9333 51.8815 25.0467 51.8712 25.155C51.8712 25.2013 51.8609 25.2477 51.8557 25.2941C51.8866 25.0209 51.8557 25.2735 51.8506 25.3199C51.799 25.5879 51.7475 25.856 51.6856 26.1189C51.5413 26.7117 51.3506 27.2941 51.1341 27.8663C50.8763 28.5467 50.6598 29.0415 50.3248 29.7426C48.7217 33.0776 46.6134 36.1859 44.3351 39.0931C43.6856 39.923 43.0155 40.7374 42.3299 41.5364C41.9897 41.9333 41.9382 42.5209 42.3299 42.9127C42.6805 43.2632 43.3609 43.3147 43.7062 42.9127C46.4691 39.6807 49.0361 36.2323 51.0877 32.5003C51.8712 31.0776 52.5825 29.6034 53.1238 28.0725C53.5207 26.9539 53.8454 25.758 53.8557 24.5622C53.866 23.6189 53.6341 22.5983 52.9279 21.9281C52.2217 21.258 51.299 21.0622 50.3866 21.155C47.7939 21.4127 45.3866 23.0467 43.3454 24.5467C40.1134 26.9281 37.2062 29.7374 34.5361 32.7271C31.6495 35.9591 28.9743 39.4333 26.7681 43.1653C25.8815 44.6653 25.0774 46.2168 24.4124 47.8354C23.9176 49.0364 23.5258 50.2787 23.366 51.5725C23.2475 52.5106 23.2939 53.5622 23.8042 54.3921C24.3145 55.222 25.2062 55.6601 26.1805 55.7271C27.1547 55.7941 28.1753 55.4797 29.0722 55.1137C30.3969 54.5673 31.6341 53.8405 32.8196 53.0312C36.0052 50.8508 38.866 48.1859 41.5 45.3714C42.2526 44.5673 42.9846 43.7477 43.7011 42.9127C44.0413 42.5158 44.0928 41.9281 43.7011 41.5364C43.3506 41.1859 42.6701 41.1343 42.3248 41.5364L42.3145 41.5415Z" fill="white"/>
<path d="M34.0877 42.5824C37.3196 45.3453 40.7681 47.9123 44.5 49.9639C45.9227 50.7474 47.3969 51.4587 48.9279 52C50.0464 52.3969 51.2423 52.7216 52.4382 52.7319C53.3815 52.7422 54.4021 52.5103 55.0722 51.8041C55.7423 51.0979 55.9382 50.1752 55.8454 49.2629C55.5877 46.6701 53.9536 44.2629 52.4536 42.2216C50.0722 38.9897 47.2629 36.0824 44.2732 33.4123C41.0413 30.5257 37.567 27.8505 33.8351 25.6443C32.3351 24.7577 30.7835 23.9536 29.165 23.2886C27.9639 22.7938 26.7217 22.402 25.4279 22.2422C24.4897 22.1237 23.4382 22.1701 22.6083 22.6804C21.7784 23.1907 21.3402 24.0824 21.2732 25.0567C21.2062 26.0309 21.5206 27.0515 21.8866 27.9484C22.433 29.2732 23.1598 30.5103 23.9691 31.6958C26.1495 34.8814 28.8145 37.7422 31.6289 40.3763C32.433 41.1288 33.2526 41.8608 34.0877 42.5773C34.4846 42.9175 35.0722 42.969 35.4639 42.5773C35.8145 42.2268 35.866 41.5464 35.4639 41.201C32.4949 38.6546 29.6753 35.8917 27.2268 32.835C26.3196 31.7062 25.4382 30.4794 24.6856 29.201C24.3763 28.6701 24.0825 28.1288 23.8299 27.5721C23.7938 27.5 23.7629 27.4227 23.732 27.3505C23.7475 27.3814 23.8042 27.5309 23.7371 27.3608C23.6908 27.2422 23.6444 27.1237 23.598 27.0051C23.5103 26.7629 23.4279 26.5103 23.3609 26.2577C23.3042 26.0515 23.2681 25.8453 23.2268 25.634C23.2732 25.8814 23.2268 25.6649 23.2268 25.5464C23.2217 25.4484 23.2165 25.3453 23.2165 25.2422C23.2165 25.1546 23.2268 25.0721 23.232 24.9845C23.2371 24.7732 23.1701 25.2062 23.232 24.9742C23.2526 24.902 23.2732 24.8247 23.2887 24.7474C23.2887 24.7268 23.3196 24.6288 23.3351 24.6185C23.3454 24.6134 23.2062 24.8556 23.3093 24.6907C23.3454 24.634 23.3918 24.567 23.4227 24.5C23.4897 24.3505 23.2526 24.6598 23.3763 24.5567C23.3969 24.5361 23.4176 24.5103 23.4382 24.4897C23.4897 24.4381 23.5516 24.3917 23.6031 24.3402C23.3866 24.5567 23.5774 24.3763 23.6753 24.3144C23.7011 24.2989 23.732 24.2886 23.7578 24.2732C23.8969 24.1701 23.531 24.335 23.7011 24.2938C23.7835 24.2732 23.8609 24.2371 23.9382 24.2165C24.0258 24.1907 24.1083 24.1804 24.1959 24.1598C24.232 24.1495 24.2681 24.1495 24.3042 24.1443C23.9949 24.201 24.2268 24.1546 24.3042 24.1495C24.5103 24.1391 24.7165 24.134 24.9227 24.1443C25.0361 24.1495 25.1444 24.1598 25.2578 24.1701C25.3145 24.1752 25.3712 24.1855 25.433 24.1907C25.1598 24.1598 25.4176 24.1907 25.4588 24.1958C26.0206 24.2989 26.5773 24.433 27.1237 24.6082C28.4949 25.0412 29.6031 25.5567 30.9124 26.2422C34.3145 28.0206 37.4846 30.2629 40.4536 32.6958C43.567 35.2474 46.5155 38.0412 49.1186 41.1185C50.1289 42.3092 51.0516 43.5051 51.9021 44.8247C52.2681 45.3917 52.6186 45.9742 52.933 46.5773C53.067 46.8299 53.1959 47.0876 53.3145 47.3505C53.3351 47.402 53.3609 47.4484 53.3815 47.5C53.4949 47.7474 53.3145 47.3144 53.4072 47.5618C53.4588 47.6907 53.5103 47.8247 53.5567 47.9536C53.7165 48.3917 53.8248 48.8299 53.9124 49.2886C53.8505 48.9742 53.9124 49.2989 53.9124 49.3763C53.9176 49.469 53.9227 49.5618 53.9227 49.6495C53.9227 49.7371 53.9176 49.8247 53.9124 49.9123C53.9124 49.9536 53.8763 50.1082 53.9124 49.933C53.9536 49.7422 53.9072 49.9587 53.8969 49.9948C53.8763 50.067 53.8505 50.1443 53.8351 50.2165C53.7784 50.4433 53.9536 50.0361 53.8299 50.2319C53.7938 50.2886 53.7475 50.3556 53.7165 50.4227C53.6804 50.4948 53.5928 50.4742 53.7887 50.3299C53.7475 50.3608 53.7217 50.4123 53.6856 50.4484C53.6444 50.4845 53.4433 50.634 53.598 50.5361C53.7578 50.433 53.5258 50.5773 53.4846 50.5979C53.3505 50.6752 53.299 50.6701 53.4846 50.6134C53.3918 50.6443 53.299 50.6804 53.2011 50.7113C53.1134 50.7371 53.031 50.7474 52.9433 50.768C52.6804 50.8299 53.1392 50.7629 52.866 50.7783C52.6392 50.7886 52.4124 50.7989 52.1856 50.7835C52.0722 50.7783 51.9588 50.768 51.8505 50.7577C51.8042 50.7577 51.7578 50.7474 51.7114 50.7422C51.9846 50.7732 51.732 50.7422 51.6856 50.7371C51.4176 50.6855 51.1495 50.634 50.8866 50.5721C50.2938 50.4278 49.7114 50.2371 49.1392 50.0206C48.4588 49.7629 47.9639 49.5464 47.2629 49.2113C43.9279 47.6082 40.8196 45.5 37.9124 43.2216C37.0825 42.5721 36.2681 41.902 35.4691 41.2165C35.0722 40.8763 34.4846 40.8247 34.0928 41.2165C33.7423 41.567 33.6908 42.2474 34.0928 42.5928L34.0877 42.5824Z" fill="white"/>
<path d="M38.8917 44.9123C43.0773 44.9123 47.2938 44.603 51.3969 43.7731C52.9536 43.4587 54.5103 43.0618 56 42.4999C57.1701 42.0566 58.3092 41.5308 59.2886 40.7422C60.0515 40.1339 60.6494 39.3195 60.7474 38.3247C60.8402 37.4071 60.3866 36.5566 59.768 35.9123C59 35.1133 57.9742 34.5566 56.969 34.1185C55.5773 33.5154 54.1237 33.0669 52.6494 32.7216C48.7113 31.7886 44.6288 31.4174 40.5876 31.3247C36.2835 31.2267 31.9536 31.4741 27.7061 32.201C26.0412 32.4845 24.3814 32.8504 22.768 33.3762C21.5464 33.7731 20.3092 34.2525 19.2268 34.9484C18.3608 35.5051 17.5412 36.2216 17.1752 37.2113C16.8659 38.0463 17.0309 38.9793 17.5206 39.7061C18.1237 40.5979 19.0515 41.2319 19.9896 41.7164C21.2422 42.3659 22.5927 42.8247 23.9484 43.2009C27.701 44.237 31.6391 44.6649 35.5206 44.8401C36.6391 44.8917 37.7577 44.9123 38.8814 44.9174C40.134 44.9174 40.134 42.9741 38.8814 42.9741C34.9484 42.9741 30.9897 42.7061 27.1288 41.9484C25.6391 41.6546 24.1598 41.2937 22.7319 40.7886C22.4433 40.6855 22.1598 40.5772 21.8762 40.4638C21.6134 40.3607 21.9793 40.5102 21.8247 40.4432C21.7577 40.4174 21.6958 40.3865 21.6288 40.3556C21.4793 40.2886 21.3299 40.2164 21.1804 40.1442C20.7216 39.9174 20.2835 39.6649 19.8659 39.3711C19.634 39.2113 19.969 39.469 19.7628 39.2886C19.6855 39.2216 19.6134 39.1597 19.536 39.0927C19.469 39.0308 19.402 38.9638 19.335 38.8917C19.268 38.8195 19.0824 38.5412 19.2474 38.804C19.1649 38.67 19.0824 38.5205 18.9948 38.3865C18.902 38.2422 19.0567 38.6185 19.0206 38.4484C19.0154 38.4174 19 38.3917 18.9897 38.3659C18.9897 38.3556 18.9175 38.1133 18.9278 38.1082C18.9897 38.0927 18.9329 38.4071 18.9433 38.1958C18.9433 38.1649 18.9433 38.1391 18.9433 38.1082C18.9433 37.7989 18.9536 38.1082 18.9278 38.1082C18.9175 38.1082 18.969 37.9174 18.9742 37.8917C18.9845 37.8504 19.0051 37.804 19.0154 37.7628C19.0464 37.6082 18.9072 37.9638 18.9897 37.8247C19.0721 37.6855 19.1546 37.5463 19.2422 37.4071C19.0773 37.67 19.2319 37.4278 19.2886 37.3607C19.3659 37.2783 19.4433 37.1958 19.5257 37.1185C19.5979 37.0515 19.6752 36.9845 19.7525 36.9226C19.9484 36.7525 19.6443 36.9896 19.8556 36.8401C20.067 36.6906 20.2732 36.5566 20.4948 36.4278C20.7165 36.2989 20.9433 36.1803 21.1701 36.0669C21.3041 35.9999 21.4433 35.9381 21.5773 35.8762C21.6391 35.8453 21.7061 35.8195 21.7732 35.7886C21.9793 35.6958 21.6649 35.8298 21.8608 35.7525C23.2113 35.2164 24.6031 34.8144 26.0206 34.4948C29.7268 33.6597 33.536 33.3298 37.3299 33.2525C41.3195 33.17 45.3505 33.3659 49.2886 34.0205C50.8762 34.2834 52.4536 34.6185 53.9948 35.0875C54.634 35.2834 55.2628 35.5051 55.8866 35.7525C56.1546 35.8607 55.7164 35.6752 55.9742 35.7886C56.0257 35.8092 56.0773 35.835 56.1288 35.8556C56.268 35.9174 56.402 35.9793 56.5412 36.0463C56.7835 36.1649 57.0206 36.2886 57.2525 36.4226C57.4639 36.5463 57.6649 36.6752 57.8659 36.8144C57.9123 36.8453 57.9536 36.8762 57.9948 36.9123C57.7938 36.768 57.9226 36.8556 57.969 36.8968C58.0567 36.9741 58.1494 37.0515 58.2371 37.1339C58.3041 37.201 58.3711 37.2628 58.4329 37.335C58.4948 37.4071 58.6649 37.67 58.5 37.402C58.5876 37.5412 58.6649 37.7061 58.7628 37.8401C58.4896 37.4587 58.9278 38.0669 58.8144 38.0979C58.7886 38.103 58.8092 37.8195 58.7938 37.969C58.7938 38.0102 58.7938 38.0566 58.7938 38.0979C58.7938 38.1288 58.7938 38.1546 58.7938 38.1855C58.8041 38.4174 58.8505 38.0051 58.8041 38.1443C58.7783 38.2113 58.768 38.2886 58.7525 38.3556C58.7474 38.3865 58.7268 38.4123 58.7216 38.4381C58.6907 38.603 58.8453 38.2319 58.7474 38.3762C58.7061 38.4432 58.6752 38.5205 58.634 38.5875C58.5876 38.67 58.3711 38.9174 58.5824 38.6803C58.4587 38.8195 58.3453 38.9587 58.2061 39.0824C58.134 39.1494 58.0567 39.2164 57.9793 39.2783C57.9484 39.304 57.9123 39.3298 57.8814 39.3556C58.1031 39.1752 57.8711 39.3607 57.8195 39.3968C57.402 39.6958 56.9484 39.9432 56.4896 40.17C56.3659 40.2319 56.2422 40.2886 56.1134 40.3453C56.0618 40.3659 56.0103 40.3917 55.9587 40.4123C55.6958 40.5257 56.1391 40.3401 55.8711 40.4484C55.5567 40.5721 55.2422 40.6958 54.9226 40.804C54.2422 41.0412 53.5567 41.2422 52.8608 41.4226C49.3453 42.3401 45.6958 42.7319 42.0721 42.8865C41 42.9329 39.9329 42.9535 38.8608 42.9535C37.6082 42.9535 37.6082 44.8968 38.8608 44.8968L38.8917 44.9123Z" fill="white"/>
<path d="M50.5566 19.1548C51.5721 19.1548 52.5979 19.2579 53.603 19.3816C53.6752 19.3919 54.0721 19.4435 53.7731 19.4023C53.8865 19.4177 53.9999 19.4332 54.1133 19.4487C54.3762 19.4899 54.6442 19.5311 54.9071 19.5724C55.469 19.6703 56.0308 19.7785 56.5875 19.9023C57.8453 20.1806 59.0875 20.5311 60.2989 20.9641C62.8401 21.8713 65.4535 23.2992 67.4381 25.227C68.7577 26.5105 69.737 27.9126 70.67 29.5311C71.5463 31.0569 72.2319 32.66 72.7009 34.3559C72.8968 35.0672 73.0618 35.794 73.1906 36.5208C73.2216 36.6858 73.2473 36.8456 73.2731 37.0105C73.2886 37.1084 73.304 37.2012 73.3144 37.2992C73.3144 37.3146 73.3607 37.6239 73.3298 37.4177C73.3762 37.7528 73.4123 38.0878 73.4484 38.4229C73.5618 39.5517 73.6133 40.6909 73.737 41.8198C73.8504 42.8559 74.0308 43.8249 74.4896 44.7631C75.103 46.0054 75.9896 47.1188 76.8504 48.2012C77.7576 49.3404 78.7113 50.4332 79.6288 51.5621C79.8144 51.7889 79.9948 52.0105 80.17 52.2425C80.0412 52.0775 80.2886 52.4023 80.3247 52.4538C80.4071 52.5672 80.4948 52.6858 80.5721 52.8043C80.6906 52.9796 80.8092 53.1548 80.9123 53.3456C80.9278 53.3713 81.036 53.5517 81.0257 53.5672C80.9793 53.6188 80.9484 53.2992 80.9845 53.4744C80.9896 53.5054 81.0051 53.5775 81.0205 53.6033C80.8298 53.3353 81.1185 53.5054 81.0051 53.5775C81.036 53.5569 80.9071 53.9487 81.0051 53.6084C80.9948 53.6548 80.9845 53.7012 80.9741 53.7425C80.9587 53.7992 80.8659 53.995 80.9793 53.7631C80.9535 53.8146 80.9329 53.8662 80.902 53.9126C80.8711 53.959 80.8401 54.0054 80.8144 54.0569C80.7267 54.2115 80.9484 53.9332 80.7783 54.0981C80.6855 54.1858 80.5927 54.2734 80.4999 54.3662C80.4638 54.3971 80.3556 54.4693 80.5257 54.3507C80.4638 54.392 80.4071 54.4383 80.3453 54.4796C80.1082 54.6394 79.8556 54.7734 79.603 54.9023C78.5927 55.4074 77.4587 55.7476 76.6082 56.5208C75.4381 57.5827 75.737 59.3301 76.1339 60.6909C76.335 61.3868 76.6236 62.0621 76.7989 62.7682C76.8092 62.8146 76.8195 62.861 76.835 62.9126C76.8659 63.026 76.8144 63.1342 76.8401 62.9074C76.8401 62.9435 76.8453 62.9796 76.8401 63.0157C76.8247 63.2682 76.8865 62.6342 76.9278 62.7373C76.9432 62.7734 76.6855 63.0878 76.7886 62.9641C76.6546 63.1291 76.5102 63.2785 76.3711 63.4332C75.835 64.0157 75.1597 64.6909 75.1803 65.5466C75.1958 66.2012 75.4948 66.8507 75.6752 67.4641C75.7216 67.6342 75.768 67.7992 75.8092 67.9693C75.8298 68.0672 75.8504 68.1703 75.8711 68.2682C75.9329 68.5724 75.8711 68.1703 75.8814 68.3456C75.8865 68.4229 75.8917 68.495 75.8917 68.5724C75.8917 68.6239 75.8453 68.8765 75.8968 68.6497C75.8711 68.7579 75.8401 68.861 75.7989 68.9693C75.768 69.0466 75.737 69.1291 75.7061 69.2064C75.8195 68.9023 75.6958 69.227 75.6649 69.2889C75.5618 69.5054 75.4381 69.7167 75.304 69.9177C75.2628 69.9796 75.2216 70.0363 75.1803 70.093C75.3092 69.9177 75.2061 70.0569 75.17 70.0981C75.0721 70.2012 74.9793 70.3095 74.8762 70.4074C74.8247 70.4538 74.5412 70.6909 74.6958 70.5724C74.5566 70.6806 74.4071 70.7734 74.2576 70.861C74.1958 70.8971 73.8607 71.0569 73.9845 71.0054C73.8298 71.0672 73.67 71.1239 73.5051 71.1651C73.0876 71.2785 72.8298 71.3095 72.3865 71.3198C70.9793 71.3507 69.5824 71.1703 68.1752 71.2064C66.768 71.2425 65.3607 71.4383 64.3143 72.3713C63.1803 73.3868 63.1185 74.9383 63.1391 76.3507C63.1494 77.0363 63.1906 77.7219 63.2061 78.4074C63.2113 78.7167 63.2164 79.026 63.2061 79.3353C63.2061 79.5002 63.1958 79.6651 63.1855 79.8301C63.1803 79.9023 63.1752 79.9796 63.17 80.0518C63.17 80.0827 63.1288 80.3868 63.1442 80.2682C63.1649 80.1188 63.1185 80.3971 63.1236 80.392C63.1082 80.4744 63.0927 80.5569 63.0721 80.6394C63.0412 80.7734 63.0051 80.9126 62.9638 81.0414C62.9432 81.1033 62.7937 81.4693 62.8865 81.2734C62.8144 81.4229 62.7422 81.5672 62.6546 81.7064C62.6082 81.7785 62.5618 81.8456 62.5154 81.9126C62.5412 81.8816 62.6339 81.7786 62.5154 81.9126C62.4174 82.0208 62.3247 82.1239 62.2164 82.2218C62.1494 82.2837 62.0824 82.3404 62.0154 82.3971C62.1494 82.294 61.9845 82.4126 61.9484 82.4383C61.7783 82.5414 61.6082 82.6445 61.4329 82.7322C61.1185 82.892 60.5927 83.0466 60.1442 83.1394C59.9896 83.1703 59.8298 83.2012 59.6752 83.227C59.5824 83.2425 59.4845 83.2579 59.3917 83.2734C59.3453 83.2786 59.304 83.2889 59.2576 83.294C58.9845 83.3352 59.4174 83.2734 59.237 83.294C58.2783 83.4074 57.3247 83.4847 56.3607 83.5311C53.8917 83.6548 51.4174 83.6342 48.9535 83.5414C47.6442 83.4899 46.335 83.4126 45.0257 83.3095C44.4123 83.2579 43.7937 83.2012 43.1803 83.1342C42.871 83.1033 42.5618 83.0672 42.2525 83.026C42.1133 83.0105 41.9793 82.9899 41.8401 82.9744C41.7834 82.9693 41.7319 82.959 41.6752 82.9538C41.9278 82.9847 41.5772 82.9383 41.5308 82.9332C40.4896 82.7889 39.4535 82.6136 38.4329 82.3662C38.0257 82.2682 37.6185 82.16 37.2164 82.026C37.036 81.9641 36.8556 81.9023 36.6752 81.8353C36.6442 81.8249 36.6133 81.8095 36.5824 81.7992C36.4071 81.7373 36.804 81.9023 36.6391 81.8249C36.5566 81.7837 36.4741 81.7528 36.3968 81.7115C36.2731 81.6497 36.1546 81.5878 36.0412 81.5157C35.9896 81.4847 35.9381 81.4435 35.8865 81.4126C35.7113 81.3043 36.0669 81.5981 35.8968 81.4177C35.8556 81.3765 35.8092 81.3249 35.768 81.2889C35.6236 81.1703 35.9277 81.5054 35.8195 81.3507C35.7989 81.3198 35.7834 81.2579 35.7525 81.2373C35.6803 81.1806 35.7937 81.4487 35.7937 81.3301C35.7937 81.2682 35.7422 81.1806 35.7267 81.1188C35.7009 81.026 35.6906 80.727 35.6958 81.0311C35.6958 80.9383 35.6855 80.8456 35.6855 80.7528C35.6855 80.6961 35.6958 80.6445 35.6958 80.5878C35.6803 80.8713 35.67 80.7322 35.6958 80.66C35.7267 80.5569 35.7576 80.4487 35.7834 80.3456C35.804 80.2785 35.8762 80.1548 35.7576 80.3971C35.7834 80.3456 35.804 80.294 35.8298 80.2425C35.8711 80.1548 35.9226 80.0724 35.969 79.9899C36.0824 79.794 36.2164 79.6136 36.3504 79.4332C36.5102 79.2115 36.2628 79.5363 36.4381 79.3198C36.5102 79.2322 36.5772 79.1445 36.6494 79.0569C36.8195 78.8456 36.9948 78.6342 37.1597 78.4177C37.536 77.9383 37.902 77.4538 38.2061 76.928C38.9226 75.6909 39.2937 74.2837 39.2628 72.8507C39.2061 69.9538 38.1803 66.8043 36.2422 64.6188C35.9329 64.2734 35.5927 63.9383 35.2061 63.6806C34.7731 63.3868 34.1288 63.5981 33.8762 64.0311C33.5979 64.5105 33.7886 65.0672 34.2267 65.361C34.2525 65.3765 34.2783 65.3971 34.2989 65.4126C33.9484 65.1239 34.237 65.3713 34.3247 65.4435C34.5721 65.6651 34.804 65.9074 35.0154 66.1651C35.0772 66.2373 35.237 66.4538 35.0927 66.2579C35.1752 66.3662 35.2576 66.4796 35.335 66.5878C35.4948 66.8198 35.6494 67.0621 35.7886 67.3095C36.1649 67.9693 36.371 68.4435 36.5979 69.1033C36.8917 69.9641 37.0979 70.8559 37.2319 71.7528C37.2834 72.1188 37.3195 72.4847 37.3247 72.8507C37.3247 73.0466 37.3247 73.2373 37.3143 73.4332C37.3143 73.5157 37.304 73.6033 37.2937 73.6858C37.2886 73.7528 37.2783 73.8198 37.2731 73.8816C37.2834 73.7992 37.2834 73.794 37.2731 73.861C37.2216 74.1806 37.1494 74.4899 37.0515 74.7992C37.0051 74.9383 36.9535 75.0724 36.9071 75.2064C36.8092 75.4693 36.9948 75.0363 36.871 75.2837C36.835 75.361 36.7989 75.4332 36.7628 75.5105C36.5051 76.026 36.1855 76.5054 35.8401 76.9693C35.8143 77.0002 35.6597 77.2012 35.8092 77.0054C35.7731 77.0517 35.7319 77.1033 35.6958 77.1497C35.6133 77.2528 35.5308 77.3559 35.4484 77.459C35.2937 77.6548 35.1339 77.8456 34.9793 78.0466C34.6649 78.4487 34.3453 78.8507 34.1236 79.3146C33.6752 80.2425 33.5669 81.3816 34.1236 82.3043C34.469 82.8765 35.0824 83.2425 35.6752 83.5053C36.4948 83.8662 37.3556 84.1136 38.2319 84.3095C40.603 84.8404 43.0463 85.0981 45.469 85.2785C48.0875 85.4796 50.7216 85.5672 53.3504 85.5517C55.5308 85.5363 57.7216 85.4641 59.8814 85.1445C60.871 85.0002 61.8556 84.7528 62.7267 84.2373C63.9845 83.495 64.7783 82.2476 65.0154 80.8146C65.2525 79.3816 65.1236 77.995 65.0927 76.5775C65.0875 76.2579 65.0824 75.9383 65.0927 75.6239C65.0927 75.4487 65.103 75.2785 65.1185 75.1033C65.1236 75.026 65.1288 74.9487 65.1391 74.8713C65.1546 74.7476 65.1546 74.7373 65.1391 74.8404C65.1494 74.7786 65.1597 74.7167 65.1752 74.66C65.2061 74.5208 65.2473 74.3816 65.2989 74.2476C65.2267 74.4435 65.3865 74.1033 65.4123 74.0518C65.4381 74.0105 65.5927 73.8249 65.4381 74.0002C65.469 73.9641 65.4999 73.9229 65.536 73.8868C65.5875 73.8353 65.6494 73.7837 65.6958 73.7322C65.8143 73.6033 65.5618 73.8043 65.768 73.6806C65.8865 73.6084 66.0102 73.5466 66.1339 73.4744C66.2834 73.3868 66.1546 73.4641 66.1185 73.4744C66.1906 73.4435 66.268 73.4177 66.3453 73.392C66.6391 73.294 66.9432 73.2322 67.2525 73.1858C67.0308 73.2167 67.3247 73.1806 67.3504 73.1755C67.4432 73.1652 67.5308 73.16 67.6236 73.1497C67.7783 73.1394 67.9381 73.1291 68.0927 73.1239C68.4484 73.1136 68.804 73.1136 69.1597 73.1239C70.7009 73.16 72.304 73.4126 73.8247 73.0621C75.2164 72.7425 76.4071 71.8559 77.1391 70.6291C77.3814 70.227 77.5772 69.7837 77.7216 69.3404C77.9587 68.6188 77.804 67.8249 77.6133 67.1136C77.5154 66.7528 77.3968 66.4023 77.2886 66.0466C77.2473 65.9126 77.2061 65.7734 77.17 65.6342C77.1546 65.5672 77.1442 65.495 77.1236 65.4229C77.0618 65.2115 77.1597 65.6394 77.1339 65.459L77.1133 65.5827C77.1443 65.4847 77.1391 65.4899 77.0979 65.5981C77.1288 65.5311 77.17 65.4744 77.2061 65.4074C77.2216 65.3765 77.3401 65.2218 77.2577 65.3301C77.3195 65.2476 77.3917 65.1651 77.4638 65.0878C77.7216 64.7992 77.9948 64.5208 78.237 64.2218C78.5205 63.8713 78.7577 63.5311 78.7886 63.0672C78.8092 62.7785 78.7525 62.4899 78.6803 62.2115C78.5051 61.5054 78.2164 60.8301 78.0154 60.1342C77.9123 59.7734 77.8144 59.4074 77.7628 59.0311C77.7834 59.1858 77.7473 58.8301 77.7473 58.8507C77.7422 58.7425 77.737 58.6342 77.737 58.526C77.737 58.4538 77.737 58.3816 77.7422 58.3146C77.7525 58.1136 77.7267 58.3404 77.768 58.1497C77.8247 57.9023 77.67 58.2889 77.7989 58.0724C77.9277 57.8559 77.67 58.1703 77.8556 57.9899C77.8968 57.9487 78.1391 57.7322 78.036 57.8146C77.9071 57.9177 78.0824 57.7837 78.0979 57.7734C78.1752 57.7219 78.2525 57.6703 78.3298 57.6239C79.2937 57.0466 80.3968 56.7476 81.335 56.1239C82.3298 55.4641 83.2783 54.2579 82.8865 52.9847C82.5721 51.9538 81.7319 51.0517 81.0669 50.2322C79.2886 48.0414 77.3556 46.1394 76.1082 43.6239C76.0824 43.5724 75.9948 43.3352 76.0979 43.6084C76.0824 43.5672 76.0618 43.526 76.0515 43.4847C76.0205 43.3868 75.9845 43.294 75.9535 43.1961C75.8917 42.9899 75.8453 42.7785 75.7989 42.5672C75.7783 42.4641 75.7628 42.361 75.7422 42.2631C75.7319 42.2012 75.7216 42.1342 75.7113 42.0724C75.6752 41.8456 75.737 42.3043 75.7113 42.0724C75.6855 41.8198 75.6546 41.5672 75.6288 41.3095C75.5205 40.0981 75.4587 38.8868 75.3092 37.6806C74.8865 34.2064 73.8195 30.9074 71.9793 27.9177C71.0051 26.3352 69.8762 24.8146 68.5102 23.5466C67.3762 22.495 66.0979 21.593 64.7525 20.8352C60.7061 18.5724 55.969 17.459 51.3556 17.2167C51.0875 17.2012 50.8195 17.1909 50.5515 17.1909C49.2989 17.1909 49.2989 19.1342 50.5515 19.1342L50.5566 19.1548Z" fill="white"/>
</g>
<defs>
<clipPath id="clip0_50_33792">
<rect width="100" height="100" fill="white"/>
</clipPath>
</defs>
</svg>
