<svg width="100" height="100" viewBox="0 0 100 100" fill="none" xmlns="http://www.w3.org/2000/svg">
<g clip-path="url(#clip0_50_33756)">
<path d="M50 100C77.6142 100 100 77.6142 100 50C100 22.3858 77.6142 0 50 0C22.3858 0 0 22.3858 0 50C0 77.6142 22.3858 100 50 100Z" fill="#3078F6"/>
<path d="M85.861 40.0568C88.2682 47.6702 88.1651 55.8506 85.5671 63.3455C83.3506 69.7475 79.2939 75.4692 74.0053 79.7836C71.1548 82.1084 67.6857 84.1238 64.2579 85.4589C63.7063 85.6754 63.3249 86.196 63.495 86.8042C63.6393 87.33 64.2888 87.7836 64.8403 87.5671C71.6393 84.9176 77.5568 80.4537 81.9692 74.6393C86.3816 68.8249 89.0362 61.7733 89.6548 54.5053C90.0877 49.4486 89.5053 44.3042 87.9743 39.4692C87.7939 38.9073 87.2115 38.5413 86.629 38.7063C86.0723 38.8609 85.6857 39.4898 85.8661 40.0517L85.861 40.0568Z" fill="white"/>
<path d="M14.1702 62.1755C13.397 59.4796 12.7785 56.7116 12.5104 53.9178C12.2785 51.4951 12.3609 49.0466 12.6548 46.6291C13.1599 42.4951 14.5156 38.1497 16.4537 34.4229C18.3919 30.6961 20.9537 27.2941 24.1135 24.3559C27.2012 21.4848 30.7888 19.1446 34.7475 17.4538C34.8816 17.3971 35.0929 17.3095 35.3249 17.2167C35.5877 17.1136 35.8506 17.0105 36.1187 16.9075C36.6341 16.7167 37.1496 16.5363 37.6702 16.3662C38.7218 16.026 39.7888 15.727 40.8661 15.4796C43.0774 14.9693 45.0774 14.7013 47.3403 14.5982C47.9176 14.5724 48.495 14.5621 49.0723 14.5569C50.4795 14.5569 50.4847 12.3611 49.0723 12.3662C44.428 12.3765 39.7733 13.191 35.4228 14.8353C31.0723 16.4796 27.263 18.7528 23.8094 21.691C20.4176 24.5776 17.5259 28.0776 15.3094 31.9384C13.0929 35.7992 11.4898 40.1961 10.7424 44.66C10.3455 47.0363 10.129 49.459 10.1857 51.8662C10.263 54.8456 10.7939 57.8301 11.5104 60.7167C11.6805 61.3972 11.8609 62.0776 12.0517 62.7477C12.4383 64.1033 14.5517 63.526 14.1651 62.1652L14.1702 62.1755Z" fill="white"/>
<path d="M16.6444 67.9025L18.1753 61.6809C18.397 60.784 17.464 60.0469 16.6444 60.4592L9.08255 64.2634C8.25265 64.6809 8.3042 65.8819 9.16502 66.2273L15.1959 68.6397C15.8042 68.8819 16.4898 68.5314 16.6444 67.8974V67.9025Z" fill="white"/>
<path d="M83.299 34.0001L81.732 40.3764C81.5206 41.2321 82.4124 41.9382 83.1959 41.5413L90.9433 37.6393C91.7371 37.2372 91.6856 36.0929 90.8608 35.763L84.6804 33.2888C84.0979 33.0568 83.4433 33.3918 83.2938 34.0001H83.299Z" fill="white"/>
<path d="M50.2886 82.2169C33.1649 82.2169 19.2319 68.2839 19.2319 51.1602C19.2319 34.0365 33.1649 20.1035 50.2886 20.1035C67.4123 20.1035 81.3453 34.0365 81.3453 51.1602C81.3453 68.2839 67.4123 82.2169 50.2886 82.2169ZM50.2886 22.6808C34.5876 22.6808 21.8093 35.4592 21.8093 51.1602C21.8093 66.8612 34.5876 79.6396 50.2886 79.6396C65.9897 79.6396 78.768 66.8612 78.768 51.1602C78.768 35.4592 65.9897 22.6808 50.2886 22.6808Z" fill="white"/>
<path d="M48.1134 45.0208C44.366 45.0208 40.3093 43.3043 37.933 40.526C36.1031 38.392 35.5825 36.0002 36.4639 33.794C38.2268 29.3817 45.5361 29.9229 50.3712 30.2786C51.2887 30.3456 52.0877 30.4074 52.6083 30.4074C53.8248 30.4074 54.2475 29.1858 54.6908 26.6188C54.7784 26.1085 54.8609 25.6291 54.9691 25.1961C55.665 22.4074 58.9536 21.5878 59.0928 21.5518L59.6959 24.0569L59.3918 22.8043L59.7011 24.0569C59.7011 24.0569 57.7784 24.5724 57.4691 25.825C57.3866 26.16 57.3093 26.5982 57.232 27.0569C56.8505 29.2734 56.2165 32.9899 52.6134 32.9899C51.9949 32.9899 51.1547 32.928 50.1856 32.8559C46.8557 32.6085 39.9227 32.0981 38.8609 34.7579C38.2114 36.3868 39.0619 37.8868 39.8918 38.8559C41.9021 41.2064 46.2371 43.1136 50.0052 42.2425C52.4485 41.6806 54.4949 40.4384 56.4691 39.2373C59.4227 37.4435 62.4794 35.5878 66.3557 36.6445C72.1186 38.2167 79.4588 42.4332 79.7732 42.6136L78.4846 44.8456C78.4124 44.8043 71.1186 40.6188 65.6804 39.1342C62.8712 38.3662 60.6392 39.727 57.8145 41.4435C55.7629 42.6909 53.4382 44.0982 50.5928 44.7579C49.8042 44.9384 48.9743 45.026 48.1289 45.026L48.1134 45.0208Z" fill="white"/>
<path d="M49.7372 82.0929C44.3712 79.5517 40.397 72.2115 41.5567 66.9898C42.7939 61.428 48.6805 62.2991 52.2011 62.8146L52.7887 62.9022C55.8196 63.3352 56.3454 62.6239 57.2526 60.9795L57.5 60.5208C58.6495 58.3867 60.3866 55.1548 64.9794 55.1548C67.0207 55.1548 68.7269 56.0878 69.7681 57.7785C70.8763 59.5672 71.0774 62.0672 70.2526 63.7166C69.8299 64.562 69.8248 65.1084 69.9279 65.2733C69.9846 65.3661 70.232 65.4589 70.6495 65.4589C72.5413 65.4589 75.7939 64.7218 75.8248 64.7166L76.397 67.2321C76.2526 67.263 72.8299 68.0362 70.6495 68.0362C68.8712 68.0362 68.0619 67.1548 67.7372 66.629C67.0877 65.5775 67.165 64.1342 67.9485 62.562C68.3248 61.8094 68.2887 60.2837 67.5774 59.129C67 58.196 66.1289 57.7269 64.9794 57.7269C61.9279 57.7269 60.8299 59.763 59.7732 61.7373C59.6856 61.9022 59.598 62.062 59.5155 62.2166C58.1083 64.7682 56.5671 66.0362 52.4279 65.4486L51.8248 65.361C47.7062 64.7527 44.7372 64.5568 44.0722 67.5465C43.1598 71.6599 46.5104 77.7115 50.8403 79.763L49.7372 82.0929Z" fill="white"/>
<path d="M38.933 78.1238L36.3557 78.1084L37.6444 78.1187H36.3557C36.3557 78.1187 36.3196 76.0001 34.6856 74.3661C32.1598 71.8403 32.6031 67.5826 34.6083 65.1908C35.4691 64.1651 36.2938 62.5774 36.0258 61.2115C35.8248 60.2011 35.0207 59.3197 33.6392 58.5981C32.4382 57.9692 31.1186 57.8558 29.9588 57.7527C28.5928 57.6341 27.3042 57.5207 26.5361 56.5259C26.0722 55.9279 25.9176 55.1341 26.0825 54.1651C26.3815 52.3764 27.5413 51.062 28.665 49.7888C29.8454 48.4537 30.9536 47.1908 31.2011 45.3867C31.232 45.1548 31.3299 44.4486 29.9227 43.8816C27.6444 42.9589 23.6753 43.4486 22.299 45.3249L20.2217 43.7991C22.366 40.8764 27.6186 40.1702 30.8866 41.4898C32.9279 42.3145 34 43.897 33.7526 45.7269C33.4072 48.3042 31.9124 50.0001 30.598 51.4898C29.6341 52.5826 28.8042 53.5259 28.6237 54.5877C28.5928 54.7682 28.5928 54.8816 28.598 54.9434C28.866 55.0671 29.6237 55.1341 30.1856 55.1805C31.5206 55.2991 33.1856 55.4434 34.8402 56.3094C36.9485 57.4125 38.2011 58.8919 38.5567 60.7063C39.1031 63.4743 37.3609 65.9228 36.5877 66.8455C35.4897 68.1547 34.9279 70.9589 36.5103 72.5413C38.9227 74.9537 38.933 77.995 38.933 78.1238Z" fill="white"/>
</g>
<defs>
<clipPath id="clip0_50_33756">
<rect width="100" height="100" fill="white"/>
</clipPath>
</defs>
</svg>
