<svg width="100" height="100" viewBox="0 0 100 100" fill="none" xmlns="http://www.w3.org/2000/svg">
<g clip-path="url(#clip0_48_33646)">
<path d="M50 100C77.6142 100 100 77.6142 100 50C100 22.3858 77.6142 0 50 0C22.3858 0 0 22.3858 0 50C0 77.6142 22.3858 100 50 100Z" fill="#3078F6"/>
<path d="M34.1495 31.8507C36.3299 32.3455 38.5104 32.8404 40.6959 33.3404C41.0052 33.4126 41.3196 33.4796 41.6289 33.5517L40.9176 32.2991C40.2372 34.227 39.5567 36.1497 38.8763 38.0775C38.6908 38.5981 39.0825 39.1909 39.5877 39.3301C40.1495 39.4847 40.6598 39.1394 40.8403 38.6187C41.5207 36.6909 42.2011 34.7682 42.8815 32.8404C43.0567 32.3352 42.6805 31.7012 42.1701 31.5878C39.9897 31.093 37.8093 30.5981 35.6238 30.0981C35.3145 30.026 35 29.9589 34.6908 29.8868C34.1547 29.7631 33.5877 30.0517 33.4382 30.5981C33.299 31.1136 33.6134 31.7321 34.1495 31.8507Z" fill="white"/>
<path d="M31.5309 79.2992H12.5V65.3662H31.5309V79.2992ZM14.8814 76.9178H29.1546V67.7425H14.8814V76.9178Z" fill="white"/>
<path d="M52.9434 79.2992H34.2476V59.5879H52.9434V79.2992ZM36.629 76.9178H50.562V61.9642H36.629V76.9178Z" fill="white"/>
<path d="M75.7165 79.9794H56.6855V49.2217H75.7165V79.9794ZM59.0618 77.598H73.335V51.598H59.0618V77.598Z" fill="white"/>
<path d="M87.4999 51.098L44.8813 50.7733L45.1545 49.7217C47.5824 40.3248 56.2061 33.7578 66.1288 33.7578C76.0514 33.7578 85.1236 40.4588 87.2679 50.0568L87.4999 51.098ZM47.103 49.0877L85.3401 49.3815C82.9948 41.1289 75.2473 35.4537 66.1236 35.4537C56.9999 35.4537 49.6855 41.0052 47.0978 49.0877H47.103Z" fill="white"/>
<path d="M66.5567 38.8194C66.4175 38.8194 66.2731 38.8143 66.1288 38.7988C63.2216 38.5256 62.2886 35.5359 62.2525 35.4122L61.9175 34.2988L70.7886 34.438L70.8195 35.2421C70.8453 35.9483 70.3814 36.8658 69.6288 37.5823C68.7783 38.3916 67.701 38.8194 66.5567 38.8194ZM64.4742 36.0359C64.8556 36.5359 65.4381 37.0256 66.2886 37.103C67.2628 37.1957 67.9639 36.7834 68.3762 36.4174C68.5 36.3091 68.603 36.2009 68.6907 36.0978L64.4742 36.0308V36.0359Z" fill="white"/>
<path d="M66.5876 50.6961L62.4536 47.2682L66.5928 37.3301L70.2474 47.2476L66.5876 50.6961ZM64.5103 46.7579L66.5206 48.428L68.2732 46.7785L66.5052 41.9796L64.5155 46.7579H64.5103Z" fill="white"/>
<path d="M17.1184 57.7219C18.2936 55.4178 19.6699 53.1962 21.1029 51.0415C21.7524 50.0673 22.4225 49.1034 23.1132 48.1601C23.9019 47.0879 24.5307 46.2735 25.4173 45.2116C27.108 43.1859 28.9431 41.258 30.9843 39.5776C31.273 39.3405 31.5462 39.124 31.7266 38.99C32.0153 38.7683 32.3091 38.557 32.608 38.3508C33.1647 37.9642 33.7421 37.5982 34.3349 37.2632C34.9276 36.9281 35.5513 36.6085 36.1905 36.3405C36.0204 36.4127 36.1699 36.3508 36.2008 36.3405C36.2885 36.3096 36.3709 36.2735 36.4586 36.2374C36.6287 36.1704 36.7988 36.1085 36.974 36.0518C37.2885 35.9436 37.6029 35.8508 37.9276 35.7632C39.1957 35.423 38.6544 33.4539 37.3864 33.7993C32.2885 35.1652 28.0977 39.0312 24.7163 42.9178C21.6802 46.4075 19.0359 50.2529 16.7163 54.2529C16.2472 55.057 15.7885 55.8663 15.3658 56.6962C15.1184 57.1859 15.2369 57.8044 15.7318 58.0931C16.1854 58.3611 16.8761 58.2219 17.1287 57.7271L17.1184 57.7219Z" fill="white"/>
<path d="M66.2837 31.8867C60.1909 31.8867 55.2373 26.9331 55.2373 20.8403C55.2373 14.7476 60.1909 9.79395 66.2837 9.79395C72.3765 9.79395 77.3301 14.7476 77.3301 20.8403C77.3301 26.9331 72.3765 31.8867 66.2837 31.8867ZM66.2837 11.8352C61.3198 11.8352 57.2785 15.8764 57.2785 20.8403C57.2785 25.8043 61.3198 29.8455 66.2837 29.8455C71.2476 29.8455 75.2888 25.8043 75.2888 20.8403C75.2888 15.8764 71.2476 11.8352 66.2837 11.8352Z" fill="white"/>
</g>
<defs>
<clipPath id="clip0_48_33646">
<rect width="100" height="100" fill="white"/>
</clipPath>
</defs>
</svg>
