<svg width="24" height="24" viewBox="0 0 24 24" fill="none" xmlns="http://www.w3.org/2000/svg">
<g clip-path="url(#clip0_51_34671)">
<path d="M12 24C18.6274 24 24 18.6274 24 12C24 5.37258 18.6274 0 12 0C5.37258 0 0 5.37258 0 12C0 18.6274 5.37258 24 12 24Z" fill="#3078F6"/>
<path d="M20.6066 9.61395C21.1844 11.4412 21.1596 13.4045 20.5361 15.2032C20.0042 16.7397 19.0306 18.1129 17.7613 19.1484C17.0772 19.7063 16.2446 20.19 15.4219 20.5104C15.2895 20.5624 15.198 20.6873 15.2388 20.8333C15.2735 20.9595 15.4293 21.0684 15.5617 21.0164C17.1935 20.3805 18.6137 19.3092 19.6726 17.9137C20.7316 16.5183 21.3687 14.8259 21.5172 13.0816C21.6211 11.868 21.4813 10.6333 21.1139 9.47292C21.0706 9.33807 20.9308 9.25024 20.791 9.28982C20.6574 9.32694 20.5646 9.47787 20.6079 9.61271L20.6066 9.61395Z" fill="white"/>
<path d="M3.40082 14.922C3.21525 14.275 3.06679 13.6107 3.00246 12.9401C2.94679 12.3587 2.96659 11.7711 3.0371 11.1909C3.15834 10.1987 3.4837 9.15582 3.94886 8.26138C4.41401 7.36695 5.02886 6.55046 5.78721 5.8453C6.52824 5.15623 7.38927 4.59458 8.33937 4.18881C8.37154 4.1752 8.42226 4.15417 8.47793 4.1319C8.54102 4.10716 8.60411 4.08241 8.66844 4.05767C8.79216 4.0119 8.91587 3.9686 9.04082 3.92778C9.29319 3.84613 9.54927 3.77437 9.80783 3.71499C10.3385 3.59252 10.8185 3.52819 11.3616 3.50345C11.5002 3.49726 11.6388 3.49479 11.7773 3.49355C12.115 3.49355 12.1163 2.96654 11.7773 2.96778C10.6627 2.97025 9.54556 3.16571 8.50143 3.56035C7.45731 3.95499 6.54308 4.50056 5.71422 5.20571C4.9002 5.8985 4.20618 6.7385 3.67422 7.66509C3.14226 8.59169 2.75752 9.64695 2.57813 10.7183C2.48288 11.2886 2.43092 11.87 2.44453 12.4478C2.46308 13.1628 2.59051 13.8791 2.76246 14.5719C2.80329 14.7352 2.84659 14.8985 2.89236 15.0593C2.98515 15.3847 3.49236 15.2461 3.39958 14.9195L3.40082 14.922Z" fill="white"/>
<path d="M3.99446 16.296L4.36188 14.8028C4.41508 14.5876 4.19116 14.4107 3.99446 14.5096L2.17962 15.4226C1.98044 15.5228 1.99281 15.8111 2.19941 15.894L3.64683 16.4729C3.79281 16.5311 3.95735 16.447 3.99446 16.2948V16.296Z" fill="white"/>
<path d="M19.9916 8.16014L19.6155 9.69045C19.5648 9.89581 19.7788 10.0653 19.9668 9.97004L21.8262 9.03354C22.0167 8.93705 22.0043 8.66241 21.8064 8.58323L20.3231 7.98942C20.1833 7.93375 20.0262 8.01416 19.9903 8.16014H19.9916Z" fill="white"/>
<path d="M9.60733 7.78248C9.60733 7.62041 9.60486 7.4732 9.60733 7.32474C9.61599 6.84103 9.91784 6.46495 10.3756 6.36969C10.4548 6.35361 10.5389 6.35114 10.6205 6.35114C11.5385 6.35114 12.4564 6.3499 13.3743 6.35114C13.9867 6.35114 14.3863 6.75443 14.3875 7.37052C14.3875 7.50413 14.3875 7.63773 14.3875 7.78371C14.4444 7.78371 14.4877 7.78371 14.531 7.78371C15.2548 7.78371 15.9785 7.79608 16.7022 7.78C17.3096 7.76639 17.7364 8.2365 17.7327 8.81175C17.7216 10.8456 17.729 12.8781 17.7277 14.912C17.7277 15.4056 17.4209 15.7903 16.9533 15.8843C16.8741 15.9004 16.79 15.9017 16.7084 15.9017C13.5673 15.9017 10.4251 15.9017 7.28403 15.9017C6.663 15.9017 6.26465 15.5008 6.26465 14.8786C6.26465 12.8522 6.26465 10.827 6.26465 8.80062C6.26465 8.18577 6.66547 7.78495 7.27908 7.78495C8.0065 7.78495 8.73393 7.78495 9.46135 7.78495H9.60485L9.60733 7.78248ZM6.74217 11.4666V11.6052C6.74217 12.6913 6.74217 13.7763 6.74217 14.8625C6.74217 15.2361 6.9265 15.4217 7.2964 15.4217C10.43 15.4217 13.5649 15.4217 16.6985 15.4217C17.0684 15.4217 17.2527 15.2348 17.2527 14.8625C17.2527 13.7763 17.2527 12.6913 17.2527 11.6052C17.2527 11.5668 17.249 11.5272 17.2465 11.4703C17.0102 11.6151 16.7628 11.6014 16.5166 11.6002C15.3748 11.6002 14.2329 11.6002 13.091 11.6002H12.955C12.955 11.6596 12.955 11.7004 12.955 11.7412C12.955 11.9243 12.9574 12.1074 12.955 12.2893C12.9525 12.4526 12.8646 12.554 12.715 12.5553C12.2374 12.559 11.7599 12.559 11.2824 12.5553C11.1364 12.5553 11.0473 12.4563 11.0424 12.3004C11.0374 12.1594 11.0424 12.0171 11.0411 11.8748C11.0411 11.787 11.0411 11.6992 11.0411 11.599H10.8939C9.75207 11.599 8.61022 11.599 7.46836 11.599C7.22589 11.599 6.98217 11.6113 6.74341 11.4654L6.74217 11.4666ZM12.955 11.1239C13.0082 11.1239 13.0453 11.1239 13.0811 11.1239C14.2935 11.1239 15.5071 11.1239 16.7195 11.1239C17.0585 11.1239 17.2515 10.9297 17.2527 10.5882C17.2527 9.99072 17.2527 9.39443 17.2527 8.79691C17.2527 8.44928 17.0597 8.25876 16.7108 8.25876C13.5686 8.25876 10.4275 8.25876 7.28527 8.25876C6.93516 8.25876 6.74341 8.44804 6.74341 8.79691C6.74341 9.39443 6.74341 9.99072 6.74341 10.5882C6.74341 10.9309 6.9364 11.1239 7.27537 11.1239C8.49145 11.1239 9.70877 11.1239 10.9249 11.1239H11.0411C11.0411 11.0386 11.0374 10.968 11.0411 10.8975C11.0498 10.7392 11.1389 10.6489 11.2985 10.6489C11.7649 10.6464 12.2312 10.6464 12.6976 10.6489C12.856 10.6489 12.9463 10.7392 12.955 10.8975C12.9587 10.968 12.955 11.0386 12.955 11.1239ZM10.096 7.77382H13.9051C13.9051 7.60309 13.91 7.43856 13.9051 7.27526C13.8952 7.02784 13.6972 6.82866 13.4486 6.82742C12.4824 6.82371 11.5162 6.82371 10.55 6.82742C10.3249 6.82742 10.1195 7.00433 10.0997 7.21959C10.0836 7.40021 10.096 7.5833 10.096 7.77382ZM11.5273 12.074H12.4663V11.1313H11.5273V12.074Z" fill="white"/>
</g>
<defs>
<clipPath id="clip0_51_34671">
<rect width="24" height="24" fill="white"/>
</clipPath>
</defs>
</svg>
