<svg width="100" height="100" viewBox="0 0 100 100" fill="none" xmlns="http://www.w3.org/2000/svg">
<g clip-path="url(#clip0_48_33588)">
<path d="M50 100C77.6142 100 100 77.6142 100 50C100 22.3858 77.6142 0 50 0C22.3858 0 0 22.3858 0 50C0 77.6142 22.3858 100 50 100Z" fill="#3078F6"/>
<path d="M67.5003 71.3663C63.5673 69.423 59.7065 67.5106 55.7786 65.5724C55.6498 65.7889 55.5209 65.9642 55.423 66.1601C52.5054 72.1034 49.5982 78.0467 46.6807 83.9951C46.5518 84.2632 46.423 84.5312 46.2786 84.7889C46.0415 85.2168 45.6858 85.4487 45.2013 85.2322C44.6858 85.0003 44.6034 84.557 44.825 84.0827C45.3972 82.8663 45.9951 81.6549 46.5879 80.4487C49.2065 75.124 51.825 69.7941 54.4436 64.4693C54.8766 63.5879 55.191 63.459 56.057 63.9126C56.5364 64.1652 56.7632 64.0931 56.99 63.5982C57.6807 62.1085 58.4281 60.6446 59.1343 59.1549C60.0157 57.2992 61.4126 56.1394 63.4539 55.7116C68.258 54.7065 73.0518 53.6498 77.8508 52.6291C79.7838 52.2168 81.3869 52.8972 82.1755 54.423C83.1962 56.4023 82.2374 58.7786 80.0879 59.4797C78.8766 59.8766 77.624 60.1601 76.3869 60.4848C75.1291 60.8147 73.8663 61.1343 72.6085 61.459C72.5003 61.49 72.3869 61.5157 72.2786 61.5467C71.7425 61.6755 71.258 61.6601 71.0518 61.0312C70.8972 60.5621 71.2116 60.1549 71.8611 59.9797C72.9642 59.6807 74.0724 59.4075 75.1755 59.1137C76.6549 58.7219 78.1395 58.3508 79.6085 57.923C80.3766 57.7013 80.8147 57.1085 80.9436 56.3302C81.0724 55.557 80.7786 54.8611 80.1188 54.5106C79.6343 54.2528 78.9693 54.1085 78.4384 54.2065C76.0364 54.6498 73.6549 55.191 71.2632 55.7013C68.8302 56.2219 66.4023 56.7786 63.9642 57.258C62.4075 57.5621 61.3096 58.3817 60.6343 59.8095C59.923 61.3147 59.1962 62.8199 58.4436 64.3044C58.2013 64.7838 58.2838 65.0106 58.7683 65.2425C61.1704 66.4075 63.5673 67.5931 65.9487 68.7941C66.4075 69.026 66.6395 68.959 66.8353 68.49C67.392 67.1704 68.3972 66.4436 69.7992 66.1085C73.7271 65.1704 77.6395 64.1394 81.5673 63.2013C82.6137 62.9487 83.2786 62.423 83.7529 61.4539C85.9384 56.959 88.1755 52.49 90.3972 48.0106C91.057 46.6755 90.7271 45.4539 89.5621 44.9333C88.5467 44.4797 87.4487 44.923 86.8817 46.0364C86.057 47.6652 85.2425 49.2992 84.423 50.9333C84.2992 51.1755 84.1858 51.4281 84.0415 51.6601C83.7992 52.0467 83.459 52.2632 83.0003 52.0467C82.5209 51.8199 82.4178 51.4023 82.6085 50.9487C82.8559 50.3611 83.1601 49.7992 83.4487 49.2271C84.1137 47.9023 84.7838 46.5776 85.459 45.2528C86.4281 43.3508 88.5364 42.6137 90.3869 43.5209C92.191 44.4075 92.9178 46.5415 91.99 48.4333C89.6498 53.2065 87.2735 57.9693 84.9075 62.7322C84.4023 63.7528 83.5673 64.3559 82.4487 64.6343C78.3044 65.6549 74.1704 66.7116 70.0209 67.7271C69.1034 67.9539 68.5879 68.526 68.2168 69.3456C68.0518 69.7116 68.1395 69.8663 68.4642 70.0415C69.6085 70.6549 69.6446 70.8147 69.0518 72.0106C67.0415 76.057 65.0312 80.1085 63.0209 84.1549C62.8869 84.423 62.8044 84.758 62.5879 84.9178C62.3353 85.1085 61.9436 85.2735 61.6498 85.2271C61.2168 85.1549 61.0724 84.7425 61.1704 84.3096C61.2168 84.1137 61.3096 83.9281 61.4023 83.7425C63.3456 79.8405 65.2889 75.9333 67.2271 72.0312C67.3147 71.8508 67.3869 71.6601 67.5054 71.3714L67.5003 71.3663Z" fill="white"/>
<path d="M32.4279 71.381C32.9176 72.3706 33.3661 73.2882 33.8248 74.2057C35.4021 77.3707 36.9846 80.5408 38.5619 83.7057C38.6547 83.8913 38.8197 84.0975 38.7939 84.2624C38.7372 84.5872 38.6341 85.0717 38.4176 85.1542C38.1496 85.2624 37.7269 85.082 37.4073 84.9377C37.2578 84.8707 37.1908 84.6026 37.098 84.417C34.9795 80.1696 32.8558 75.917 30.7424 71.6696C30.3558 70.8913 30.464 70.4892 31.2733 70.1438C31.8867 69.8861 31.9021 69.5923 31.6186 69.0614C31.2372 68.3449 30.7063 67.9119 29.9125 67.716C25.7887 66.7005 21.6753 65.649 17.5516 64.6387C16.3248 64.3397 15.4898 63.6335 14.9382 62.5253C12.6496 57.9016 10.3403 53.2882 8.08256 48.649C7.78359 48.0356 7.61864 47.2985 7.60834 46.6181C7.58256 45.0356 8.73205 43.6542 10.2424 43.2624C11.8351 42.85 13.5516 43.5047 14.3145 44.9274C15.3506 46.8603 16.3145 48.8294 17.2887 50.7882C17.5207 51.2521 17.5516 51.7469 16.9898 52.0253C16.4279 52.3036 16.0723 51.9841 15.8351 51.5098C14.897 49.6542 13.9795 47.7933 13.031 45.9428C12.531 44.9634 11.5259 44.5408 10.5619 44.8655C9.67535 45.1593 9.08256 46.082 9.22174 47.0098C9.26813 47.3191 9.38669 47.6284 9.53102 47.9119C11.763 52.4377 14.0207 56.948 16.2372 61.4789C16.696 62.4222 17.3454 62.9428 18.3712 63.1902C22.3661 64.149 26.3454 65.1851 30.3351 66.1542C31.6341 66.4686 32.5619 67.1799 33.0774 68.3964C33.3145 68.9531 33.5723 69.0098 34.1083 68.7366C36.4279 67.5562 38.7681 66.417 41.098 65.2624C41.2991 65.1645 41.4949 65.0459 41.7475 64.9067C41.6444 64.6542 41.5619 64.4222 41.4588 64.2006C40.7475 62.7212 40.0207 61.2418 39.3094 59.7624C38.665 58.4119 37.6341 57.5923 36.1599 57.2779C31.4692 56.2882 26.7836 55.2676 22.0929 54.2676C21.7784 54.2005 21.464 54.1387 21.1444 54.1129C20.1393 54.0304 19.2217 54.716 19.0207 55.6748C18.83 56.5923 19.3712 57.6129 20.3197 57.8964C21.763 58.3346 23.2269 58.6954 24.6805 59.0768C25.8042 59.3758 26.9331 59.6593 28.0619 59.9531C28.5929 60.0923 29.0207 60.3397 28.9073 60.9841C28.8197 61.4892 28.3712 61.7057 27.7063 61.5304C25.1186 60.8655 22.531 60.216 19.9588 59.4892C18.0877 58.9634 17.0156 57.0768 17.4537 55.2676C17.9176 53.3552 19.7011 52.1387 21.6599 52.5408C26.0413 53.4377 30.4125 54.3964 34.7887 55.3346C35.3454 55.4531 35.9021 55.5923 36.464 55.6954C38.5723 56.0768 39.9743 57.3243 40.8609 59.2315C41.5568 60.7212 42.2887 62.1902 43.0104 63.6696C43.0774 63.8088 43.1753 63.9377 43.2939 64.1335C43.5929 64.0047 43.8764 63.8758 44.1599 63.7521C44.6908 63.5201 45.1135 63.6645 45.3661 64.1696C46.098 65.6387 46.8145 67.1232 47.5259 68.6026C47.7681 69.1026 47.7269 69.5717 47.1753 69.814C46.6702 70.0356 46.2991 69.7882 46.0671 69.3088C45.5568 68.2624 45.0465 67.216 44.531 66.1748C44.4331 65.9789 44.3145 65.7882 44.1805 65.5511C40.2424 67.4995 36.3661 69.417 32.4176 71.3655L32.4279 71.381Z" fill="white"/>
<path d="M49.9331 33.1029C44.8713 33.0359 40.8816 28.9844 40.9486 23.9689C41.0104 18.9586 45.0671 14.9638 50.0465 15.0102C55.1084 15.0566 59.1238 19.17 59.0311 24.2112C58.9383 29.1854 54.8661 33.1648 49.9331 33.0978V33.1029ZM49.964 31.4638C54.0104 31.4895 57.3558 28.1957 57.3919 24.1493C57.428 20.0566 54.1238 16.6648 50.0775 16.6493C45.9383 16.6339 42.6084 19.9122 42.5774 24.0359C42.5465 28.0978 45.8661 31.4328 49.964 31.4638Z" fill="white"/>
<path d="M23.923 25.7623C23.9694 21.716 27.2735 18.5098 31.3405 18.5562C35.3405 18.6026 38.557 21.9067 38.5209 25.9376C38.4848 29.9324 35.1343 33.2211 31.1652 33.1593C27.0982 33.0974 23.8714 29.7984 23.923 25.7623ZM31.2219 20.1902C28.1188 20.1747 25.5621 22.7366 25.557 25.8603C25.5518 28.9273 28.1034 31.4943 31.1807 31.5098C34.2632 31.5304 36.8457 29.0046 36.8817 25.9376C36.9178 22.783 34.3766 20.2056 31.2219 20.1902Z" fill="white"/>
<path d="M76.0514 25.7733C76.0875 29.7991 72.8762 33.0619 68.8349 33.1032C64.8195 33.1496 61.5411 29.9228 61.4999 25.8867C61.4587 21.8764 64.7061 18.5774 68.7216 18.5568C72.7628 18.531 76.0205 21.7372 76.0566 25.7733H76.0514ZM74.4123 25.7681C74.3659 22.6393 71.7783 20.129 68.6597 20.1908C65.5772 20.2475 63.0721 22.8506 63.1391 25.9331C63.2009 29.0413 65.7422 31.5001 68.8607 31.464C71.9535 31.4279 74.4638 28.8558 74.4174 25.7681H74.4123Z" fill="white"/>
<path d="M63.2526 45.3607C63.2526 46.2267 63.2681 47.0978 63.2526 47.9638C63.2114 50.1236 61.5413 51.7731 59.4072 51.7834C57.2732 51.7988 55.5413 50.1545 55.5 48.0205C55.4639 46.2421 55.433 44.4535 55.5206 42.6803C55.6598 39.8916 57.1031 37.7679 59.2526 36.1133C60.0773 35.4793 61.0206 34.9896 61.9433 34.4896C62.6237 34.1236 63.1392 34.2576 63.3609 34.7524C63.5722 35.2215 63.3454 35.6236 62.6598 35.9483C60.6134 36.9226 58.8248 38.2164 57.8402 40.3195C57.4536 41.1442 57.2165 42.0978 57.1495 43.005C57.0361 44.572 57.1031 46.1545 57.1134 47.7267C57.1237 49.1339 58.0825 50.1494 59.3609 50.1494C60.6547 50.1494 61.6134 49.1442 61.6237 47.7421C61.6341 46.2112 61.6237 44.6854 61.6341 43.1545C61.6392 41.8092 61.2062 40.6081 60.4897 39.4844C60.098 38.871 60.2268 38.2937 60.7681 38.1184C61.2526 37.9638 61.5928 38.17 61.866 38.5823C62.7217 39.8916 63.2268 41.3143 63.2578 42.8865C63.2732 43.7061 63.2578 44.5308 63.2578 45.3504C63.2578 45.3504 63.2578 45.3504 63.2526 45.3504V45.3607Z" fill="white"/>
<path d="M36.7115 45.3507C36.7321 43.6445 36.5671 41.9228 37.2424 40.2785C38.4383 37.3713 40.6805 35.5775 43.4692 34.361C43.9331 34.1599 44.3506 34.294 44.5568 34.763C44.7836 35.2785 44.5362 35.6548 44.0568 35.8661C42.7115 36.4744 41.4847 37.2527 40.4589 38.3146C39.0877 39.7373 38.3042 41.4022 38.3352 43.4177C38.3558 44.8558 38.33 46.294 38.3352 47.7321C38.3455 49.1393 39.2888 50.1496 40.5774 50.1548C41.8609 50.1599 42.8249 49.1548 42.8403 47.7476C42.8558 46.1496 42.8455 44.5517 42.8403 42.9538C42.8352 41.8558 42.4898 40.8455 41.9486 39.9022C41.8455 39.7218 41.7321 39.5568 41.629 39.3764C41.3764 38.9434 41.3816 38.5208 41.8094 38.227C42.263 37.9125 42.6857 38.0517 42.995 38.4898C43.8713 39.7321 44.4073 41.1135 44.4537 42.629C44.5104 44.428 44.5053 46.2373 44.464 48.0362C44.4176 50.1754 42.6857 51.8043 40.5465 51.7836C38.4125 51.7682 36.7475 50.1084 36.7115 47.9486C36.696 47.0826 36.7115 46.2115 36.7115 45.3455V45.3507Z" fill="white"/>
<path d="M82.0312 42.6808C82.0312 42.8148 82.0415 42.9539 82.0312 43.088C81.9951 43.557 81.758 43.8766 81.2734 43.8972C80.7631 43.9179 80.4487 43.624 80.4178 43.1189C80.2116 39.5931 78.0157 37.5622 75.1085 36.0725C74.2219 35.6189 73.9538 35.2684 74.1909 34.7478C74.4435 34.2014 74.9332 34.155 75.8559 34.6137C78.4951 35.9179 80.6188 37.7375 81.6136 40.6137C81.8404 41.2735 81.9384 41.9797 82.093 42.6653C82.0724 42.6704 82.0518 42.6756 82.0363 42.6808H82.0312Z" fill="white"/>
<path d="M17.9586 42.484C18.1545 39.6541 19.8298 37.4015 22.3349 35.685C23.0411 35.2005 23.8349 34.8293 24.603 34.4376C25.0669 34.2056 25.5205 34.2572 25.7628 34.7726C26.0205 35.319 25.7525 35.6902 25.2473 35.9221C23.6958 36.6335 22.304 37.5561 21.2061 38.8912C20.237 40.0716 19.6391 41.3963 19.572 42.9376C19.5463 43.5097 19.3556 43.9324 18.7112 43.9427C18.17 43.9479 17.9123 43.5407 17.9535 42.4891L17.9586 42.484Z" fill="white"/>
<path d="M25.7165 44.6342C25.7165 45.16 25.732 45.6858 25.7165 46.2064C25.6959 46.7218 25.3969 47.026 24.8918 47.0208C24.4227 47.0208 24.1186 46.7218 24.1083 46.2373C24.0877 45.1445 24.0825 44.0466 24.1083 42.9538C24.1237 42.4796 24.4485 42.1961 24.9227 42.2115C25.3969 42.227 25.6856 42.5157 25.7114 42.995C25.7371 43.5414 25.7165 44.0878 25.7165 44.6394V44.6342Z" fill="white"/>
<path d="M75.8713 44.6084C75.8713 45.1341 75.8816 45.6547 75.8713 46.1805C75.8609 46.6702 75.5671 46.964 75.1084 46.9795C74.6135 46.995 74.2836 46.6908 74.2733 46.1805C74.2527 45.1084 74.2475 44.0413 74.2733 42.9692C74.2836 42.464 74.5981 42.1599 75.1084 42.1754C75.5877 42.1908 75.8558 42.4898 75.8713 42.9692C75.8867 43.5156 75.8713 44.062 75.8713 44.6084Z" fill="white"/>
<path d="M57.1187 36.4582C56.5259 36.1386 55.995 35.9273 55.5672 35.5819C55.4022 35.4479 55.3455 34.9376 55.4692 34.7417C55.6136 34.5097 56.0362 34.2829 56.2837 34.3293C56.7373 34.4118 57.196 34.6334 57.5672 34.917C57.763 35.0664 57.8919 35.5046 57.8197 35.7417C57.7424 36.0046 57.3971 36.1902 57.1239 36.4582H57.1187Z" fill="white"/>
<path d="M38.3453 36.4633C37.7474 36.1386 37.2113 35.9221 36.7835 35.5767C36.6185 35.4427 36.5618 34.9324 36.6855 34.7417C36.8299 34.5097 37.2525 34.2829 37.5051 34.3293C37.9587 34.4118 38.4175 34.6386 38.7886 34.9221C38.9793 35.0716 39.1031 35.5046 39.0309 35.7469C38.9536 36.0097 38.6185 36.2005 38.3505 36.4685L38.3453 36.4633Z" fill="white"/>
</g>
<defs>
<clipPath id="clip0_48_33588">
<rect width="100" height="100" fill="white"/>
</clipPath>
</defs>
</svg>
