<svg class="icon" width="100" height="100" viewBox="0 0 100 100" fill="none" xmlns="http://www.w3.org/2000/svg">
<g clip-path="url(#clip0_51_36635)">
<path class="background" d="M50 100C77.6142 100 100 77.6142 100 50C100 22.3858 77.6142 0 50 0C22.3858 0 0 22.3858 0 50C0 77.6142 22.3858 100 50 100Z" fill="white"/>
<path class="inner" d="M34.0048 34.995C35.5615 35.1754 37.0305 34.8558 38.4996 34.562C40.814 34.0929 43.1336 33.7785 45.4378 34.5156C46.4171 34.83 47.3501 35.2991 48.2883 35.7372C48.5872 35.8764 48.7934 35.9589 49.1182 35.763C52.3089 33.8403 55.6491 33.6599 59.0976 34.964C60.3553 35.4383 61.5924 35.9692 62.8604 36.4228C63.6646 36.7115 64.5048 36.928 65.4017 36.5774C65.3553 36.3764 65.314 36.2115 65.2728 36.0465C64.9068 34.4537 65.6646 32.9228 67.1852 32.3249C68.8656 31.6599 70.5615 31.0259 72.2677 30.4331C74.0254 29.8197 75.6955 30.696 76.3811 32.531C78.5512 38.3609 80.711 44.1908 82.8759 50.0156C83.1594 50.7785 83.4584 51.5414 83.7213 52.3146C84.3192 54.0671 83.5563 55.7372 81.8295 56.4125C80.247 57.0311 78.6543 57.6135 77.0615 58.196C75.2573 58.8558 73.6646 58.1857 72.8244 56.4434C72.7728 56.3403 72.7006 56.2424 72.5563 56.1445C72.6852 57.7269 72.6182 59.2475 71.5563 60.5207C70.4378 61.8609 69.0099 62.0671 67.412 61.5362C67.6491 65.263 64.3708 67.3609 61.2677 66.3403C61.3398 67.6754 61.0254 68.8764 60.1233 69.8713C59.211 70.8816 58.0357 71.3094 56.6336 71.361C56.8295 73.0517 56.3501 74.4847 54.9017 75.4434C53.4275 76.4228 51.9635 76.0568 50.5151 75.2063C49.5872 76.9486 48.3553 78.2527 46.2367 77.9486C44.2213 77.6599 43.0357 76.3197 42.3553 74.428C39.6285 75.3506 37.5718 74.5929 36.2831 71.9383C34.5769 72.928 32.8656 72.9692 31.2625 71.7785C29.7161 70.629 29.3347 69.0104 29.6852 67.1496C29.2419 67.1187 28.7986 67.129 28.3707 67.0465C25.4635 66.4898 23.979 63.4898 25.2883 60.83C25.6182 60.1599 25.9996 59.5104 26.3347 58.8403C26.4481 58.6187 26.4996 58.3713 26.6285 57.9743C26.3501 58.1187 26.2367 58.1599 26.1388 58.2269C25.247 58.8609 24.2831 59.0053 23.247 58.6754C21.6491 58.1651 20.0512 57.6651 18.4584 57.1393C16.4842 56.4898 15.6388 54.8455 16.2728 52.8661C18.0254 47.4073 19.7883 41.9537 21.546 36.495C21.9326 35.2991 22.3037 34.0981 22.7006 32.9073C23.3295 31.0104 24.979 30.1651 26.8862 30.7579C28.2986 31.196 29.6852 31.7012 31.1079 32.0981C32.6388 32.5259 33.7161 33.3455 33.9893 34.995H34.0048ZM48.2728 67.5259C48.278 67.4847 48.2883 67.4434 48.2934 67.4022C48.1439 67.3146 47.9945 67.2269 47.8501 67.129C47.3811 66.8094 47.2161 66.3764 47.5151 65.8764C47.7883 65.4125 48.2213 65.2991 48.7161 65.5259C48.9171 65.6187 49.1079 65.7269 49.3037 65.83C51.3862 66.9383 53.4635 68.0568 55.5615 69.1445C57.1182 69.9537 58.8708 69.2166 59.3347 67.5981C59.6749 66.4228 59.1903 65.2579 57.9996 64.5774C56.6388 63.8042 55.247 63.0826 53.8656 62.3403C53.1852 61.9743 52.4945 61.629 51.8244 61.2424C51.3398 60.964 51.1594 60.5259 51.4378 60.0053C51.7161 59.4847 52.1697 59.4125 52.6852 59.6341C52.845 59.7012 52.9996 59.7939 53.1543 59.8764C55.9326 61.3661 58.7161 62.8558 61.4893 64.3558C62.2058 64.7424 62.9481 64.8867 63.7213 64.6341C64.7573 64.2939 65.3914 63.5723 65.5202 62.4795C65.6594 61.3042 65.1903 60.397 64.1594 59.83C61.4738 58.3558 58.7728 56.9022 56.0769 55.4383C55.8656 55.3249 55.6388 55.2115 55.4635 55.0517C54.9532 54.5774 55.113 53.7475 55.7831 53.5723C56.0821 53.495 56.4841 53.5929 56.7677 53.7424C58.8553 54.8455 60.9223 55.9898 62.9996 57.1084C64.613 57.9795 66.2161 58.8609 67.8501 59.6857C69.1491 60.3352 70.1336 59.8713 70.5821 58.495C71.046 57.0671 70.68 55.7424 69.2677 54.7166C67.7728 53.6341 66.1903 52.6548 64.5718 51.763C62.3295 50.531 59.9481 49.5414 57.7677 48.2218C56.211 47.2785 54.7213 47.1702 53.0976 47.7012C51.4223 48.2475 49.778 48.9022 48.0924 49.4125C44.278 50.5671 41.4223 49.7063 39.2264 46.8455C38.8553 46.3609 38.7625 45.8867 39.1233 45.397C39.6285 44.7012 40.1079 43.9743 40.711 43.3661C42.7006 41.3609 44.7419 39.4022 46.7573 37.4228C46.845 37.3403 46.9068 37.2321 46.9893 37.1238C45.0409 36.0259 42.9996 35.7579 40.8656 36.0414C38.5769 36.3455 36.3398 37.0723 33.9842 36.9073C33.8553 36.897 33.6285 37.1341 33.5769 37.2939C31.8604 42.5774 30.1388 47.8609 28.4635 53.1599C28.2058 53.9692 28.1749 54.8506 28.0357 55.7012C29.5924 54.6032 31.1388 54.1548 32.8244 54.8764C34.4893 55.5929 35.3862 56.9692 35.6336 58.7475C39.0718 58.6238 40.0408 59.3506 41.1543 62.8764C42.613 62.5362 43.9532 62.8042 45.1079 63.7939C46.2625 64.7836 46.6749 66.0981 46.5924 67.5414H48.2883L48.2728 67.5259ZM40.9017 45.9228C41.0099 46.0671 41.0718 46.1599 41.1439 46.2424C42.747 48.0517 44.7573 48.4537 46.9893 47.8042C48.7213 47.2991 50.4068 46.6341 52.1233 46.0671C53.5615 45.5929 55.046 45.2166 56.5357 45.6702C57.4481 45.9434 58.278 46.495 59.1336 46.928C61.4945 48.1238 63.8656 49.2991 66.2006 50.5414C68.0151 51.5053 69.7831 52.5465 71.2419 54.031C71.4171 54.2063 71.6697 54.2991 71.8914 54.4331C71.8604 54.1754 71.8759 53.897 71.7883 53.6599C70.5872 50.3919 69.3707 47.129 68.1594 43.8661C67.479 42.031 66.7934 40.196 66.1182 38.3764C64.046 38.7063 63.2213 38.6084 61.2419 37.8094C60.3862 37.464 59.5254 37.1187 58.6697 36.7682C55.1491 35.3403 51.8037 35.7527 48.9017 38.1496C46.5099 40.1238 44.3604 42.3919 42.1182 44.5465C41.68 44.9692 41.3089 45.4692 40.9068 45.9331L40.9017 45.9228ZM73.2006 32.0929C73.0666 32.129 72.8295 32.1754 72.6079 32.2579C71.1182 32.8042 69.6285 33.3558 68.1439 33.9176C67.0976 34.3146 66.814 34.9331 67.2058 36.0001C69.6079 42.4898 72.0151 48.9847 74.4274 55.4743C74.8295 56.562 75.4429 56.8249 76.5563 56.4125C77.9842 55.8867 79.4068 55.3558 80.8347 54.8249C82.0615 54.3661 82.314 53.8146 81.8553 52.5774C80.4429 48.7733 79.0305 44.9692 77.6182 41.1702C76.6285 38.5053 75.6336 35.8403 74.6491 33.1702C74.412 32.531 74.0254 32.1135 73.1955 32.0981L73.2006 32.0929ZM17.912 53.8816C17.9017 54.6702 18.2367 55.1084 18.9738 55.3558C20.5409 55.8764 22.113 56.3919 23.6903 56.8867C24.6697 57.196 25.2883 56.8558 25.6182 55.8506C27.7573 49.2424 29.8862 42.6341 32.0151 36.0207C32.3604 34.9537 32.0305 34.3352 30.9635 33.9898C29.5151 33.5207 28.0666 33.0568 26.6182 32.5929C25.3295 32.1805 24.7986 32.4486 24.3811 33.7372C22.2883 40.2218 20.1903 46.7012 18.0976 53.1857C18.0099 53.4589 17.9481 53.7372 17.9068 53.8816H17.912ZM31.3244 68.3042C31.412 69.5207 32.0821 70.4073 33.2213 70.7218C34.3244 71.031 35.4532 70.5774 36.0357 69.5207C36.9945 67.7836 37.9223 66.0311 38.845 64.2733C39.5512 62.9228 39.1439 61.4486 37.9068 60.7888C36.6543 60.1238 35.2161 60.5981 34.4893 61.9383C33.5769 63.6238 32.6646 65.3146 31.7831 67.0156C31.5769 67.4176 31.479 67.8713 31.3295 68.3042H31.3244ZM29.0872 65.2682C30.0151 65.2785 30.8089 64.8558 31.2728 64.0207C32.0202 62.6702 32.7573 61.3146 33.4481 59.9331C34.0666 58.7063 33.5821 57.3609 32.345 56.6496C31.2934 56.0517 29.8089 56.4228 29.1594 57.5362C28.3501 58.928 27.5769 60.3403 26.8862 61.7939C26.1079 63.428 27.3037 65.2475 29.0872 65.263V65.2682ZM40.3811 72.964C41.2625 72.964 42.0099 72.6341 42.4481 71.8816C43.1903 70.6084 43.9017 69.3094 44.5357 67.9795C45.0872 66.83 44.5563 65.4537 43.4429 64.8558C42.3037 64.2424 40.8553 64.5878 40.1955 65.7115C39.4738 66.9434 38.778 68.2063 38.1749 69.5001C37.4068 71.1445 38.5872 72.9434 40.3811 72.964ZM46.6955 76.1445C47.4326 76.1702 47.9945 75.7991 48.3347 75.2063C48.912 74.2011 49.4378 73.1548 49.912 72.0929C50.1697 71.5104 50.1439 70.8919 49.68 70.3558C48.3914 68.8661 46.2213 69.0362 45.2006 70.7218C44.8811 71.2475 44.5924 71.7939 44.3244 72.3455C43.5615 73.928 44.9326 76.1084 46.6955 76.1393V76.1445ZM50.8347 68.7424C52.2625 70.2012 52.0821 71.8403 51.3811 73.5156C52.8501 74.5259 54.0924 74.3146 54.6646 72.9847C55.1079 71.9589 54.7316 70.8764 53.68 70.2785C52.7419 69.7424 51.7831 69.2527 50.8347 68.7424Z" fill="#3078F6"/>
</g>
<defs>
<clipPath id="clip0_51_36635">
<rect width="100" height="100" fill="white"/>
</clipPath>
</defs>
</svg>
