<svg width="100" height="100" viewBox="0 0 100 100" fill="none" xmlns="http://www.w3.org/2000/svg">
<g clip-path="url(#clip0_51_36811)">
<path d="M50 100C77.6142 100 100 77.6142 100 50C100 22.3858 77.6142 0 50 0C22.3858 0 0 22.3858 0 50C0 77.6142 22.3858 100 50 100Z" fill="#3078F6"/>
<path d="M34.0048 34.9945C35.5615 35.1749 37.0305 34.8553 38.4996 34.5615C40.814 34.0924 43.1336 33.778 45.4378 34.5151C46.4171 34.8295 47.3501 35.2986 48.2883 35.7367C48.5872 35.8759 48.7934 35.9584 49.1182 35.7625C52.3089 33.8398 55.6491 33.6594 59.0976 34.9636C60.3553 35.4378 61.5924 35.9687 62.8604 36.4223C63.6646 36.711 64.5048 36.9275 65.4017 36.577C65.3553 36.3759 65.314 36.211 65.2728 36.046C64.9068 34.4532 65.6646 32.9223 67.1852 32.3244C68.8656 31.6594 70.5615 31.0254 72.2677 30.4326C74.0254 29.8192 75.6955 30.6955 76.3811 32.5306C78.5512 38.3605 80.711 44.1904 82.8759 50.0151C83.1594 50.778 83.4584 51.5409 83.7213 52.3141C84.3192 54.0666 83.5563 55.7367 81.8295 56.412C80.247 57.0306 78.6543 57.613 77.0615 58.1955C75.2573 58.8553 73.6646 58.1852 72.8244 56.4429C72.7728 56.3398 72.7006 56.2419 72.5563 56.144C72.6852 57.7264 72.6182 59.2471 71.5563 60.5203C70.4378 61.8605 69.0099 62.0666 67.412 61.5357C67.6491 65.2625 64.3708 67.3605 61.2677 66.3398C61.3398 67.6749 61.0254 68.8759 60.1233 69.8708C59.211 70.8811 58.0357 71.3089 56.6336 71.3605C56.8295 73.0512 56.3501 74.4842 54.9017 75.4429C53.4275 76.4223 51.9635 76.0563 50.5151 75.2058C49.5872 76.9481 48.3553 78.2522 46.2367 77.9481C44.2213 77.6594 43.0357 76.3192 42.3553 74.4275C39.6285 75.3502 37.5718 74.5924 36.2831 71.9378C34.5769 72.9275 32.8656 72.9687 31.2625 71.778C29.7161 70.6285 29.3347 69.0099 29.6852 67.1491C29.2419 67.1182 28.7986 67.1285 28.3707 67.046C25.4635 66.4893 23.979 63.4893 25.2883 60.8295C25.6182 60.1594 25.9996 59.5099 26.3347 58.8398C26.4481 58.6182 26.4996 58.3708 26.6285 57.9739C26.3501 58.1182 26.2367 58.1594 26.1388 58.2264C25.247 58.8605 24.2831 59.0048 23.247 58.6749C21.6491 58.1646 20.0512 57.6646 18.4584 57.1388C16.4842 56.4893 15.6388 54.845 16.2728 52.8656C18.0254 47.4068 19.7883 41.9532 21.546 36.4945C21.9326 35.2986 22.3037 34.0976 22.7006 32.9068C23.3295 31.0099 24.979 30.1646 26.8862 30.7574C28.2986 31.1955 29.6852 31.7007 31.1079 32.0976C32.6388 32.5254 33.7161 33.345 33.9893 34.9945H34.0048ZM48.2728 67.5254C48.278 67.4842 48.2883 67.4429 48.2934 67.4017C48.1439 67.3141 47.9945 67.2264 47.8501 67.1285C47.3811 66.8089 47.2161 66.3759 47.5151 65.8759C47.7883 65.412 48.2213 65.2986 48.7161 65.5254C48.9171 65.6182 49.1079 65.7264 49.3037 65.8295C51.3862 66.9378 53.4635 68.0563 55.5615 69.144C57.1182 69.9532 58.8708 69.2161 59.3347 67.5976C59.6749 66.4223 59.1903 65.2574 57.9996 64.577C56.6388 63.8038 55.247 63.0821 53.8656 62.3398C53.1852 61.9739 52.4945 61.6285 51.8244 61.2419C51.3398 60.9636 51.1594 60.5254 51.4378 60.0048C51.7161 59.4842 52.1697 59.412 52.6852 59.6337C52.845 59.7007 52.9996 59.7934 53.1543 59.8759C55.9326 61.3656 58.7161 62.8553 61.4893 64.3553C62.2058 64.7419 62.9481 64.8862 63.7213 64.6337C64.7573 64.2934 65.3914 63.5718 65.5202 62.479C65.6594 61.3038 65.1903 60.3965 64.1594 59.8295C61.4738 58.3553 58.7728 56.9017 56.0769 55.4378C55.8656 55.3244 55.6388 55.211 55.4635 55.0512C54.9532 54.577 55.113 53.7471 55.7831 53.5718C56.0821 53.4945 56.4841 53.5924 56.7677 53.7419C58.8553 54.845 60.9223 55.9893 62.9996 57.1079C64.613 57.979 66.2161 58.8605 67.8501 59.6852C69.1491 60.3347 70.1336 59.8708 70.5821 58.4945C71.046 57.0666 70.68 55.7419 69.2677 54.7161C67.7728 53.6337 66.1903 52.6543 64.5718 51.7625C62.3295 50.5306 59.9481 49.5409 57.7677 48.2213C56.211 47.278 54.7213 47.1697 53.0976 47.7007C51.4223 48.2471 49.778 48.9017 48.0924 49.412C44.278 50.5666 41.4223 49.7058 39.2264 46.845C38.8553 46.3605 38.7625 45.8862 39.1233 45.3965C39.6285 44.7007 40.1079 43.9739 40.711 43.3656C42.7006 41.3605 44.7419 39.4017 46.7573 37.4223C46.845 37.3398 46.9068 37.2316 46.9893 37.1233C45.0409 36.0254 42.9996 35.7574 40.8656 36.0409C38.5769 36.345 36.3398 37.0718 33.9842 36.9068C33.8553 36.8965 33.6285 37.1337 33.5769 37.2934C31.8604 42.577 30.1388 47.8605 28.4635 53.1594C28.2058 53.9687 28.1749 54.8501 28.0357 55.7007C29.5924 54.6027 31.1388 54.1543 32.8244 54.8759C34.4893 55.5924 35.3862 56.9687 35.6336 58.7471C39.0718 58.6233 40.0408 59.3502 41.1543 62.8759C42.613 62.5357 43.9532 62.8038 45.1079 63.7934C46.2625 64.7831 46.6749 66.0976 46.5924 67.5409H48.2883L48.2728 67.5254ZM40.9017 45.9223C41.0099 46.0666 41.0718 46.1594 41.1439 46.2419C42.747 48.0512 44.7573 48.4532 46.9893 47.8038C48.7213 47.2986 50.4068 46.6337 52.1233 46.0666C53.5615 45.5924 55.046 45.2161 56.5357 45.6697C57.4481 45.9429 58.278 46.4945 59.1336 46.9275C61.4945 48.1233 63.8656 49.2986 66.2006 50.5409C68.0151 51.5048 69.7831 52.546 71.2419 54.0306C71.4171 54.2058 71.6697 54.2986 71.8914 54.4326C71.8604 54.1749 71.8759 53.8965 71.7883 53.6594C70.5872 50.3914 69.3707 47.1285 68.1594 43.8656C67.479 42.0306 66.7934 40.1955 66.1182 38.3759C64.046 38.7058 63.2213 38.6079 61.2419 37.8089C60.3862 37.4636 59.5254 37.1182 58.6697 36.7677C55.1491 35.3398 51.8037 35.7522 48.9017 38.1491C46.5099 40.1233 44.3604 42.3914 42.1182 44.546C41.68 44.9687 41.3089 45.4687 40.9068 45.9326L40.9017 45.9223ZM73.2006 32.0924C73.0666 32.1285 72.8295 32.1749 72.6079 32.2574C71.1182 32.8038 69.6285 33.3553 68.1439 33.9172C67.0976 34.3141 66.814 34.9326 67.2058 35.9996C69.6079 42.4893 72.0151 48.9842 74.4274 55.4739C74.8295 56.5615 75.4429 56.8244 76.5563 56.412C77.9842 55.8862 79.4068 55.3553 80.8347 54.8244C82.0615 54.3656 82.314 53.8141 81.8553 52.577C80.4429 48.7728 79.0305 44.9687 77.6182 41.1697C76.6285 38.5048 75.6336 35.8398 74.6491 33.1697C74.412 32.5306 74.0254 32.113 73.1955 32.0976L73.2006 32.0924ZM17.912 53.8811C17.9017 54.6697 18.2367 55.1079 18.9738 55.3553C20.5409 55.8759 22.113 56.3914 23.6903 56.8862C24.6697 57.1955 25.2883 56.8553 25.6182 55.8501C27.7573 49.2419 29.8862 42.6337 32.0151 36.0203C32.3604 34.9532 32.0305 34.3347 30.9635 33.9893C29.5151 33.5203 28.0666 33.0563 26.6182 32.5924C25.3295 32.18 24.7986 32.4481 24.3811 33.7367C22.2883 40.2213 20.1903 46.7007 18.0976 53.1852C18.0099 53.4584 17.9481 53.7367 17.9068 53.8811H17.912ZM31.3244 68.3038C31.412 69.5202 32.0821 70.4068 33.2213 70.7213C34.3244 71.0306 35.4532 70.577 36.0357 69.5203C36.9945 67.7831 37.9223 66.0306 38.845 64.2728C39.5512 62.9223 39.1439 61.4481 37.9068 60.7883C36.6543 60.1233 35.2161 60.5976 34.4893 61.9378C33.5769 63.6233 32.6646 65.3141 31.7831 67.0151C31.5769 67.4172 31.479 67.8708 31.3295 68.3038H31.3244ZM29.0872 65.2677C30.0151 65.278 30.8089 64.8553 31.2728 64.0203C32.0202 62.6697 32.7573 61.3141 33.4481 59.9326C34.0666 58.7058 33.5821 57.3605 32.345 56.6491C31.2934 56.0512 29.8089 56.4223 29.1594 57.5357C28.3501 58.9275 27.5769 60.3398 26.8862 61.7934C26.1079 63.4275 27.3037 65.2471 29.0872 65.2625V65.2677ZM40.3811 72.9636C41.2625 72.9636 42.0099 72.6337 42.4481 71.8811C43.1903 70.6079 43.9017 69.3089 44.5357 67.979C45.0872 66.8295 44.5563 65.4532 43.4429 64.8553C42.3037 64.2419 40.8553 64.5873 40.1955 65.711C39.4738 66.9429 38.778 68.2058 38.1749 69.4996C37.4068 71.144 38.5872 72.9429 40.3811 72.9636ZM46.6955 76.144C47.4326 76.1697 47.9945 75.7986 48.3347 75.2058C48.912 74.2007 49.4378 73.1543 49.912 72.0924C50.1697 71.5099 50.1439 70.8914 49.68 70.3553C48.3914 68.8656 46.2213 69.0357 45.2006 70.7213C44.8811 71.2471 44.5924 71.7935 44.3244 72.345C43.5615 73.9275 44.9326 76.1079 46.6955 76.1388V76.144ZM50.8347 68.7419C52.2625 70.2007 52.0821 71.8398 51.3811 73.5151C52.8501 74.5254 54.0924 74.3141 54.6646 72.9842C55.1079 71.9584 54.7316 70.8759 53.68 70.278C52.7419 69.7419 51.7831 69.2522 50.8347 68.7419Z" fill="white"/>
</g>
<defs>
<clipPath id="clip0_51_36811">
<rect width="100" height="100" fill="white"/>
</clipPath>
</defs>
</svg>
