<svg width="100" height="100" viewBox="0 0 100 100" fill="none" xmlns="http://www.w3.org/2000/svg">
<g clip-path="url(#clip0_47_33423)">
<path d="M50 100C77.6142 100 100 77.6142 100 50C100 22.3858 77.6142 0 50 0C22.3858 0 0 22.3858 0 50C0 77.6142 22.3858 100 50 100Z" fill="#3078F6"/>
<path d="M74.5928 78.3245C76.1495 78.3245 77.5876 78.4225 78.9897 78.2575C79.3505 78.2163 79.866 77.34 79.8763 76.84C79.9794 72.4637 80 68.0874 80.0206 63.7163C80.067 51.4534 80.0928 39.1905 80.134 26.9276C80.134 26.5255 80.067 26.0977 80.1753 25.7266C80.2732 25.3812 83.2423 31.6905 83.2835 31.5668C83.0773 47.6853 83.0773 63.809 83.0722 79.9276C83.0722 81.4688 40.6959 80.7627 20.1392 80.8297C18.5361 80.8297 17.9278 81.3142 17.1031 80.0719C16.3918 78.9998 16.6753 78.3451 17.8608 78.3657C19.2732 78.3915 19.4588 77.6905 19.4433 76.5565C19.4021 73.0462 19.4742 69.5307 19.3866 66.0204C19.3454 64.4328 19.7732 63.7163 21.5155 63.7936C24.5619 63.9225 27.6186 63.8297 30.6701 63.8554C32.4639 63.8709 33.0258 64.4482 33.0412 66.2523C33.067 69.706 33.1031 73.1596 33.0567 76.6132C33.0412 77.8194 33.3093 78.34 34.6753 78.3451C39.2217 78.3606 39.2217 78.4173 39.2217 73.7987C39.2217 66.6029 39.2423 59.4018 39.1907 52.206C39.1804 50.8142 39.567 50.2369 41.0516 50.2781C44.0412 50.3657 47.0412 50.2833 50.0309 50.2833C52.2526 50.2833 52.7835 50.809 52.7887 53.0204C52.8041 60.7369 52.8711 68.4534 52.7887 76.1699C52.7681 77.9534 53.3144 78.5152 55.0361 78.34C56.3454 78.206 57.6856 78.273 59.0052 78.3554C60.2165 78.4328 60.6031 77.9688 60.5825 76.7627C60.5206 73.0771 60.5722 69.3915 60.567 65.706C60.5619 56.0307 60.5412 46.3606 60.5412 36.6853C60.5412 34.309 60.5979 34.2627 62.9588 34.2523C65.7217 34.2369 68.4845 34.2163 71.2526 34.2163C73.4794 34.2163 74.5103 35.1956 74.5206 37.4379C74.5464 42.4482 74.5103 47.4585 74.5103 52.4688C74.5103 60.7008 74.5103 68.9379 74.5103 77.1699C74.5103 77.4534 74.5516 77.7369 74.5979 78.3245H74.5928ZM62.3557 57.041C62.3557 57.041 62.3351 57.041 62.3248 57.041C62.3248 63.5977 62.3454 70.1544 62.3041 76.7111C62.299 77.8091 62.6083 78.2833 63.7681 78.242C65.8351 78.1699 67.9124 78.1183 69.9794 78.2214C71.4278 78.2936 71.866 77.7678 71.8608 76.3657C71.8248 63.4224 71.8299 50.4792 71.866 37.5359C71.866 36.2987 71.3918 35.9379 70.232 35.9792C68.2784 36.0513 66.3144 36.1183 64.366 35.9998C62.7577 35.9018 62.299 36.4791 62.3196 38.0513C62.3969 44.3761 62.3505 50.706 62.3505 57.0307L62.3557 57.041ZM50.4382 65.1699C50.4382 65.1699 50.4536 65.1699 50.4588 65.1699C50.4588 61.3194 50.4227 57.4688 50.4794 53.6235C50.4949 52.4482 50.1546 51.9791 48.9175 52.0358C46.7938 52.1286 44.665 52.1338 42.5412 52.0565C41.3041 52.0101 40.9794 52.5049 40.9794 53.6647C41.0052 61.4225 40.9897 69.175 40.9536 76.9328C40.9536 77.9637 41.2938 78.3761 42.3454 78.3503C44.5258 78.2936 46.7113 78.2678 48.8918 78.3348C50.1289 78.3761 50.4639 77.8709 50.4485 76.7163C50.3969 72.8657 50.4278 69.0204 50.4278 65.1699H50.4382ZM30.6804 77.407C30.6804 73.6544 30.6598 70.2111 30.6907 66.773C30.701 65.8606 30.3196 65.5616 29.4536 65.5771C27.0979 65.6132 24.7371 65.5565 22.3815 65.6596C21.9742 65.6802 21.2732 66.3194 21.2629 66.6905C21.165 69.907 21.165 73.1286 21.2217 76.3503C21.2268 76.706 21.7423 77.3554 22.0361 77.3657C24.8351 77.4431 27.6392 77.4121 30.6804 77.4121V77.407Z" fill="white"/>
<path d="M36.2008 27.6438C35.8451 26.9737 35.5204 26.4995 35.3245 25.9737C34.8039 24.5922 34.8967 23.3087 36.3451 23.3293C41.9225 23.4118 46.8761 25.4582 51.541 28.3345C52.3761 28.85 52.3297 29.5562 51.7266 30.2263C48.6493 33.6438 45.5822 37.0665 42.4637 40.4376C41.4998 41.4788 41.175 41.1592 40.608 39.8345C40.3606 39.2623 39.8967 37.5922 39.6544 36.7778C37.3194 37.0458 32.675 38.8397 30.7214 39.9788C24.5719 43.5562 18.5101 52.6644 17.9379 53.1077C17.7884 52.4273 17.2472 35.484 33.8606 28.5716C34.3864 28.3551 35.541 28.0149 36.2008 27.6489V27.6438ZM42.3761 37.7417C44.8812 34.9788 47.3297 32.283 49.9225 29.4273C45.9534 27.0768 37.4946 25.6696 37.5513 25.819C38.5307 28.2778 38.5152 28.2469 36.1647 29.4067C28.6596 33.0974 23.0152 38.5922 19.7678 46.3964C19.6132 46.7675 19.2111 47.8654 19.0668 48.4015C19.3864 48.2469 20.3606 46.9221 20.5719 46.6489C24.907 41.0458 30.541 37.3551 37.2884 35.3242C41.0719 34.185 41.0822 34.2211 42.3709 37.7469L42.3761 37.7417Z" fill="white"/>
<path d="M60.9123 8.06152C66.3556 8.06152 71.0515 12.7522 71.0721 18.211C71.0927 23.7935 66.6443 28.3244 61.1804 28.2832C55.5051 28.2419 51.0206 23.577 51.0618 17.7626C51.0979 12.376 55.4793 8.06152 60.9123 8.06152ZM60.8917 25.9223C65.402 25.9378 69 22.3141 68.9536 17.7935C68.9123 13.4584 65.3711 9.92235 61.0154 9.86049C56.536 9.79864 52.8865 13.4017 52.8556 17.9275C52.8247 22.2677 56.4845 25.912 60.8917 25.9275V25.9223Z" fill="white"/>
<path d="M60.3249 22.3037V21.7676C60.3249 21.5563 60.1651 21.3862 59.9538 21.3655C59.4744 21.314 59.0053 21.18 58.6393 20.9996C58.4538 20.9068 58.3661 20.6954 58.4383 20.4996L58.4744 20.3965C58.5568 20.1697 58.8094 20.0563 59.0259 20.1594C59.4486 20.3604 59.9692 20.4996 60.5156 20.4996C61.4434 20.4996 62.0672 19.9635 62.0672 19.2212C62.0672 18.4789 61.5568 18.0614 60.5929 17.6697C59.263 17.1491 58.4383 16.546 58.4383 15.4119C58.4383 14.4222 59.0775 13.6542 60.1032 13.3759C60.2837 13.3295 60.4074 13.1697 60.4074 12.9841V12.3965C60.4074 12.1748 60.5878 11.9893 60.8146 11.9893C61.0362 11.9893 61.2218 12.1697 61.2218 12.3965V12.881C61.2218 13.0872 61.3816 13.2573 61.5878 13.2831C61.9847 13.3295 62.3094 13.4274 62.5775 13.5408C62.7733 13.6284 62.8661 13.8552 62.7888 14.0563L62.7527 14.1594C62.6702 14.3707 62.428 14.4789 62.2218 14.3913C61.9228 14.2625 61.5001 14.1387 60.9486 14.1387C59.9434 14.1387 59.5672 14.7418 59.5672 15.2625C59.5672 15.9429 60.0517 16.2831 61.1857 16.7521C62.5311 17.2985 63.2115 17.9789 63.2115 19.1439C63.2115 20.0975 62.6032 20.9893 61.4538 21.2985C61.2785 21.3449 61.1496 21.5047 61.1496 21.6903V22.3192C61.1496 22.5408 60.9692 22.7264 60.7424 22.7264H60.7269C60.5053 22.7264 60.3197 22.546 60.3197 22.3192L60.3249 22.3037Z" fill="white"/>
<path d="M60.7423 23.051C60.3144 23.051 59.9794 22.716 59.9794 22.2985V21.7624C59.9794 21.7263 59.9485 21.7057 59.9175 21.7005C59.4021 21.6438 58.8969 21.5047 58.4897 21.3036C58.1495 21.1335 57.9897 20.7366 58.1134 20.3758L58.1495 20.2727C58.2217 20.0717 58.3763 19.9067 58.5722 19.8242C58.768 19.7418 58.9845 19.7521 59.1753 19.8397C59.4691 19.9789 59.9433 20.149 60.5155 20.149C61.2371 20.149 61.7217 19.7727 61.7217 19.216C61.7217 18.8397 61.567 18.4325 60.4639 17.984C59.2938 17.5253 58.0928 16.8603 58.0928 15.4067C58.0928 14.2624 58.8299 13.3552 60.0155 13.0356C60.0412 13.0304 60.067 13.0098 60.067 12.9789V12.3912C60.067 11.9789 60.4021 11.6387 60.8196 11.6387C61.2371 11.6387 61.5722 11.9737 61.5722 12.3912V12.8758C61.5722 12.9119 61.6031 12.9325 61.634 12.9376C62.0258 12.984 62.3918 13.0768 62.7217 13.2211C63.0876 13.3809 63.2629 13.7985 63.1237 14.1748L63.0876 14.2778C63.0155 14.4686 62.866 14.6232 62.6753 14.7057C62.4897 14.783 62.2784 14.783 62.0928 14.7057C61.7423 14.5562 61.3608 14.4789 60.9588 14.4789C60.1907 14.4789 59.9227 14.8809 59.9227 15.2572C59.9227 15.6644 60.1237 15.9273 61.3299 16.4273C62.3711 16.85 63.567 17.5459 63.567 19.1335C63.567 20.3191 62.7732 21.2933 61.5516 21.6232C61.5258 21.6284 61.5052 21.6541 61.5052 21.6799V22.3088C61.5052 22.7211 61.1701 23.0614 60.7526 23.0614L60.7423 23.051ZM58.8608 20.4634C58.8608 20.4634 58.8454 20.4634 58.8402 20.4634C58.8299 20.4634 58.8093 20.4789 58.8041 20.5047L58.768 20.6077C58.7577 20.6387 58.768 20.6696 58.799 20.6851C59.134 20.85 59.5619 20.9686 59.9948 21.015C60.3814 21.0562 60.6753 21.3758 60.6753 21.7624V22.2985C60.6753 22.3294 60.701 22.3552 60.732 22.3552C60.7784 22.3552 60.8041 22.3294 60.8041 22.2985V21.6696C60.8041 21.3294 61.0361 21.0356 61.3608 20.9479C62.2887 20.7005 62.866 19.9995 62.866 19.1284C62.866 18.1696 62.3608 17.5871 61.0567 17.0614C60.0155 16.6335 59.2217 16.2263 59.2217 15.2521C59.2217 14.5459 59.7629 13.783 60.9485 13.783C61.4485 13.783 61.9227 13.8758 62.3557 14.0665C62.366 14.0717 62.3814 14.0665 62.3918 14.0665C62.4021 14.0665 62.4175 14.051 62.4278 14.0304L62.4691 13.9273C62.4794 13.8964 62.4691 13.8655 62.4433 13.8552C62.1753 13.7418 61.8763 13.6644 61.5516 13.6232C61.1701 13.5768 60.8814 13.2572 60.8814 12.8758V12.3912C60.8814 12.3242 60.7629 12.3242 60.7629 12.3912V12.9789C60.7629 13.3191 60.5309 13.6129 60.201 13.7057C59.3196 13.9428 58.7887 14.582 58.7887 15.4067C58.7887 16.2315 59.3299 16.7985 60.7217 17.3449C61.5103 17.6644 62.4175 18.1644 62.4175 19.2211C62.4175 20.1644 61.6186 20.8449 60.5206 20.8449C59.8144 20.8449 59.2423 20.6387 58.8814 20.4686C58.8763 20.4686 58.8711 20.4686 58.8608 20.4686V20.4634Z" fill="white"/>
</g>
<defs>
<clipPath id="clip0_47_33423">
<rect width="100" height="100" fill="white"/>
</clipPath>
</defs>
</svg>
