<svg width="100" height="100" viewBox="0 0 100 100" fill="none" xmlns="http://www.w3.org/2000/svg">
<g clip-path="url(#clip0_47_33329)">
<path d="M50 100C77.6142 100 100 77.6142 100 50C100 22.3858 77.6142 0 50 0C22.3858 0 0 22.3858 0 50C0 77.6142 22.3858 100 50 100Z" fill="#3078F6"/>
<path d="M46.0978 58.5674H16.1082V19.7993L16.8195 19.7736C18.6391 19.7014 61.5824 18.0158 73.737 19.7787L74.371 19.8715V42.2993H72.8917V21.1602C60.9484 19.6705 23.2525 21.0107 17.5927 21.2272V57.0932H46.0978V58.5725V58.5674Z" fill="white"/>
<path d="M20.8453 25.9903H34.1752C35.3195 25.9903 35.3195 24.2119 34.1752 24.2119H20.8453C19.701 24.2119 19.701 25.9903 20.8453 25.9903Z" fill="white"/>
<path d="M20.8453 31.7735H32.1958C33.3402 31.7735 33.3402 29.9951 32.1958 29.9951H20.8453C19.701 29.9951 19.701 31.7735 20.8453 31.7735Z" fill="white"/>
<path d="M22.6235 38.1345H28.1854C28.6493 38.1345 29.0977 37.7273 29.072 37.2479C29.0462 36.7685 28.6802 36.3613 28.1854 36.3613H22.6235C22.1596 36.3613 21.7111 36.7685 21.7369 37.2479C21.7627 37.7273 22.1287 38.1345 22.6235 38.1345Z" fill="white"/>
<path d="M60.2369 27.1758H69.8606C71.0049 27.1758 71.0049 25.3975 69.8606 25.3975H60.2369C59.0926 25.3975 59.0926 27.1758 60.2369 27.1758Z" fill="white"/>
<path d="M60.2369 31.7732H66.7009C67.1802 31.7732 67.5875 31.366 67.5875 30.8866C67.5875 30.4072 67.1802 30 66.7009 30H60.2369C59.7576 30 59.3503 30.4072 59.3503 30.8866C59.3503 31.366 59.7576 31.7732 60.2369 31.7732Z" fill="white"/>
<path d="M25.3247 50.0163C26.5205 48.8204 27.7216 47.6194 28.9174 46.4235C30.8246 44.5163 32.737 42.6039 34.6442 40.6967C35.0824 40.2585 35.5205 39.8204 35.9587 39.3822H34.7009C36.9432 41.6245 39.1906 43.8719 41.4329 46.1142C41.7576 46.4389 42.0772 46.7585 42.402 47.0833C42.8092 47.4905 43.5102 47.3977 43.7989 46.9029C44.9381 44.9647 46.0721 43.0266 47.2112 41.0884L52.6494 31.8255C53.0669 31.1142 53.4793 30.408 53.8968 29.6967C54.4793 28.707 52.9432 27.8152 52.3607 28.7998C51.2216 30.7379 50.0875 32.6761 48.9484 34.6142C47.1339 37.7018 45.3247 40.7895 43.5102 43.8771C43.0927 44.5884 42.6803 45.2946 42.2628 46.006L43.6597 45.8255C41.4174 43.5833 39.17 41.3358 36.9277 39.0936C36.603 38.7688 36.2834 38.4493 35.9587 38.1245C35.6185 37.7843 35.0411 37.7843 34.7009 38.1245C33.5051 39.3204 32.304 40.5214 31.1082 41.7173L25.3814 47.4441C24.9432 47.8822 24.5051 48.3204 24.0669 48.7585C23.2576 49.5678 24.5154 50.8255 25.3247 50.0163Z" fill="white"/>
<path d="M61.1236 69.0831C51.8968 69.0831 44.3916 61.5779 44.3916 52.3511C44.3916 43.1243 51.8968 35.6191 61.1236 35.6191C70.3504 35.6191 77.8555 43.1243 77.8555 52.3511C77.8555 61.5779 70.3504 69.0831 61.1236 69.0831ZM61.1236 37.0985C52.7112 37.0985 45.871 43.9387 45.871 52.3511C45.871 60.7635 52.7112 67.6037 61.1236 67.6037C69.5359 67.6037 76.3761 60.7635 76.3761 52.3511C76.3761 43.9387 69.5359 37.0985 61.1236 37.0985Z" fill="white"/>
<path d="M61.572 64.9381C59.4019 64.9381 57.2576 64.3814 55.3762 63.3298L56.0978 62.036C57.7628 62.9639 59.6545 63.4536 61.572 63.4536C67.7782 63.4536 72.8246 58.4072 72.8246 52.201C72.8246 45.9948 67.7782 40.9484 61.572 40.9484C55.3659 40.9484 50.3195 45.9948 50.3195 52.201C50.3195 53.835 50.6648 55.4123 51.3401 56.8865L49.9947 57.5051C49.2267 55.835 48.8401 54.0515 48.8401 52.201C48.8401 45.1804 54.5514 39.4639 61.5772 39.4639C68.603 39.4639 74.3143 45.1752 74.3143 52.201C74.3143 59.2268 68.603 64.9381 61.5772 64.9381H61.572Z" fill="white"/>
<path d="M61.6287 44.8096C61.6648 44.8199 61.7009 44.8354 61.7369 44.8508C61.9277 44.923 61.6235 44.7993 61.6648 44.8199C61.7215 44.8457 61.7833 44.8714 61.84 44.8972C62.1854 45.057 62.5204 45.2426 62.8452 45.4436C63.0668 45.5828 63.273 45.7323 63.4844 45.8869C63.6081 45.9797 63.3503 45.7787 63.505 45.9024C63.5565 45.9436 63.6081 45.9849 63.6648 46.0312C63.7885 46.1343 63.907 46.2426 64.0256 46.3508C64.2524 46.5622 64.4689 46.789 64.6699 47.0261C64.7215 47.0879 64.773 47.1446 64.8194 47.2065C64.8503 47.2426 64.8761 47.2787 64.907 47.3147C64.9019 47.3096 64.8194 47.191 64.871 47.2735C64.974 47.4281 65.0926 47.5776 65.1957 47.7374C65.4174 48.0879 65.6132 48.4488 65.7782 48.8302C65.706 48.6704 65.8194 48.9385 65.8349 48.9848C65.871 49.0879 65.907 49.191 65.9431 49.289C66.0204 49.5312 66.0875 49.7735 66.1442 50.0209C66.2524 50.49 66.7885 50.7632 67.2369 50.6395C67.7163 50.5055 67.9637 50.0158 67.8555 49.5467C67.2369 46.8611 65.3143 44.5983 62.8452 43.4127C62.6029 43.2941 62.3555 43.1859 62.1029 43.0983C61.6648 42.9436 61.1132 43.2735 61.0101 43.7168C60.8967 44.2117 61.1596 44.6446 61.6287 44.8096Z" fill="white"/>
<path d="M78.5877 84.8764C77.433 84.8764 76.3145 84.2784 75.6959 83.2114L69.0413 71.6856C68.598 70.9124 68.4794 70.0155 68.7062 69.1547C68.9382 68.2939 69.4897 67.5774 70.2578 67.1341L72.2371 65.9949C73.8299 65.0774 75.8712 65.6238 76.7887 67.2166L83.4433 78.7423C84.3608 80.3351 83.8144 82.3763 82.2217 83.2939L80.2423 84.4331C79.7165 84.7372 79.1443 84.8764 78.5825 84.8764H78.5877ZM73.9021 67.031C73.5876 67.031 73.2681 67.1083 72.9794 67.2784L71 68.4176C70.5722 68.665 70.2629 69.0619 70.1392 69.5413C70.0155 70.0207 70.0773 70.5155 70.3248 70.9485L76.9794 82.4743C77.4897 83.3557 78.6237 83.6599 79.5103 83.1495L81.4897 82.0104C82.3712 81.5001 82.6753 80.366 82.165 79.4794L75.5103 67.9537C75.1701 67.3609 74.5464 67.031 73.9021 67.031Z" fill="white"/>
<path d="M69.9897 69.0154L67.5928 66.3092L72.134 63.335L74.0206 66.5205L69.9948 69.0154H69.9897ZM69.835 66.6133L70.268 67.103L72 66.0308L71.6443 65.4277L69.8299 66.6133H69.835Z" fill="white"/>
<path d="M77.2421 78.5673C77.6751 79.3456 78.1081 80.124 78.5359 80.9023L78.7215 81.2374C78.9483 81.6446 79.5411 81.8147 79.938 81.557C80.3349 81.2992 80.4999 80.7786 80.2576 80.3405C79.8246 79.5621 79.3916 78.7838 78.9638 78.0054L78.7782 77.6704C78.5514 77.2632 77.9586 77.093 77.5617 77.3508C77.1648 77.6085 76.9999 78.1291 77.2421 78.5673Z" fill="white"/>
<path d="M68.1598 53.6804C68.7718 53.6804 69.268 53.1842 69.268 52.5721C69.268 51.96 68.7718 51.4639 68.1598 51.4639C67.5477 51.4639 67.0515 51.96 67.0515 52.5721C67.0515 53.1842 67.5477 53.6804 68.1598 53.6804Z" fill="white"/>
</g>
<defs>
<clipPath id="clip0_47_33329">
<rect width="100" height="100" fill="white"/>
</clipPath>
</defs>
</svg>
