<svg width="100" height="100" viewBox="0 0 100 100" fill="none" xmlns="http://www.w3.org/2000/svg">
<g clip-path="url(#clip0_48_33548)">
<path d="M50 100C77.6142 100 100 77.6142 100 50C100 22.3858 77.6142 0 50 0C22.3858 0 0 22.3858 0 50C0 77.6142 22.3858 100 50 100Z" fill="#3078F6"/>
<path d="M65.1084 17.8916C65.9589 16.6132 66.8146 15.3349 67.6651 14.0565L68.031 13.5101C68.3506 13.0307 68.1393 12.2782 67.6393 12.0101C67.0878 11.7163 66.4795 11.8916 66.1393 12.4019C65.2888 13.6802 64.4331 14.9586 63.5826 16.2369L63.2166 16.7833C62.897 17.2627 63.1084 18.0153 63.6084 18.2833C64.1599 18.5771 64.7682 18.4019 65.1084 17.8916Z" fill="white"/>
<path d="M67.6392 22.0823C69.2475 20.9741 70.8506 19.871 72.4588 18.7627L73.1495 18.2885C73.6186 17.9637 73.8815 17.3143 73.5413 16.7885C73.2372 16.3194 72.5465 16.0462 72.0413 16.3967C70.433 17.505 68.83 18.6081 67.2217 19.7163L66.531 20.1906C66.0619 20.5153 65.799 21.1648 66.1392 21.6906C66.4434 22.1596 67.1341 22.4328 67.6392 22.0823Z" fill="white"/>
<path d="M48.1185 61.1904C46.6236 61.1904 45.1906 60.4893 44.2731 59.3141L40.6958 55.2935H55.0205L52.1906 58.9945C51.2834 60.3708 49.768 61.1904 48.1185 61.1904ZM45.5876 57.4842L45.9948 57.9429C46.4999 58.6027 47.2937 58.9945 48.1236 58.9945C49.0412 58.9945 49.8814 58.5357 50.3762 57.7677L50.4278 57.6955L50.5876 57.4842H45.5876Z" fill="white"/>
<path d="M70.1289 27.3659C71.8299 27.0411 73.5258 26.7216 75.2268 26.3968L75.9639 26.2576C76.5309 26.1494 76.9021 25.4432 76.732 24.9071C76.5361 24.304 75.9897 24.0257 75.3815 24.1391C73.6804 24.4638 71.9846 24.7834 70.2835 25.1082L69.5464 25.2473C68.9794 25.3556 68.6083 26.0618 68.7784 26.5978C68.9742 27.2009 69.5206 27.4793 70.1289 27.3659Z" fill="white"/>
<path d="M46.9123 48.5047L44.7525 48.1336C45.268 45.1233 46.0206 38.9171 45.7989 33.7058C45.3762 33.6852 44.9381 33.6491 44.4845 33.5975C39.4845 33.0202 38.4381 30.0305 38.2164 28.7728C37.8298 26.546 38.9175 24.1851 40.7474 23.2831C42.2886 22.5202 44.036 22.9583 45.4175 24.4532C46.7989 25.948 47.5154 28.5305 47.8402 31.4635C48.1597 31.4326 48.4639 31.3862 48.7525 31.3346C48.8917 29.3913 49.1546 27.5563 49.5876 26.0099C50.9123 21.2934 53.0721 20.979 53.9329 21.0614C55.4999 21.2109 56.634 22.7986 56.8195 25.1027C56.9381 26.5614 56.3608 28.9687 54.3298 30.9326C53.5463 31.6903 52.4175 32.4944 50.8505 33.0408C50.5876 40.046 51.7061 48.0511 51.7216 48.1594L49.5515 48.4687C49.4896 48.0357 48.4432 40.5563 48.634 33.5717C48.4278 33.6027 48.2164 33.6284 47.9948 33.6491C48.2938 40.0769 47.1134 47.2831 46.9072 48.4996L46.9123 48.5047ZM42.3092 25.1078C42.1082 25.1078 41.9123 25.1542 41.7216 25.2522C40.8865 25.6645 40.134 26.9841 40.3814 28.4016C40.6701 30.0563 42.2164 31.1284 44.7371 31.4223C45.0463 31.4583 45.3505 31.4841 45.6391 31.5047C45.3711 29.0666 44.8092 27.0357 43.8041 25.948C43.2938 25.3913 42.7886 25.113 42.3041 25.113L42.3092 25.1078ZM53.701 23.247C53.3402 23.247 52.4123 24.046 51.6958 26.6078C51.3659 27.7779 51.1494 29.1439 51.0103 30.613C51.7783 30.2367 52.3659 29.7934 52.8092 29.3656C54.1855 28.0305 54.7216 26.3192 54.6391 25.2934C54.5257 23.9016 53.9896 23.2779 53.7268 23.2522C53.7216 23.2522 53.7113 23.2522 53.7061 23.2522L53.701 23.247Z" fill="white"/>
<path d="M48.7011 49.8607C45.0516 49.8607 41.5464 48.6494 40.6341 48.2061C39.5413 47.6803 39.3557 46.2164 39.0722 44.0102C38.799 41.8813 38.4588 39.2318 37.2578 38.0308C34.2578 35.0308 32.9176 31.2989 33.0413 26.2782C33.1701 21.1597 37.2372 13.0669 47.6134 13.0669C47.6444 13.0669 47.6753 13.0669 47.7114 13.0669C54.232 13.0978 59.299 16.0257 61.6083 21.0978C64.1959 26.7834 62.7784 34.0411 58 39.5824C55.3093 42.7061 55.8506 46.6236 55.8557 46.6597L55.9433 47.237L55.5103 47.6339C53.665 49.3143 51.1495 49.8556 48.7062 49.8556L48.7011 49.8607ZM41.7165 46.2937C43.098 46.8865 49.9743 49.0514 53.6237 46.3504C53.5413 44.8968 53.6547 41.2628 56.3351 38.1545C60.5567 33.2576 61.8454 26.9174 59.6083 22.0102C57.6392 17.6855 53.4124 15.2937 47.7011 15.2628C47.6753 15.2628 47.6444 15.2628 47.6186 15.2628C38.799 15.2628 35.3454 22.0463 35.2372 26.3349C35.1289 30.7731 36.2268 33.9019 38.8093 36.4793C40.5413 38.2112 40.933 41.2731 41.2475 43.7318C41.366 44.6494 41.5258 45.8916 41.7165 46.2885V46.2937Z" fill="white"/>
<path d="M48.4537 57.6234C47.9743 57.6234 47.5104 57.6182 47.0722 57.6079C41.2784 57.4636 40.83 56.7213 40.5619 56.278C40.0207 55.376 40.1083 54.644 40.2784 54.1904C40.3351 54.0358 40.4537 53.6543 40.3145 53.4017C40.1238 53.0461 40.0155 52.6543 39.9949 52.2265C39.9743 51.7574 40.1135 51.3038 40.4073 50.9121C40.4691 50.8296 40.4279 50.6646 40.3609 50.5461C40.2063 50.278 40.1032 49.9791 40.0568 49.6595C39.9691 49.0409 40.1135 48.4688 40.4795 47.9997C41.1444 47.144 42.2887 46.9791 42.5155 46.9584L42.8609 46.9224L43.165 47.0873C45.5722 48.4172 50.8609 47.7316 52.732 47.345C53.0929 47.2523 54.5207 46.9481 55.4846 47.6698C55.9846 48.0461 56.2681 48.6234 56.2836 49.3038C56.2939 49.8811 56.1186 50.3966 55.7681 50.8038C56.0413 51.1389 56.2114 51.5255 56.263 51.9327C56.3351 52.4739 56.1908 52.9945 55.8557 53.4327C55.83 53.4636 55.8145 53.4945 55.8094 53.5203C56.2423 54.0925 56.3764 54.778 56.1856 55.4224C56.0258 55.9636 55.5619 56.7007 54.2784 57.1286C53.1444 57.5048 50.6702 57.6337 48.4588 57.6337L48.4537 57.6234ZM42.3506 54.9533C43.8867 55.4739 51.7217 55.6543 53.5825 55.0358C53.8403 54.9481 53.9743 54.8657 54.0362 54.809C53.4485 54.0512 53.4588 53.0048 54.0516 52.1698C54.0465 52.1646 54.0362 52.1543 54.031 52.1492C53.6753 51.7987 53.4795 51.3244 53.4795 50.8193C53.4795 50.2987 53.696 49.7832 54.0671 49.4017C53.8712 49.376 53.5258 49.4017 53.2578 49.4688L53.2011 49.4842C52.9073 49.5461 46.2114 50.9121 42.4846 49.2007C42.3712 49.2368 42.2733 49.2883 42.2269 49.3296C42.2269 49.3347 42.2269 49.3399 42.2269 49.3502C42.232 49.3863 42.2423 49.4172 42.2527 49.443C42.7733 50.3347 42.7527 51.4121 42.1908 52.1904C42.2011 52.2574 42.2166 52.309 42.2423 52.3554C42.6496 53.0976 42.6805 54.0203 42.3403 54.9481C42.3403 54.9481 42.3403 54.9481 42.3506 54.9636V54.9533Z" fill="white"/>
<path d="M27.5722 75.5978L27.0567 75.2936C26.6804 75.072 17.8506 69.6957 14.964 56.2576C12.8712 46.505 15.7578 39.7885 18.866 37.005C19.8454 36.1287 20.6908 35.804 21.3866 36.0359C22.6856 36.4689 22.6289 37.9689 22.5155 40.6854C22.4227 42.9895 22.2938 46.1442 22.8557 49.6957C23.4124 53.206 24.866 56.2576 26.1031 58.3349C26.2062 57.3143 26.3815 56.3761 26.5619 55.7318C26.6598 55.371 26.7887 54.7576 26.9382 54.0514C27.8918 49.4844 28.5258 47.5308 29.964 47.2421C30.3609 47.1596 31.1289 47.1699 31.8093 48.1493C33.8866 51.1493 33.3196 54.1493 32.598 56.4277C32.2217 57.6235 32.6444 58.438 33.5 59.9019C33.9279 60.6338 34.4176 61.4689 34.7939 62.4741C35.9073 65.438 35.3145 70.9534 35.2887 71.1854L35.2217 71.7782L27.5774 75.6029L27.5722 75.5978ZM20.3763 38.5617C18.5619 40.1132 14.964 45.804 17.1083 55.7936C19.4073 66.505 25.8815 71.7833 27.6959 73.0823L33.1598 70.3503C33.3042 68.572 33.4227 65.0565 32.7371 63.2369C32.4279 62.407 32.0103 61.6905 31.6031 60.9998C30.7217 59.4947 29.8145 57.938 30.5052 55.7576C31.3042 53.2421 31.2475 51.4844 30.2938 49.8452C29.8145 50.9844 29.3196 53.3555 29.0825 54.4947C28.9279 55.2421 28.7887 55.8916 28.6701 56.3194C28.3196 57.5617 28.0103 60.1287 28.3248 61.706L29.1495 65.8194L26.4176 62.6338C26.232 62.4174 21.8196 57.2009 20.6856 50.0308C20.0928 46.2627 20.2268 42.9844 20.3248 40.5926C20.3557 39.8864 20.3866 39.1235 20.3763 38.5617Z" fill="white"/>
<path d="M32.5876 85.0513L31.7834 83.0101L41.0412 79.3709C40.7474 78.474 40.3247 77.1132 40.0206 75.8039C39.701 74.4482 38.9639 72.6544 37.9381 72.0513C37.5979 71.8555 37.2628 71.8142 36.8711 71.9225C35.103 72.4276 28.8608 75.3245 24.9999 77.1699L28.7267 83.072L26.8711 84.2421L21.8298 76.2627L22.9381 75.7266C23.3762 75.5153 33.6494 70.5617 36.268 69.8142C37.2319 69.541 38.1958 69.6596 39.0463 70.1596C41.0876 71.3606 41.9381 74.3967 42.1546 75.2988C42.634 77.3348 43.4381 79.6132 43.4484 79.639L43.8041 80.639L32.5876 85.0462V85.0513Z" fill="white"/>
<path d="M37.1187 75.2574C37.8247 75.2574 38.397 74.6851 38.397 73.979C38.397 73.273 37.8247 72.7007 37.1187 72.7007C36.4127 72.7007 35.8403 73.273 35.8403 73.979C35.8403 74.6851 36.4127 75.2574 37.1187 75.2574Z" fill="white"/>
<path d="M72.4278 75.412L64.7834 71.5872L64.7164 70.9944C64.6907 70.7625 64.0979 65.247 65.2113 62.2831C65.5876 61.2779 66.0773 60.4429 66.5051 59.7109C67.3556 58.2522 67.7834 57.4377 67.4071 56.2367C66.6855 53.9584 66.1236 50.9584 68.1958 47.9584C68.8711 46.979 69.6391 46.9687 70.0412 47.0511C71.4793 47.345 72.1133 49.2986 73.0669 53.8604C73.2164 54.5718 73.3453 55.1852 73.4432 55.5408C73.6236 56.18 73.7989 57.1182 73.902 58.1439C75.1391 56.0666 76.5979 53.0151 77.1494 49.5047C77.7113 45.9532 77.5824 42.7986 77.4896 40.4944C77.3762 37.7779 77.3195 36.2779 78.6185 35.845C79.3144 35.613 80.1597 35.9429 81.1391 36.814C84.2474 39.5975 87.1391 46.3089 85.0412 56.0666C82.1546 69.5047 73.3247 74.881 72.9484 75.1027L72.4329 75.4068L72.4278 75.412ZM66.8401 70.1645L72.3041 72.8965C74.1185 71.5975 80.5927 66.3243 82.8917 55.6078C85.036 45.6181 81.4381 39.9274 79.6236 38.3759C79.6133 38.9377 79.6494 39.7006 79.6752 40.4068C79.7731 42.8037 79.9071 46.0821 79.3144 49.845C78.1803 57.0099 73.768 62.2264 73.5824 62.448L70.8504 65.6336L71.6752 61.5202C71.9896 59.9429 71.6752 57.3759 71.3298 56.1336C71.2113 55.7058 71.0721 55.0563 70.9175 54.3089C70.6803 53.1749 70.1855 50.7986 69.7061 49.6594C68.7525 51.2986 68.6958 53.0563 69.4948 55.5718C70.1855 57.7522 69.2731 59.3089 68.3968 60.814C67.9948 61.5048 67.5773 62.2212 67.2628 63.0511C66.5773 64.8759 66.6958 68.3862 66.8401 70.1645Z" fill="white"/>
<path d="M67.4123 84.8709L56.1958 80.4637L56.5515 79.4637C56.5515 79.4637 57.3659 77.1596 57.8453 75.1235C58.0566 74.2214 58.9071 71.1853 60.9535 69.9843C61.8092 69.4843 62.768 69.3657 63.7319 69.6389C66.3504 70.3864 76.6288 75.34 77.0618 75.5513L78.17 76.0874L73.1288 84.0668L71.2731 82.8967L74.9999 76.9946C71.1391 75.1492 64.8968 72.2523 63.1288 71.7472C62.737 71.6338 62.3968 71.675 62.0618 71.876C61.036 72.4791 60.2989 74.273 59.9793 75.6286C59.67 76.9327 59.2525 78.2987 58.9587 79.1956L68.2164 82.8348L67.4123 84.876V84.8709Z" fill="white"/>
<path d="M62.8814 75.0772C63.5874 75.0772 64.1597 74.5049 64.1597 73.7989C64.1597 73.0928 63.5874 72.5205 62.8814 72.5205C62.1754 72.5205 61.603 73.0928 61.603 73.7989C61.603 74.5049 62.1754 75.0772 62.8814 75.0772Z" fill="white"/>
</g>
<defs>
<clipPath id="clip0_48_33548">
<rect width="100" height="100" fill="white"/>
</clipPath>
</defs>
</svg>
