<svg width="100" height="100" viewBox="0 0 100 100" fill="none" xmlns="http://www.w3.org/2000/svg">
<g clip-path="url(#clip0_51_36615)">
<path class="background" d="M50 100C77.6142 100 100 77.6142 100 50C100 22.3858 77.6142 0 50 0C22.3858 0 0 22.3858 0 50C0 77.6142 22.3858 100 50 100Z" fill="white"/>
<path class="inner" d="M49.9746 72.7784C46.6395 72.7784 43.3045 72.7784 39.9694 72.7784C38.7117 72.7784 38.454 72.5413 38.2942 71.3145C37.7684 67.2939 36.6086 63.5052 34.0519 60.2681C33.2942 59.3093 32.5107 58.3712 31.7014 57.4588C29.088 54.5001 27.9797 51.0104 27.789 47.1135C27.4746 40.732 29.3251 35.1341 33.6395 30.4176C36.7529 27.0104 40.5777 24.7681 45.1086 23.7578C48.8457 22.9227 52.5674 22.9846 56.222 24.0928C62.5777 26.0207 67.2529 29.9949 70.1395 35.9949C72.222 40.3145 72.6241 44.866 71.9797 49.5774C71.5107 53.0104 69.8921 55.83 67.5777 58.2939C64.4746 61.598 62.588 65.4691 61.9024 69.9382C61.8251 70.4485 61.7323 70.9588 61.6756 71.4743C61.5622 72.4537 61.2117 72.7836 60.2323 72.7836C56.8148 72.7836 53.3973 72.7836 49.9797 72.7836L49.9746 72.7784ZM49.9797 70.7526C49.9797 70.7526 49.9797 70.7475 49.9797 70.7423C52.9437 70.7423 55.9024 70.7269 58.8663 70.7526C59.4437 70.7578 59.7117 70.6186 59.8045 70.0052C60.1292 67.83 60.6962 65.7166 61.5313 63.6753C62.588 61.1032 64.2684 58.9588 66.0983 56.9176C68.1653 54.6135 69.588 52.0258 69.99 48.9021C70.5725 44.3867 70.0622 40.0568 67.8715 36.0155C63.1808 27.3557 53.4282 23.3093 44.0777 26.1083C35.8303 28.5774 29.9282 36.5001 29.7736 45.1032C29.6859 49.9434 31.0983 54.1032 34.4694 57.6444C35.6808 58.9176 36.6705 60.4434 37.5725 61.964C38.9643 64.299 39.6602 66.9073 40.0777 69.5825C40.2632 70.7526 40.2529 70.7526 41.4024 70.7526C44.2581 70.7526 47.1189 70.7526 49.9746 70.7526H49.9797Z" fill="#3078F6"/>
<path class="inner" d="M49.9849 77.8867C47.1911 77.8867 44.3973 77.8867 41.5983 77.8867C41.088 77.8867 40.5777 77.8043 40.4385 77.2682C40.3561 76.9383 40.4179 76.4331 40.6293 76.2012C40.8509 75.9589 41.3251 75.8507 41.686 75.8455C44.1705 75.8146 46.655 75.8249 49.1396 75.8197C52.0365 75.8197 54.9385 75.8197 57.8355 75.8197C58.1241 75.8197 58.4179 75.8094 58.7014 75.8455C59.3303 75.9228 59.6757 76.3043 59.6602 76.8558C59.6396 77.4434 59.253 77.8403 58.6138 77.8558C57.4952 77.8816 56.3767 77.8764 55.2581 77.8764C53.5004 77.8764 51.7375 77.8764 49.9798 77.8764L49.9849 77.8867Z" fill="#3078F6"/>
<path class="inner" d="M50.0208 82.2267C47.8456 82.2267 45.6755 82.2215 43.5002 82.2267C42.9435 82.2267 42.5157 82.0617 42.3404 81.505C42.1239 80.8246 42.6136 80.2112 43.4023 80.2009C45.3249 80.1854 47.2528 80.1958 49.1755 80.1958C51.6394 80.1958 54.1033 80.2061 56.5672 80.2009C57.0775 80.2009 57.526 80.3659 57.6239 80.871C57.6858 81.2061 57.5724 81.6597 57.3662 81.9329C57.2115 82.139 56.7837 82.2164 56.4796 82.2215C54.325 82.2473 52.1755 82.2318 50.0208 82.2318V82.2267Z" fill="#3078F6"/>
<path class="inner" d="M49.9641 86.5926C48.3095 86.5926 46.6549 86.5926 44.9951 86.5926C44.4538 86.5926 44.0105 86.4225 43.8456 85.8503C43.6445 85.1648 44.1239 84.5771 44.928 84.5617C46.2734 84.5359 47.6188 84.541 48.9641 84.5462C50.9693 84.5462 52.9796 84.5565 54.9847 84.5617C55.5054 84.5617 55.928 84.7163 56.1188 85.2421C56.3713 85.9276 55.8817 86.5771 55.0466 86.5874C53.3507 86.6132 51.6549 86.5926 49.9538 86.5977L49.9641 86.5926Z" fill="#3078F6"/>
<path class="inner" d="M19.4227 46.7215C18.1598 46.7215 16.9021 46.7215 15.6392 46.7215C14.9588 46.7215 14.5361 46.3452 14.5258 45.7473C14.5103 45.1545 14.9227 44.7112 15.598 44.706C18.1598 44.6854 20.7217 44.6854 23.2835 44.6957C24.0155 44.6957 24.4227 45.1081 24.4176 45.7318C24.4176 46.3607 24.0155 46.7164 23.2629 46.7215C21.9794 46.7318 20.7011 46.7215 19.4176 46.7215H19.4227Z" fill="#3078F6"/>
<path class="inner" d="M80.5618 44.6857C81.8453 44.6857 83.1288 44.6703 84.4123 44.6909C85.2216 44.7064 85.7113 45.4022 85.3556 46.0878C85.2113 46.361 84.8144 46.6754 84.5309 46.6806C81.8814 46.7321 79.2319 46.7321 76.5824 46.7167C75.9226 46.7167 75.5876 46.3095 75.5979 45.6909C75.6082 45.1136 76.0051 44.7167 76.6494 44.7064C77.9536 44.6857 79.2577 44.7012 80.5618 44.7012V44.6909V44.6857Z" fill="#3078F6"/>
<path class="inner" d="M37.8346 22.8248C37.5717 23.1032 37.3398 23.4898 37.0047 23.665C36.5408 23.9021 36.113 23.6392 35.8553 23.2114C35.2934 22.2939 34.7522 21.366 34.2161 20.4382C33.4687 19.1496 32.7058 17.8764 32.0202 16.5568C31.8449 16.2217 31.7986 15.6753 31.9532 15.3506C32.2934 14.6444 33.2264 14.6908 33.6594 15.4073C34.6491 17.0568 35.5975 18.7217 36.5614 20.3867C36.8604 20.9021 37.1697 21.4176 37.4583 21.9434C37.5872 22.1753 37.6697 22.4279 37.8398 22.8248H37.8346Z" fill="#3078F6"/>
<path class="inner" d="M20.0155 64.062C19.7578 63.8249 19.3764 63.6135 19.2217 63.2888C18.9898 62.8145 19.1805 62.3455 19.6496 62.062C20.4125 61.6032 21.1856 61.1651 21.9588 60.7218C23.4125 59.8867 24.8609 59.0413 26.3197 58.2218C27.1289 57.7681 27.9228 58.1393 27.9846 58.9743C28.0259 59.5156 27.6702 59.7991 27.263 60.0362C25.6496 60.964 24.031 61.8867 22.4176 62.8145C21.897 63.1135 21.3815 63.4279 20.8558 63.7166C20.6444 63.8352 20.4021 63.9073 20.0155 64.062Z" fill="#3078F6"/>
<path class="inner" d="M68.3607 15.7318C68.1803 16.1545 68.0926 16.4329 67.9483 16.6751C66.7679 18.737 65.5823 20.7988 64.3865 22.8556C64.2627 23.0669 64.1287 23.2885 63.9535 23.4535C63.5978 23.7885 63.1854 23.8556 62.7679 23.5617C62.3813 23.2885 62.1597 22.9071 62.3401 22.438C62.4947 22.036 62.7215 21.6597 62.938 21.2834C64.0566 19.3298 65.1803 17.3762 66.3091 15.4226C66.572 14.9638 66.9947 14.6751 67.4947 14.9071C67.8401 15.0669 68.0823 15.4483 68.3555 15.7215L68.3607 15.7318Z" fill="#3078F6"/>
<path class="inner" d="M27.9899 32.2061C27.9692 33.2525 27.1703 33.6907 26.4228 33.2732C25.16 32.567 23.9125 31.8299 22.6548 31.1082C21.7579 30.5927 20.861 30.0773 19.9692 29.5515C19.1703 29.0824 18.9589 28.5876 19.2785 28.0103C19.6084 27.4175 20.16 27.3196 20.9435 27.768C23.0826 28.9897 25.2167 30.2216 27.3301 31.4793C27.6496 31.6701 27.8507 32.0464 27.9899 32.201V32.2061Z" fill="#3078F6"/>
<path class="inner" d="M79.7376 27.4796C80.3304 27.4744 80.6602 27.7321 80.8046 28.1909C80.9541 28.6703 80.8355 29.093 80.3716 29.3662C79.3355 29.9693 78.3046 30.5775 77.2685 31.1754C76.0365 31.8868 74.8046 32.6136 73.552 33.294C72.8097 33.6961 71.985 33.2115 72.0572 32.4022C72.0829 32.1033 72.3046 31.7064 72.552 31.5569C74.784 30.2218 77.0468 28.928 79.2994 27.6342C79.4541 27.5466 79.6448 27.5156 79.7376 27.4847V27.4796Z" fill="#3078F6"/>
<path class="inner" d="M80.8607 62.7322C80.8504 63.7477 80.0978 64.2065 79.3556 63.8302C78.6185 63.4539 77.9123 63.0209 77.1958 62.6034C75.6906 61.7322 74.1906 60.8611 72.6855 59.99C72.2886 59.758 71.9844 59.4693 72.036 58.959C72.1236 58.1188 72.8453 57.7632 73.6442 58.2065C74.9793 58.9539 76.2989 59.7322 77.6236 60.5003C78.4999 61.0054 79.3968 61.49 80.2473 62.0363C80.5463 62.2271 80.7319 62.5827 80.8556 62.7322H80.8607Z" fill="#3078F6"/>
<path class="inner" d="M51.0099 15.2836C51.0099 16.5258 51.015 17.7629 51.0099 19.0052C51.0047 19.732 50.6233 20.165 50.0099 20.165C49.4222 20.165 48.9893 19.7062 48.9893 19.0052C48.9789 16.4846 48.9738 13.9588 48.9893 11.4382C48.9944 10.531 49.5923 10.0619 50.3398 10.3145C50.8398 10.4846 51.0253 10.8609 51.0202 11.3712C51.0099 12.6753 51.0202 13.9743 51.0202 15.2784C51.0202 15.2784 51.0202 15.2784 51.015 15.2784L51.0099 15.2836Z" fill="#3078F6"/>
<path class="inner" d="M42.3714 33.4384C43.8559 33.4538 45.624 34.191 47.3456 35.0724C48.0466 35.4281 48.7271 35.8301 49.3765 36.2631C49.8198 36.5569 50.1549 36.5569 50.6085 36.2631C52.3972 35.0879 54.2786 34.0776 56.3972 33.6343C57.1343 33.4796 57.691 33.1858 58.2374 32.6549C59.5724 31.3559 61.8765 31.5569 63.1343 32.9899C64.3405 34.3662 64.1652 36.5569 62.7992 37.8147C62.5106 38.0776 62.2889 38.5054 62.2116 38.8971C61.7631 41.1755 60.6961 43.1755 59.4642 45.1033C59.1704 45.5621 59.1549 45.8817 59.4539 46.325C60.6188 48.0466 61.6188 49.8817 62.0415 51.9281C62.258 52.9796 62.2889 54.1188 62.1394 55.1807C61.9023 56.9023 60.3456 58.0157 58.3765 58.0569C56.3662 58.0982 54.5673 57.3611 52.8301 56.4642C52.0209 56.0466 51.2425 55.5724 50.4745 55.0827C50.124 54.8559 49.8765 54.8559 49.526 55.0827C47.7734 56.2374 45.9487 57.2528 43.8765 57.7219C43.1343 57.8868 42.3611 58.0157 41.6033 58.0002C38.5673 57.9487 37.3765 55.6961 37.6755 53.2064C37.959 50.8714 38.9126 48.7837 40.2013 46.8662C40.7683 46.0209 40.8147 45.4229 40.2116 44.5724C39.1704 43.0982 38.4075 41.4538 37.9539 39.6961C37.7838 39.0363 37.6549 38.3559 37.6394 37.6755C37.5673 34.9899 39.1188 33.4538 42.3611 33.4384H42.3714ZM56.4642 45.727C56.3662 45.5672 56.2992 45.4178 56.1961 45.2941C54.4899 43.1446 52.5466 41.2322 50.4178 39.5054C50.1291 39.2683 49.8817 39.2631 49.593 39.5054C47.4487 41.2477 45.4848 43.1652 43.7734 45.3456C43.526 45.66 43.5621 45.8714 43.7889 46.1549C45.4899 48.2528 47.3714 50.1652 49.4745 51.8662C49.8456 52.1652 50.1188 52.1858 50.5054 51.8765C52.6085 50.1755 54.5106 48.2786 56.191 46.1652C56.2889 46.0363 56.3662 45.892 56.4642 45.7374V45.727ZM51.8869 53.5776C53.8765 54.7631 55.8456 55.9538 58.2271 56.0415C59.6033 56.093 60.3456 55.227 60.2734 53.8198C60.1755 51.8095 59.2734 50.0827 58.3147 48.3868C58.1652 48.1239 57.9848 47.8817 57.825 47.6394C55.8456 49.6239 53.9075 51.5569 51.8869 53.5827V53.5776ZM42.1188 47.593C41.6291 48.5054 41.1085 49.3868 40.6755 50.3095C40.1394 51.4538 39.691 52.6394 39.6858 53.9281C39.6858 55.2219 40.3044 55.8868 41.5827 55.9745C41.9281 56.0002 42.2838 55.9745 42.6291 55.9178C44.5724 55.6188 46.2683 54.7322 47.8972 53.691C47.9745 53.6394 48.0209 53.5363 48.0466 53.5002C46.0827 51.5415 44.1497 49.6136 42.1137 47.5827L42.1188 47.593ZM42.191 43.8198C42.3456 43.7064 42.4745 43.6446 42.5673 43.5466C44.3095 41.8147 46.0363 40.0672 47.7889 38.3456C48.1497 37.9951 48.0621 37.7889 47.6858 37.6033C46.4436 36.9951 45.2271 36.3198 43.9435 35.825C43.1961 35.5363 42.3301 35.4693 41.5157 35.4538C40.4796 35.4384 39.8198 36.0621 39.7889 37.093C39.7683 37.8868 39.8508 38.7116 40.0673 39.4693C40.5106 41.0209 41.2322 42.459 42.1961 43.8147L42.191 43.8198ZM57.5724 43.9745C58.7838 42.4229 59.5054 41.0002 59.9899 39.4435C60.16 38.8971 60.0724 38.6652 59.5209 38.5105C58.3301 38.1806 57.5673 37.3611 57.2167 36.1961C57.0518 35.6446 56.7683 35.5312 56.3147 35.7374C54.9796 36.3404 53.66 36.9693 52.3301 37.593C51.7992 37.8404 51.9487 38.0724 52.2941 38.4075C53.9642 40.0415 55.6137 41.6961 57.2528 43.3559C57.4075 43.5105 57.4642 43.7631 57.5724 43.9693V43.9745ZM61.8972 35.2116C61.9229 34.4538 61.3714 33.8714 60.5982 33.8559C59.7734 33.8353 59.1188 34.4435 59.093 35.258C59.0673 36.0209 59.7477 36.6394 60.6085 36.6497C61.2374 36.6549 61.8662 35.9538 61.8972 35.2167V35.2116Z" fill="#3078F6"/>
<path class="inner" d="M49.9745 49.1496C48.0672 49.1289 46.5105 47.5722 46.5415 45.7114C46.5724 43.8094 48.1291 42.2578 49.9951 42.2681C51.9229 42.2784 53.4848 43.8557 53.4538 45.7578C53.4229 47.6547 51.8662 49.1702 49.9745 49.1496ZM51.3714 45.6805C51.3559 44.8867 50.7837 44.3197 49.9951 44.3197C49.2064 44.3197 48.6136 44.9434 48.6239 45.763C48.6343 46.5413 49.2322 47.1289 50.0054 47.1238C50.8044 47.1238 51.3868 46.5001 51.3714 45.6805Z" fill="#3078F6"/>
</g>
<defs>
<clipPath id="clip0_51_36615">
<rect width="100" height="100" fill="white"/>
</clipPath>
</defs>
</svg>
