<svg width="100" height="100" viewBox="0 0 100 100" fill="none" xmlns="http://www.w3.org/2000/svg">
<g clip-path="url(#clip0_50_33824)">
<path d="M50 100C77.6142 100 100 77.6142 100 50C100 22.3858 77.6142 0 50 0C22.3858 0 0 22.3858 0 50C0 77.6142 22.3858 100 50 100Z" fill="#3078F6"/>
<path d="M34.0053 34.995C35.562 35.1754 37.031 34.8558 38.5001 34.562C40.8145 34.0929 43.1341 33.7785 45.4382 34.5156C46.4176 34.83 47.3506 35.2991 48.2888 35.7372C48.5877 35.8764 48.7939 35.9589 49.1187 35.763C52.3094 33.8403 55.6496 33.6599 59.098 34.964C60.3558 35.4383 61.5929 35.9692 62.8609 36.4228C63.6651 36.7115 64.5053 36.928 65.4022 36.5774C65.3558 36.3764 65.3145 36.2115 65.2733 36.0465C64.9073 34.4537 65.6651 32.9228 67.1857 32.3249C68.8661 31.6599 70.562 31.0259 72.2681 30.4331C74.0259 29.8197 75.696 30.696 76.3815 32.531C78.5516 38.3609 80.7114 44.1908 82.8764 50.0156C83.1599 50.7785 83.4589 51.5414 83.7218 52.3146C84.3197 54.0671 83.5568 55.7372 81.83 56.4125C80.2475 57.0311 78.6547 57.6135 77.062 58.196C75.2578 58.8558 73.6651 58.1857 72.8248 56.4434C72.7733 56.3403 72.7011 56.2424 72.5568 56.1445C72.6857 57.7269 72.6187 59.2475 71.5568 60.5207C70.4383 61.8609 69.0104 62.0671 67.4125 61.5362C67.6496 65.263 64.3712 67.3609 61.2681 66.3403C61.3403 67.6754 61.0259 68.8764 60.1238 69.8713C59.2114 70.8816 58.0362 71.3094 56.6341 71.361C56.83 73.0517 56.3506 74.4847 54.9022 75.4434C53.4279 76.4228 51.964 76.0568 50.5156 75.2063C49.5877 76.9486 48.3558 78.2527 46.2372 77.9486C44.2218 77.6599 43.0362 76.3197 42.3558 74.428C39.629 75.3506 37.5723 74.5929 36.2836 71.9383C34.5774 72.928 32.8661 72.9692 31.263 71.7785C29.7166 70.629 29.3352 69.0104 29.6857 67.1496C29.2424 67.1187 28.7991 67.129 28.3712 67.0465C25.464 66.4898 23.9795 63.4898 25.2888 60.83C25.6187 60.1599 26.0001 59.5104 26.3352 58.8403C26.4486 58.6187 26.5001 58.3713 26.629 57.9743C26.3506 58.1187 26.2372 58.1599 26.1393 58.2269C25.2475 58.8609 24.2836 59.0053 23.2475 58.6754C21.6496 58.1651 20.0516 57.6651 18.4589 57.1393C16.4846 56.4898 15.6393 54.8455 16.2733 52.8661C18.0259 47.4073 19.7888 41.9537 21.5465 36.495C21.9331 35.2991 22.3042 34.0981 22.7011 32.9073C23.33 31.0104 24.9795 30.1651 26.8867 30.7579C28.2991 31.196 29.6857 31.7012 31.1083 32.0981C32.6393 32.5259 33.7166 33.3455 33.9898 34.995H34.0053ZM48.2733 67.5259C48.2785 67.4847 48.2888 67.4434 48.2939 67.4022C48.1444 67.3146 47.995 67.2269 47.8506 67.129C47.3815 66.8094 47.2166 66.3764 47.5156 65.8764C47.7888 65.4125 48.2218 65.2991 48.7166 65.5259C48.9176 65.6187 49.1083 65.7269 49.3042 65.83C51.3867 66.9383 53.464 68.0568 55.562 69.1445C57.1187 69.9537 58.8712 69.2166 59.3352 67.5981C59.6754 66.4228 59.1908 65.2579 58.0001 64.5774C56.6393 63.8042 55.2475 63.0826 53.8661 62.3403C53.1857 61.9743 52.4949 61.629 51.8248 61.2424C51.3403 60.964 51.1599 60.5259 51.4382 60.0053C51.7166 59.4847 52.1702 59.4125 52.6857 59.6341C52.8455 59.7012 53.0001 59.7939 53.1547 59.8764C55.9331 61.3661 58.7166 62.8558 61.4898 64.3558C62.2063 64.7424 62.9486 64.8867 63.7218 64.6341C64.7578 64.2939 65.3919 63.5723 65.5207 62.4795C65.6599 61.3042 65.1908 60.397 64.1599 59.83C61.4743 58.3558 58.7733 56.9022 56.0774 55.4383C55.8661 55.3249 55.6393 55.2115 55.464 55.0517C54.9537 54.5774 55.1135 53.7475 55.7836 53.5723C56.0826 53.495 56.4846 53.5929 56.7681 53.7424C58.8558 54.8455 60.9228 55.9898 63.0001 57.1084C64.6135 57.9795 66.2166 58.8609 67.8506 59.6857C69.1496 60.3352 70.1341 59.8713 70.5826 58.495C71.0465 57.0671 70.6805 55.7424 69.2681 54.7166C67.7733 53.6341 66.1908 52.6548 64.5723 51.763C62.33 50.531 59.9486 49.5414 57.7681 48.2218C56.2114 47.2785 54.7218 47.1702 53.098 47.7012C51.4228 48.2475 49.7785 48.9022 48.0929 49.4125C44.2785 50.5671 41.4228 49.7063 39.2269 46.8455C38.8558 46.3609 38.763 45.8867 39.1238 45.397C39.629 44.7012 40.1084 43.9743 40.7114 43.3661C42.7011 41.3609 44.7424 39.4022 46.7578 37.4228C46.8455 37.3403 46.9073 37.2321 46.9898 37.1238C45.0413 36.0259 43.0001 35.7579 40.8661 36.0414C38.5774 36.3455 36.3403 37.0723 33.9846 36.9073C33.8558 36.897 33.629 37.1341 33.5774 37.2939C31.8609 42.5774 30.1393 47.8609 28.464 53.1599C28.2063 53.9692 28.1754 54.8506 28.0362 55.7012C29.5929 54.6032 31.1393 54.1548 32.8248 54.8764C34.4898 55.5929 35.3867 56.9692 35.6341 58.7475C39.0723 58.6238 40.0413 59.3506 41.1547 62.8764C42.6135 62.5362 43.9537 62.8042 45.1084 63.7939C46.263 64.7836 46.6754 66.0981 46.5929 67.5414H48.2888L48.2733 67.5259ZM40.9022 45.9228C41.0104 46.0671 41.0723 46.1599 41.1444 46.2424C42.7475 48.0517 44.7578 48.4537 46.9898 47.8042C48.7218 47.2991 50.4073 46.6341 52.1238 46.0671C53.562 45.5929 55.0465 45.2166 56.5362 45.6702C57.4486 45.9434 58.2785 46.495 59.1341 46.928C61.4949 48.1238 63.8661 49.2991 66.2011 50.5414C68.0156 51.5053 69.7836 52.5465 71.2424 54.031C71.4176 54.2063 71.6702 54.2991 71.8919 54.4331C71.8609 54.1754 71.8764 53.897 71.7888 53.6599C70.5877 50.3919 69.3712 47.129 68.1599 43.8661C67.4795 42.031 66.7939 40.196 66.1187 38.3764C64.0465 38.7063 63.2218 38.6084 61.2424 37.8094C60.3867 37.464 59.5259 37.1187 58.6702 36.7682C55.1496 35.3403 51.8042 35.7527 48.9022 38.1496C46.5104 40.1238 44.3609 42.3919 42.1187 44.5465C41.6805 44.9692 41.3094 45.4692 40.9073 45.9331L40.9022 45.9228ZM73.2011 32.0929C73.0671 32.129 72.83 32.1754 72.6084 32.2579C71.1187 32.8042 69.629 33.3558 68.1444 33.9176C67.098 34.3146 66.8145 34.9331 67.2063 36.0001C69.6084 42.4898 72.0156 48.9847 74.4279 55.4743C74.83 56.562 75.4434 56.8249 76.5568 56.4125C77.9846 55.8867 79.4073 55.3558 80.8352 54.8249C82.062 54.3661 82.3145 53.8146 81.8558 52.5774C80.4434 48.7733 79.031 44.9692 77.6187 41.1702C76.629 38.5053 75.6341 35.8403 74.6496 33.1702C74.4125 32.531 74.0259 32.1135 73.196 32.0981L73.2011 32.0929ZM17.9125 53.8816C17.9022 54.6702 18.2372 55.1084 18.9743 55.3558C20.5413 55.8764 22.1135 56.3919 23.6908 56.8867C24.6702 57.196 25.2888 56.8558 25.6187 55.8506C27.7578 49.2424 29.8867 42.6341 32.0156 36.0207C32.3609 34.9537 32.031 34.3352 30.964 33.9898C29.5156 33.5207 28.0671 33.0568 26.6187 32.5929C25.33 32.1805 24.7991 32.4486 24.3815 33.7372C22.2888 40.2218 20.1908 46.7012 18.098 53.1857C18.0104 53.4589 17.9486 53.7372 17.9073 53.8816H17.9125ZM31.3248 68.3042C31.4125 69.5207 32.0826 70.4073 33.2218 70.7218C34.3248 71.031 35.4537 70.5774 36.0362 69.5207C36.995 67.7836 37.9228 66.0311 38.8455 64.2733C39.5517 62.9228 39.1444 61.4486 37.9073 60.7888C36.6547 60.1238 35.2166 60.5981 34.4898 61.9383C33.5774 63.6238 32.6651 65.3146 31.7836 67.0156C31.5774 67.4176 31.4795 67.8713 31.33 68.3042H31.3248ZM29.0877 65.2682C30.0156 65.2785 30.8094 64.8558 31.2733 64.0207C32.0207 62.6702 32.7578 61.3146 33.4486 59.9331C34.0671 58.7063 33.5826 57.3609 32.3455 56.6496C31.2939 56.0517 29.8094 56.4228 29.1599 57.5362C28.3506 58.928 27.5774 60.3403 26.8867 61.7939C26.1083 63.428 27.3042 65.2475 29.0877 65.263V65.2682ZM40.3815 72.964C41.263 72.964 42.0104 72.6341 42.4486 71.8816C43.1908 70.6084 43.9022 69.3094 44.5362 67.9795C45.0877 66.83 44.5568 65.4537 43.4434 64.8558C42.3042 64.2424 40.8558 64.5878 40.196 65.7115C39.4743 66.9434 38.7785 68.2063 38.1754 69.5001C37.4073 71.1445 38.5877 72.9434 40.3815 72.964ZM46.696 76.1445C47.4331 76.1702 47.9949 75.7991 48.3352 75.2063C48.9125 74.2011 49.4382 73.1548 49.9125 72.0929C50.1702 71.5104 50.1444 70.8919 49.6805 70.3558C48.3919 68.8661 46.2218 69.0362 45.2011 70.7218C44.8815 71.2475 44.5929 71.7939 44.3248 72.3455C43.562 73.928 44.9331 76.1084 46.696 76.1393V76.1445ZM50.8352 68.7424C52.263 70.2012 52.0826 71.8403 51.3815 73.5156C52.8506 74.5259 54.0929 74.3146 54.6651 72.9847C55.1084 71.9589 54.7321 70.8764 53.6805 70.2785C52.7424 69.7424 51.7836 69.2527 50.8352 68.7424Z" fill="white"/>
</g>
<defs>
<clipPath id="clip0_50_33824">
<rect width="100" height="100" fill="white"/>
</clipPath>
</defs>
</svg>
