<svg width="100" height="100" viewBox="0 0 100 100" fill="none" xmlns="http://www.w3.org/2000/svg">
<g clip-path="url(#clip0_47_33362)">
<path d="M50 100C77.6142 100 100 77.6142 100 50C100 22.3858 77.6142 0 50 0C22.3858 0 0 22.3858 0 50C0 77.6142 22.3858 100 50 100Z" fill="#3078F6"/>
<path d="M40.5775 51.7424C30.4899 51.7424 22.2888 43.5362 22.2888 33.4537C22.2888 23.3712 30.495 15.165 40.5775 15.165C50.66 15.165 58.8661 23.3712 58.8661 33.4537C58.8661 43.5362 50.66 51.7424 40.5775 51.7424ZM40.5775 16.9743C31.4899 16.9743 24.0981 24.3661 24.0981 33.4537C24.0981 42.5413 31.4899 49.9331 40.5775 49.9331C49.6651 49.9331 57.0569 42.5413 57.0569 33.4537C57.0569 24.3661 49.6651 16.9743 40.5775 16.9743Z" fill="white"/>
<path d="M65.5721 81.4426C56.3866 81.4426 48.9124 73.9684 48.9124 64.7828C48.9124 55.5973 56.3866 48.123 65.5721 48.123C74.7577 48.123 82.2319 55.5973 82.2319 64.7828C82.2319 73.9684 74.7577 81.4426 65.5721 81.4426ZM65.5721 49.9323C57.3866 49.9323 50.7216 56.5921 50.7216 64.7828C50.7216 72.9736 57.3814 79.6334 65.5721 79.6334C73.7629 79.6334 80.4227 72.9736 80.4227 64.7828C80.4227 56.5921 73.7629 49.9323 65.5721 49.9323Z" fill="white"/>
<path d="M39.9433 35.8095C41.5945 35.8095 42.933 34.4709 42.933 32.8198C42.933 31.1686 41.5945 29.8301 39.9433 29.8301C38.2921 29.8301 36.9536 31.1686 36.9536 32.8198C36.9536 34.4709 38.2921 35.8095 39.9433 35.8095Z" fill="white"/>
<path d="M17.7578 21.5357C18.8145 22.278 19.8712 23.0151 20.9279 23.7573L21.3764 24.0718C21.598 24.2264 21.964 24.2522 22.2114 24.18C22.4588 24.1079 22.7372 23.9171 22.8609 23.68C23.1547 23.1233 22.9692 22.5408 22.4692 22.1955C21.4125 21.4532 20.3557 20.7161 19.299 19.9738L18.8506 19.6594C18.6289 19.5048 18.263 19.479 18.0155 19.5512C17.7681 19.6233 17.4898 19.814 17.3661 20.0512C17.0722 20.6079 17.2578 21.1903 17.7578 21.5357Z" fill="white"/>
<path d="M21.1599 16.8397C22.0156 17.6695 22.8661 18.4943 23.7218 19.3242L24.0826 19.6747C24.4898 20.0716 25.2167 20.1128 25.6187 19.6747C26.0208 19.2366 26.0569 18.5613 25.6187 18.1386C24.763 17.3087 23.9125 16.484 23.0569 15.6541L22.696 15.3036C22.2888 14.9067 21.562 14.8654 21.1599 15.3036C20.7579 15.7417 20.7218 16.417 21.1599 16.8397Z" fill="white"/>
<path d="M26.2577 13.4019C26.5154 14.6802 26.7783 15.9534 27.0361 17.2318L27.1495 17.7782C27.2629 18.3349 27.9536 18.7112 28.4845 18.5359C29.0773 18.3452 29.366 17.7988 29.2422 17.2008L28.4639 13.371L28.3505 12.8246C28.2371 12.2679 27.5464 11.8916 27.0154 12.0668C26.4227 12.2575 26.134 12.8039 26.2577 13.4019Z" fill="white"/>
<path d="M23.7526 31.9331H29.4484C30.0155 31.9331 30.5618 31.4331 30.5361 30.8454C30.5103 30.2578 30.0567 29.7578 29.4484 29.7578H23.7526C23.1856 29.7578 22.6392 30.2578 22.6649 30.8454C22.6907 31.4331 23.1443 31.9331 23.7526 31.9331Z" fill="white"/>
<path d="M37.3506 16.5621V19.6291C37.3506 20.1962 37.8506 20.7425 38.4382 20.7168C39.0258 20.691 39.5258 20.2374 39.5258 19.6291V16.5621C39.5258 15.9951 39.0258 15.4487 38.4382 15.4745C37.8506 15.5003 37.3506 15.9539 37.3506 16.5621Z" fill="white"/>
<path d="M57.6032 32.3662H53.3248C52.7578 32.3662 52.2114 32.8662 52.2372 33.4538C52.263 34.0415 52.7166 34.5415 53.3248 34.5415H57.6032C58.1702 34.5415 58.7166 34.0415 58.6908 33.4538C58.665 32.8662 58.2114 32.3662 57.6032 32.3662Z" fill="white"/>
<path d="M41.665 50.4795V46.6754C41.665 46.1084 41.165 45.562 40.5774 45.5878C39.9897 45.6136 39.4897 46.0672 39.4897 46.6754V50.4795C39.4897 51.0466 39.9897 51.5929 40.5774 51.5672C41.165 51.5414 41.665 51.0878 41.665 50.4795Z" fill="white"/>
<path d="M46.3648 24.7467L40.9084 30.2031L42.1878 31.4825L47.6442 26.0261L46.3648 24.7467Z" fill="white"/>
<path d="M40.7578 35.2676H38.9485V40.1026H40.7578V35.2676Z" fill="white"/>
<path d="M45.2371 24.2474L48 27.0103C48.2371 27.2474 48.6443 27.1443 48.7371 26.8196L49.799 23.134C49.8918 22.8093 49.6031 22.5052 49.2732 22.5825L45.4485 23.5052C45.1134 23.5876 44.9949 24 45.2423 24.2474H45.2371Z" fill="white"/>
<path d="M42.0466 39.8301H37.8198C37.4589 39.8301 37.227 40.2218 37.4022 40.5363L39.4074 44.1651C39.5826 44.4847 40.0414 44.495 40.2321 44.1858L42.4538 40.5569C42.6497 40.2373 42.4177 39.8301 42.0466 39.8301Z" fill="white"/>
<path d="M64.4072 74.4843V73.4224C64.4072 73.0049 64.0876 72.6698 63.6752 72.6234C62.7216 72.5203 61.7938 72.2575 61.067 71.8966C60.701 71.7162 60.5309 71.2884 60.6649 70.9018L60.7371 70.6956C60.8969 70.2523 61.4072 70.0255 61.835 70.2265C62.6752 70.6286 63.7061 70.9018 64.7938 70.9018C66.634 70.9018 67.8762 69.8399 67.8762 68.3606C67.8762 66.8812 66.8659 66.0564 64.9484 65.2781C62.3041 64.242 60.6752 63.0513 60.6752 60.7935C60.6752 58.8296 61.9484 57.2987 63.9793 56.7523C64.335 56.6544 64.5876 56.3451 64.5876 55.974V54.809C64.5876 54.3657 64.9484 54.0049 65.3917 54.0049C65.835 54.0049 66.1958 54.3657 66.1958 54.809V55.7729C66.1958 56.1853 66.5103 56.5255 66.9226 56.5719C67.7113 56.6647 68.3556 56.8554 68.8866 57.0822C69.2783 57.2523 69.4639 57.7008 69.3092 58.1028L69.2319 58.3039C69.0721 58.7265 68.5927 58.943 68.1752 58.7626C67.5773 58.5049 66.7422 58.2575 65.6494 58.2575C63.6546 58.2575 62.902 59.4482 62.902 60.4843C62.902 61.8296 63.8608 62.5049 66.1134 63.4379C68.7835 64.5255 70.1288 65.876 70.1288 68.1801C70.1288 70.0667 68.9175 71.8451 66.634 72.4585C66.2835 72.5513 66.0309 72.8657 66.0309 73.2317V74.4791C66.0309 74.9224 65.6701 75.2832 65.2268 75.2832H65.201C64.7577 75.2832 64.3969 74.9224 64.3969 74.4791L64.4072 74.4843Z" fill="white"/>
<path d="M23.2835 55.6544C23.268 57.9946 23.567 60.3142 24.4588 62.4946C25.2371 64.3966 26.3196 66.1338 27.7113 67.6441C30.3196 70.4791 33.9381 72.3812 37.7526 72.907C40.067 73.2265 42.4072 73.0822 44.6649 72.4688C46.0103 72.1028 45.4381 70.0049 44.0876 70.3709C40.7216 71.2884 37.067 71.0152 33.9588 69.5513C30.8505 68.0874 28.2526 65.5616 26.7423 62.3451C25.7887 60.3193 25.433 57.9688 25.4484 55.6492C25.4588 54.2523 23.2835 54.2472 23.2732 55.6492L23.2835 55.6544Z" fill="white"/>
<path d="M25.5466 50.7732L28.9899 55.3866C29.4847 56.0515 28.9744 56.9897 28.1497 56.933L20.5569 56.4278C19.7218 56.3711 19.3455 55.3608 19.9383 54.7732L24.0878 50.6598C24.5053 50.2474 25.1961 50.2938 25.5466 50.768V50.7732Z" fill="white"/>
<path d="M79.1394 43.5513C79.1548 41.2111 78.8559 38.8915 77.9641 36.7111C77.1857 34.809 76.1033 33.0719 74.7115 31.5616C72.1033 28.7265 68.4847 26.8245 64.6703 26.2987C62.3559 25.9791 60.0156 26.1234 57.7579 26.7368C56.4126 27.1028 56.9847 29.2008 58.3352 28.8348C61.7012 27.9173 65.3559 28.1905 68.4641 29.6544C71.5724 31.1183 74.1703 33.6441 75.6806 36.8606C76.6342 38.8863 76.9899 41.2368 76.9744 43.5564C76.9641 44.9533 79.1394 44.9585 79.1497 43.5564L79.1394 43.5513Z" fill="white"/>
<path d="M76.8764 48.4328L73.4331 43.8194C72.9383 43.1544 73.4486 42.2163 74.2733 42.273L81.8661 42.7781C82.7012 42.8348 83.0775 43.8451 82.4847 44.4328L78.3352 48.5462C77.9177 48.9585 77.2269 48.9121 76.8764 48.4379V48.4328Z" fill="white"/>
</g>
<defs>
<clipPath id="clip0_47_33362">
<rect width="100" height="100" fill="white"/>
</clipPath>
</defs>
</svg>
